<ttFont>
    <TTGlyph name="A" xMin="-39" yMin="-8" xMax="592" yMax="653">
      <contour>
        <pt x="522" y="131" on="1"/>
        <pt x="528" y="95" on="0"/>
        <pt x="556" y="66" on="0"/>
        <pt x="588" y="62" on="1"/>
        <pt x="592" y="55" on="1"/>
        <pt x="578" y="-3" on="1"/>
        <pt x="555" y="-3" on="0"/>
        <pt x="534" y="-2" on="1"/>
        <pt x="515" y="-1" on="0"/>
        <pt x="475" y="0" on="0"/>
        <pt x="459" y="0" on="1"/>
        <pt x="427" y="0" on="0"/>
        <pt x="368" y="-2" on="0"/>
        <pt x="345" y="-4" on="1"/>
        <pt x="318" y="-6" on="0"/>
        <pt x="294" y="-8" on="1"/>
        <pt x="290" y="0" on="1"/>
        <pt x="302" y="59" on="1"/>
        <pt x="326" y="61" on="0"/>
        <pt x="357" y="66" on="0"/>
        <pt x="375" y="76" on="0"/>
        <pt x="381" y="90" on="0"/>
        <pt x="381" y="101" on="1"/>
        <pt x="381" y="106" on="0"/>
        <pt x="380" y="122" on="0"/>
        <pt x="379" y="130" on="1"/>
        <pt x="370" y="207" on="1"/>
        <pt x="365" y="207" on="0"/>
        <pt x="342" y="208" on="0"/>
        <pt x="315" y="209" on="0"/>
        <pt x="290" y="209" on="0"/>
        <pt x="283" y="209" on="1"/>
        <pt x="272" y="209" on="0"/>
        <pt x="244" y="207" on="0"/>
        <pt x="217" y="205" on="0"/>
        <pt x="195" y="203" on="0"/>
        <pt x="190" y="202" on="1"/>
        <pt x="158" y="125" on="1"/>
        <pt x="148" y="101" on="0"/>
        <pt x="148" y="88" on="1"/>
        <pt x="148" y="62" on="0"/>
        <pt x="187" y="62" on="1"/>
        <pt x="229" y="62" on="1"/>
        <pt x="232" y="56" on="1"/>
        <pt x="218" y="-6" on="1"/>
        <pt x="195" y="-5" on="0"/>
        <pt x="171" y="-3" on="1"/>
        <pt x="151" y="-2" on="0"/>
        <pt x="101" y="0" on="0"/>
        <pt x="78" y="0" on="1"/>
        <pt x="58" y="0" on="0"/>
        <pt x="17" y="-1" on="0"/>
        <pt x="0" y="-2" on="1"/>
        <pt x="-20" y="-3" on="0"/>
        <pt x="-39" y="-3" on="1"/>
        <pt x="-24" y="63" on="1"/>
        <pt x="-1" y="67" on="0"/>
        <pt x="31" y="96" on="0"/>
        <pt x="47" y="130" on="1"/>
        <pt x="277" y="636" on="1"/>
        <pt x="434" y="653" on="1"/>
        <pt x="445" y="648" on="1"/>
        <pt x="459" y="549" on="0"/>
        <pt x="472" y="454" on="1"/>
        <pt x="478" y="413" on="0"/>
        <pt x="490" y="327" on="0"/>
        <pt x="503" y="242" on="0"/>
        <pt x="516" y="163" on="0"/>
      </contour>
      <contour>
        <pt x="225" y="285" on="1"/>
        <pt x="292" y="285" on="1"/>
        <pt x="308" y="285" on="0"/>
        <pt x="346" y="287" on="0"/>
        <pt x="363" y="289" on="1"/>
        <pt x="335" y="512" on="1"/>
        <pt x="321" y="512" on="1"/>
      </contour>
    </TTGlyph>
    <TTGlyph name="AE" xMin="-28" yMin="-8" xMax="818" yMax="654">
      <contour>
        <pt x="288" y="60" on="1"/>
        <pt x="333" y="64" on="0"/>
        <pt x="373" y="94" on="0"/>
        <pt x="374" y="123" on="1"/>
        <pt x="375" y="131" on="0"/>
        <pt x="376" y="148" on="0"/>
        <pt x="376" y="157" on="1"/>
        <pt x="376" y="249" on="1"/>
        <pt x="291" y="239" on="1"/>
        <pt x="208" y="223" on="1"/>
        <pt x="155" y="125" on="1"/>
        <pt x="147" y="109" on="0"/>
        <pt x="140" y="92" on="0"/>
        <pt x="140" y="84" on="1"/>
        <pt x="140" y="71" on="0"/>
        <pt x="161" y="63" on="0"/>
        <pt x="190" y="63" on="1"/>
        <pt x="220" y="58" on="1"/>
        <pt x="206" y="-6" on="1"/>
        <pt x="206" y="-6" on="0"/>
        <pt x="170" y="-4" on="0"/>
        <pt x="120" y="-2" on="0"/>
        <pt x="64" y="0" on="0"/>
        <pt x="44" y="0" on="1"/>
        <pt x="32" y="0" on="0"/>
        <pt x="7" y="-1" on="0"/>
        <pt x="-4" y="-2" on="1"/>
        <pt x="-16" y="-3" on="0"/>
        <pt x="-28" y="-3" on="1"/>
        <pt x="-25" y="56" on="1"/>
        <pt x="-15" y="58" on="0"/>
        <pt x="22" y="97" on="0"/>
        <pt x="42" y="130" on="1"/>
        <pt x="290" y="556" on="1"/>
        <pt x="287" y="578" on="0"/>
        <pt x="268" y="578" on="1"/>
        <pt x="263" y="578" on="0"/>
        <pt x="253" y="577" on="0"/>
        <pt x="248" y="577" on="1"/>
        <pt x="243" y="576" on="0"/>
        <pt x="238" y="576" on="1"/>
        <pt x="232" y="585" on="1"/>
        <pt x="248" y="645" on="1"/>
        <pt x="248" y="645" on="0"/>
        <pt x="289" y="644" on="0"/>
        <pt x="357" y="643" on="0"/>
        <pt x="442" y="642" on="0"/>
        <pt x="486" y="642" on="1"/>
        <pt x="598" y="642" on="0"/>
        <pt x="763" y="649" on="0"/>
        <pt x="798" y="654" on="1"/>
        <pt x="805" y="643" on="1"/>
        <pt x="797" y="617" on="0"/>
        <pt x="789" y="587" on="1"/>
        <pt x="782" y="561" on="0"/>
        <pt x="766" y="497" on="0"/>
        <pt x="760" y="462" on="1"/>
        <pt x="669" y="455" on="1"/>
        <pt x="671" y="464" on="0"/>
        <pt x="673" y="475" on="1"/>
        <pt x="675" y="483" on="0"/>
        <pt x="677" y="504" on="0"/>
        <pt x="677" y="512" on="1"/>
        <pt x="677" y="527" on="0"/>
        <pt x="667" y="545" on="0"/>
        <pt x="642" y="555" on="0"/>
        <pt x="596" y="559" on="0"/>
        <pt x="560" y="559" on="1"/>
        <pt x="528" y="559" on="0"/>
        <pt x="508" y="546" on="0"/>
        <pt x="508" y="531" on="1"/>
        <pt x="512" y="349" on="1"/>
        <pt x="606" y="361" on="1"/>
        <pt x="701" y="380" on="1"/>
        <pt x="710" y="369" on="1"/>
        <pt x="688" y="286" on="1"/>
        <pt x="599" y="280" on="1"/>
        <pt x="513" y="269" on="1"/>
        <pt x="517" y="145" on="1"/>
        <pt x="518" y="110" on="0"/>
        <pt x="545" y="78" on="0"/>
        <pt x="576" y="78" on="1"/>
        <pt x="616" y="78" on="0"/>
        <pt x="665" y="85" on="0"/>
        <pt x="697" y="109" on="0"/>
        <pt x="716" y="154" on="0"/>
        <pt x="726" y="192" on="1"/>
        <pt x="811" y="199" on="1"/>
        <pt x="818" y="190" on="1"/>
        <pt x="810" y="163" on="0"/>
        <pt x="801" y="133" on="1"/>
        <pt x="793" y="107" on="0"/>
        <pt x="776" y="40" on="0"/>
        <pt x="768" y="4" on="1"/>
        <pt x="757" y="-7" on="1"/>
        <pt x="757" y="-7" on="0"/>
        <pt x="698" y="-4" on="0"/>
        <pt x="604" y="-2" on="0"/>
        <pt x="490" y="0" on="0"/>
        <pt x="436" y="0" on="1"/>
        <pt x="406" y="0" on="0"/>
        <pt x="351" y="-2" on="0"/>
        <pt x="329" y="-4" on="1"/>
        <pt x="303" y="-6" on="0"/>
        <pt x="281" y="-8" on="1"/>
        <pt x="277" y="0" on="1"/>
      </contour>
      <contour>
        <pt x="317" y="321" on="1"/>
        <pt x="378" y="329" on="1"/>
        <pt x="379" y="510" on="1"/>
        <pt x="364" y="510" on="1"/>
        <pt x="257" y="317" on="1"/>
      </contour>
    </TTGlyph>
    <TTGlyph name="AEacute" xMin="-28" yMin="-8" xMax="818" yMax="912">
      <component glyphName="AE" x="0" y="0" flags="0x4"/>
      <component glyphName="acute" x="302" y="175" flags="0x4"/>
    </TTGlyph>
    <TTGlyph name="Aacute" xMin="-39" yMin="-8" xMax="592" yMax="857">
      <component glyphName="A" x="0" y="0" flags="0x4"/>
      <component glyphName="acute.cap" x="156" y="0" flags="0x4"/>
    </TTGlyph>
    <TTGlyph name="Abreve" xMin="-39" yMin="-8" xMax="592" yMax="857">
      <component glyphName="A" x="0" y="0" flags="0x4"/>
      <component glyphName="breve.cap" x="118" y="19" flags="0x4"/>
    </TTGlyph>
    <TTGlyph name="Acircumflex" xMin="-39" yMin="-8" xMax="592" yMax="877">
      <component glyphName="A" x="0" y="0" flags="0x4"/>
      <component glyphName="circumflex.cap" x="119" y="0" flags="0x4"/>
    </TTGlyph>
    <TTGlyph name="Adieresis" xMin="-39" yMin="-8" xMax="592" yMax="839">
      <component glyphName="A" x="0" y="0" flags="0x4"/>
      <component glyphName="dieresis.cap" x="119" y="5" flags="0x4"/>
    </TTGlyph>
    <TTGlyph name="Agrave" xMin="-39" yMin="-8" xMax="592" yMax="857">
      <component glyphName="A" x="0" y="0" flags="0x4"/>
      <component glyphName="grave.cap" x="166" y="0" flags="0x4"/>
    </TTGlyph>
    <TTGlyph name="Amacron" xMin="-39" yMin="-8" xMax="592" yMax="805">
      <component glyphName="A" x="0" y="0" flags="0x4"/>
      <component glyphName="macron.cap" x="118" y="0" flags="0x4"/>
    </TTGlyph>
    <TTGlyph name="Aogonek" xMin="-39" yMin="-242" xMax="592" yMax="653">
      <contour>
        <pt x="578" y="-175" on="1"/>
        <pt x="561" y="-189" on="0"/>
        <pt x="543" y="-202" on="1"/>
        <pt x="527" y="-213" on="0"/>
        <pt x="490" y="-236" on="0"/>
        <pt x="471" y="-242" on="1"/>
        <pt x="422" y="-242" on="0"/>
        <pt x="365" y="-199" on="0"/>
        <pt x="365" y="-161" on="1"/>
        <pt x="365" y="-125" on="0"/>
        <pt x="418" y="-52" on="0"/>
        <pt x="472" y="0" on="1"/>
        <pt x="459" y="0" on="1"/>
        <pt x="427" y="0" on="0"/>
        <pt x="368" y="-2" on="0"/>
        <pt x="345" y="-4" on="1"/>
        <pt x="318" y="-6" on="0"/>
        <pt x="294" y="-8" on="1"/>
        <pt x="290" y="0" on="1"/>
        <pt x="302" y="59" on="1"/>
        <pt x="326" y="61" on="0"/>
        <pt x="357" y="66" on="0"/>
        <pt x="375" y="76" on="0"/>
        <pt x="381" y="90" on="0"/>
        <pt x="381" y="101" on="1"/>
        <pt x="381" y="106" on="0"/>
        <pt x="380" y="122" on="0"/>
        <pt x="379" y="130" on="1"/>
        <pt x="370" y="207" on="1"/>
        <pt x="365" y="207" on="0"/>
        <pt x="342" y="208" on="0"/>
        <pt x="315" y="209" on="0"/>
        <pt x="290" y="209" on="0"/>
        <pt x="283" y="209" on="1"/>
        <pt x="272" y="209" on="0"/>
        <pt x="244" y="207" on="0"/>
        <pt x="217" y="205" on="0"/>
        <pt x="195" y="203" on="0"/>
        <pt x="190" y="202" on="1"/>
        <pt x="158" y="125" on="1"/>
        <pt x="148" y="101" on="0"/>
        <pt x="148" y="88" on="1"/>
        <pt x="148" y="62" on="0"/>
        <pt x="187" y="62" on="1"/>
        <pt x="229" y="62" on="1"/>
        <pt x="232" y="56" on="1"/>
        <pt x="218" y="-6" on="1"/>
        <pt x="195" y="-5" on="0"/>
        <pt x="171" y="-3" on="1"/>
        <pt x="151" y="-2" on="0"/>
        <pt x="101" y="0" on="0"/>
        <pt x="78" y="0" on="1"/>
        <pt x="58" y="0" on="0"/>
        <pt x="17" y="-1" on="0"/>
        <pt x="0" y="-2" on="1"/>
        <pt x="-20" y="-3" on="0"/>
        <pt x="-39" y="-3" on="1"/>
        <pt x="-24" y="63" on="1"/>
        <pt x="-1" y="67" on="0"/>
        <pt x="31" y="96" on="0"/>
        <pt x="47" y="130" on="1"/>
        <pt x="277" y="636" on="1"/>
        <pt x="434" y="653" on="1"/>
        <pt x="445" y="648" on="1"/>
        <pt x="459" y="549" on="0"/>
        <pt x="472" y="454" on="1"/>
        <pt x="478" y="413" on="0"/>
        <pt x="490" y="327" on="0"/>
        <pt x="503" y="242" on="0"/>
        <pt x="516" y="163" on="0"/>
        <pt x="522" y="131" on="1"/>
        <pt x="528" y="95" on="0"/>
        <pt x="556" y="66" on="0"/>
        <pt x="588" y="62" on="1"/>
        <pt x="592" y="55" on="1"/>
        <pt x="578" y="-3" on="1"/>
        <pt x="572" y="-2" on="0"/>
        <pt x="564" y="-2" on="1"/>
        <pt x="557" y="-2" on="0"/>
        <pt x="540" y="-2" on="0"/>
        <pt x="531" y="-1" on="1"/>
        <pt x="507" y="-27" on="0"/>
        <pt x="476" y="-63" on="0"/>
        <pt x="458" y="-92" on="0"/>
        <pt x="450" y="-116" on="0"/>
        <pt x="450" y="-129" on="1"/>
        <pt x="450" y="-147" on="0"/>
        <pt x="472" y="-170" on="0"/>
        <pt x="491" y="-170" on="1"/>
        <pt x="503" y="-170" on="0"/>
        <pt x="528" y="-163" on="0"/>
        <pt x="539" y="-158" on="1"/>
        <pt x="551" y="-153" on="0"/>
        <pt x="563" y="-146" on="1"/>
      </contour>
      <contour>
        <pt x="225" y="285" on="1"/>
        <pt x="292" y="285" on="1"/>
        <pt x="308" y="285" on="0"/>
        <pt x="346" y="287" on="0"/>
        <pt x="363" y="289" on="1"/>
        <pt x="335" y="512" on="1"/>
        <pt x="321" y="512" on="1"/>
      </contour>
    </TTGlyph>
    <TTGlyph name="Aring" xMin="-39" yMin="-8" xMax="592" yMax="864">
      <component glyphName="A" x="0" y="0" flags="0x4"/>
      <component glyphName="ring.cap" x="119" y="0" flags="0x4"/>
    </TTGlyph>
    <TTGlyph name="Aringacute" xMin="-39" yMin="-8" xMax="592" yMax="977">
      <contour>
        <pt x="522" y="131" on="1"/>
        <pt x="528" y="95" on="0"/>
        <pt x="556" y="66" on="0"/>
        <pt x="588" y="62" on="1"/>
        <pt x="592" y="55" on="1"/>
        <pt x="578" y="-3" on="1"/>
        <pt x="555" y="-3" on="0"/>
        <pt x="534" y="-2" on="1"/>
        <pt x="515" y="-1" on="0"/>
        <pt x="475" y="0" on="0"/>
        <pt x="459" y="0" on="1"/>
        <pt x="427" y="0" on="0"/>
        <pt x="368" y="-2" on="0"/>
        <pt x="345" y="-4" on="1"/>
        <pt x="318" y="-6" on="0"/>
        <pt x="294" y="-8" on="1"/>
        <pt x="290" y="0" on="1"/>
        <pt x="302" y="59" on="1"/>
        <pt x="326" y="61" on="0"/>
        <pt x="357" y="66" on="0"/>
        <pt x="375" y="76" on="0"/>
        <pt x="381" y="90" on="0"/>
        <pt x="381" y="101" on="1"/>
        <pt x="381" y="106" on="0"/>
        <pt x="380" y="122" on="0"/>
        <pt x="379" y="130" on="1"/>
        <pt x="370" y="207" on="1"/>
        <pt x="365" y="207" on="0"/>
        <pt x="342" y="208" on="0"/>
        <pt x="315" y="209" on="0"/>
        <pt x="290" y="209" on="0"/>
        <pt x="283" y="209" on="1"/>
        <pt x="272" y="209" on="0"/>
        <pt x="244" y="207" on="0"/>
        <pt x="217" y="205" on="0"/>
        <pt x="195" y="203" on="0"/>
        <pt x="190" y="202" on="1"/>
        <pt x="158" y="125" on="1"/>
        <pt x="148" y="101" on="0"/>
        <pt x="148" y="88" on="1"/>
        <pt x="148" y="62" on="0"/>
        <pt x="187" y="62" on="1"/>
        <pt x="229" y="62" on="1"/>
        <pt x="232" y="56" on="1"/>
        <pt x="218" y="-6" on="1"/>
        <pt x="195" y="-5" on="0"/>
        <pt x="171" y="-3" on="1"/>
        <pt x="151" y="-2" on="0"/>
        <pt x="101" y="0" on="0"/>
        <pt x="78" y="0" on="1"/>
        <pt x="58" y="0" on="0"/>
        <pt x="17" y="-1" on="0"/>
        <pt x="0" y="-2" on="1"/>
        <pt x="-20" y="-3" on="0"/>
        <pt x="-39" y="-3" on="1"/>
        <pt x="-24" y="63" on="1"/>
        <pt x="-1" y="67" on="0"/>
        <pt x="31" y="96" on="0"/>
        <pt x="47" y="130" on="1"/>
        <pt x="277" y="636" on="1"/>
        <pt x="434" y="653" on="1"/>
        <pt x="445" y="648" on="1"/>
        <pt x="459" y="549" on="0"/>
        <pt x="472" y="454" on="1"/>
        <pt x="478" y="413" on="0"/>
        <pt x="490" y="327" on="0"/>
        <pt x="503" y="242" on="0"/>
        <pt x="516" y="163" on="0"/>
      </contour>
      <contour>
        <pt x="225" y="285" on="1"/>
        <pt x="292" y="285" on="1"/>
        <pt x="308" y="285" on="0"/>
        <pt x="346" y="287" on="0"/>
        <pt x="363" y="289" on="1"/>
        <pt x="335" y="512" on="1"/>
        <pt x="321" y="512" on="1"/>
      </contour>
      <contour>
        <pt x="374" y="713" on="1"/>
        <pt x="379" y="713" on="0"/>
        <pt x="393" y="716" on="0"/>
        <pt x="405" y="724" on="0"/>
        <pt x="414" y="739" on="0"/>
        <pt x="414" y="751" on="1"/>
        <pt x="414" y="783" on="0"/>
        <pt x="378" y="783" on="1"/>
        <pt x="360" y="783" on="0"/>
        <pt x="340" y="763" on="0"/>
        <pt x="340" y="746" on="1"/>
        <pt x="340" y="728" on="0"/>
        <pt x="363" y="713" on="0"/>
      </contour>
      <contour>
        <pt x="363" y="665" on="1"/>
        <pt x="329" y="665" on="0"/>
        <pt x="294" y="704" on="0"/>
        <pt x="294" y="735" on="1"/>
        <pt x="294" y="777" on="0"/>
        <pt x="349" y="833" on="0"/>
        <pt x="391" y="833" on="1"/>
        <pt x="429" y="833" on="0"/>
        <pt x="460" y="791" on="0"/>
        <pt x="460" y="765" on="1"/>
        <pt x="460" y="746" on="0"/>
        <pt x="447" y="710" on="0"/>
        <pt x="421" y="682" on="0"/>
        <pt x="385" y="665" on="0"/>
      </contour>
      <contour>
        <pt x="506" y="892" on="1"/>
        <pt x="476" y="885" on="0"/>
        <pt x="442" y="875" on="1"/>
        <pt x="413" y="867" on="0"/>
        <pt x="338" y="845" on="0"/>
        <pt x="300" y="833" on="1"/>
        <pt x="288" y="841" on="1"/>
        <pt x="276" y="884" on="1"/>
        <pt x="312" y="900" on="0"/>
        <pt x="383" y="932" on="0"/>
        <pt x="412" y="946" on="1"/>
        <pt x="445" y="962" on="0"/>
        <pt x="476" y="977" on="1"/>
        <pt x="488" y="973" on="1"/>
        <pt x="511" y="903" on="1"/>
      </contour>
    </TTGlyph>
    <TTGlyph name="Atilde" xMin="-39" yMin="-8" xMax="592" yMax="853">
      <component glyphName="A" x="0" y="0" flags="0x4"/>
      <component glyphName="tilde.cap" x="119" y="0" flags="0x4"/>
    </TTGlyph>
    <TTGlyph name="B" xMin="5" yMin="-10" xMax="574" yMax="647">
      <contour>
        <pt x="149" y="0" on="1"/>
        <pt x="128" y="0" on="0"/>
        <pt x="78" y="-3" on="0"/>
        <pt x="56" y="-5" on="1"/>
        <pt x="30" y="-8" on="0"/>
        <pt x="5" y="-10" on="1"/>
        <pt x="20" y="56" on="1"/>
        <pt x="41" y="60" on="0"/>
        <pt x="70" y="72" on="0"/>
        <pt x="89" y="90" on="0"/>
        <pt x="99" y="116" on="0"/>
        <pt x="101" y="136" on="1"/>
        <pt x="150" y="528" on="1"/>
        <pt x="153" y="556" on="0"/>
        <pt x="142" y="578" on="0"/>
        <pt x="125" y="578" on="1"/>
        <pt x="120" y="578" on="0"/>
        <pt x="109" y="577" on="0"/>
        <pt x="104" y="577" on="1"/>
        <pt x="98" y="576" on="0"/>
        <pt x="92" y="576" on="1"/>
        <pt x="86" y="584" on="1"/>
        <pt x="103" y="644" on="1"/>
        <pt x="131" y="643" on="0"/>
        <pt x="157" y="642" on="1"/>
        <pt x="179" y="641" on="0"/>
        <pt x="224" y="641" on="0"/>
        <pt x="237" y="641" on="1"/>
        <pt x="249" y="641" on="0"/>
        <pt x="296" y="642" on="0"/>
        <pt x="319" y="644" on="1"/>
        <pt x="346" y="645" on="0"/>
        <pt x="377" y="647" on="1"/>
        <pt x="470" y="647" on="0"/>
        <pt x="574" y="577" on="0"/>
        <pt x="574" y="511" on="1"/>
        <pt x="574" y="403" on="0"/>
        <pt x="450" y="339" on="1"/>
        <pt x="507" y="321" on="0"/>
        <pt x="569" y="251" on="0"/>
        <pt x="569" y="203" on="1"/>
        <pt x="569" y="155" on="0"/>
        <pt x="530" y="77" on="0"/>
        <pt x="458" y="21" on="0"/>
        <pt x="358" y="-10" on="0"/>
        <pt x="297" y="-10" on="1"/>
        <pt x="284" y="-10" on="0"/>
        <pt x="246" y="-6" on="0"/>
        <pt x="204" y="-3" on="0"/>
        <pt x="164" y="0" on="0"/>
      </contour>
      <contour>
        <pt x="250" y="281" on="1"/>
        <pt x="227" y="133" on="1"/>
        <pt x="222" y="101" on="0"/>
        <pt x="261" y="74" on="0"/>
        <pt x="311" y="74" on="1"/>
        <pt x="362" y="74" on="0"/>
        <pt x="422" y="135" on="0"/>
        <pt x="422" y="187" on="1"/>
        <pt x="422" y="223" on="0"/>
        <pt x="380" y="272" on="0"/>
        <pt x="338" y="282" on="1"/>
      </contour>
      <contour>
        <pt x="262" y="368" on="1"/>
        <pt x="283" y="365" on="0"/>
        <pt x="301" y="363" on="1"/>
        <pt x="316" y="361" on="0"/>
        <pt x="345" y="359" on="0"/>
        <pt x="352" y="359" on="1"/>
        <pt x="374" y="368" on="0"/>
        <pt x="392" y="385" on="1"/>
        <pt x="407" y="399" on="0"/>
        <pt x="432" y="446" on="0"/>
        <pt x="432" y="481" on="1"/>
        <pt x="432" y="525" on="0"/>
        <pt x="374" y="566" on="0"/>
        <pt x="312" y="566" on="1"/>
        <pt x="301" y="566" on="0"/>
        <pt x="294" y="559" on="0"/>
        <pt x="292" y="548" on="1"/>
        <pt x="288" y="527" on="0"/>
        <pt x="279" y="478" on="0"/>
        <pt x="272" y="430" on="0"/>
        <pt x="265" y="385" on="0"/>
      </contour>
    </TTGlyph>
    <TTGlyph name="C" xMin="32" yMin="-12" xMax="603" yMax="653">
      <contour>
        <pt x="294" y="-12" on="1"/>
        <pt x="233" y="-12" on="0"/>
        <pt x="136" y="25" on="0"/>
        <pt x="68" y="94" on="0"/>
        <pt x="32" y="193" on="0"/>
        <pt x="32" y="256" on="1"/>
        <pt x="32" y="347" on="0"/>
        <pt x="84" y="493" on="0"/>
        <pt x="181" y="597" on="0"/>
        <pt x="318" y="653" on="0"/>
        <pt x="402" y="653" on="1"/>
        <pt x="432" y="653" on="0"/>
        <pt x="502" y="646" on="0"/>
        <pt x="531" y="641" on="1"/>
        <pt x="565" y="636" on="0"/>
        <pt x="599" y="629" on="1"/>
        <pt x="603" y="616" on="1"/>
        <pt x="595" y="591" on="0"/>
        <pt x="586" y="561" on="1"/>
        <pt x="578" y="535" on="0"/>
        <pt x="561" y="467" on="0"/>
        <pt x="554" y="428" on="1"/>
        <pt x="457" y="422" on="1"/>
        <pt x="459" y="436" on="0"/>
        <pt x="461" y="448" on="1"/>
        <pt x="463" y="459" on="0"/>
        <pt x="466" y="480" on="0"/>
        <pt x="466" y="488" on="1"/>
        <pt x="466" y="559" on="0"/>
        <pt x="367" y="559" on="1"/>
        <pt x="282" y="559" on="0"/>
        <pt x="188" y="415" on="0"/>
        <pt x="188" y="275" on="1"/>
        <pt x="188" y="180" on="0"/>
        <pt x="255" y="80" on="0"/>
        <pt x="319" y="80" on="1"/>
        <pt x="371" y="80" on="0"/>
        <pt x="435" y="143" on="0"/>
        <pt x="457" y="218" on="1"/>
        <pt x="554" y="225" on="1"/>
        <pt x="546" y="195" on="0"/>
        <pt x="538" y="163" on="1"/>
        <pt x="531" y="136" on="0"/>
        <pt x="517" y="71" on="0"/>
        <pt x="512" y="40" on="1"/>
        <pt x="502" y="28" on="1"/>
        <pt x="476" y="17" on="0"/>
        <pt x="443" y="8" on="1"/>
        <pt x="415" y="0" on="0"/>
        <pt x="339" y="-12" on="0"/>
      </contour>
    </TTGlyph>
    <TTGlyph name="Cacute" xMin="32" yMin="-12" xMax="603" yMax="857">
      <component glyphName="C" x="0" y="0" flags="0x204"/>
      <component glyphName="acute.cap" x="162" y="0" flags="0x4"/>
    </TTGlyph>
    <TTGlyph name="Ccaron" xMin="32" yMin="-12" xMax="603" yMax="865">
      <component glyphName="C" x="0" y="0" flags="0x204"/>
      <component glyphName="caron.cap" x="144" y="0" flags="0x4"/>
    </TTGlyph>
    <TTGlyph name="Ccedilla" xMin="32" yMin="-238" xMax="603" yMax="653">
      <contour>
        <pt x="265" y="-11" on="1"/>
        <pt x="211" y="-7" on="0"/>
        <pt x="124" y="33" on="0"/>
        <pt x="64" y="102" on="0"/>
        <pt x="32" y="197" on="0"/>
        <pt x="32" y="256" on="1"/>
        <pt x="32" y="347" on="0"/>
        <pt x="84" y="493" on="0"/>
        <pt x="181" y="597" on="0"/>
        <pt x="318" y="653" on="0"/>
        <pt x="402" y="653" on="1"/>
        <pt x="432" y="653" on="0"/>
        <pt x="502" y="646" on="0"/>
        <pt x="531" y="641" on="1"/>
        <pt x="565" y="636" on="0"/>
        <pt x="599" y="629" on="1"/>
        <pt x="603" y="616" on="1"/>
        <pt x="595" y="591" on="0"/>
        <pt x="586" y="561" on="1"/>
        <pt x="578" y="535" on="0"/>
        <pt x="561" y="467" on="0"/>
        <pt x="554" y="428" on="1"/>
        <pt x="457" y="422" on="1"/>
        <pt x="459" y="436" on="0"/>
        <pt x="461" y="448" on="1"/>
        <pt x="463" y="459" on="0"/>
        <pt x="466" y="480" on="0"/>
        <pt x="466" y="488" on="1"/>
        <pt x="466" y="559" on="0"/>
        <pt x="367" y="559" on="1"/>
        <pt x="282" y="559" on="0"/>
        <pt x="188" y="415" on="0"/>
        <pt x="188" y="275" on="1"/>
        <pt x="188" y="180" on="0"/>
        <pt x="255" y="80" on="0"/>
        <pt x="319" y="80" on="1"/>
        <pt x="371" y="80" on="0"/>
        <pt x="435" y="143" on="0"/>
        <pt x="457" y="218" on="1"/>
        <pt x="554" y="225" on="1"/>
        <pt x="546" y="195" on="0"/>
        <pt x="538" y="163" on="1"/>
        <pt x="531" y="136" on="0"/>
        <pt x="517" y="71" on="0"/>
        <pt x="512" y="40" on="1"/>
        <pt x="502" y="28" on="1"/>
        <pt x="479" y="18" on="0"/>
        <pt x="450" y="10" on="1"/>
        <pt x="425" y="3" on="0"/>
        <pt x="358" y="-9" on="0"/>
        <pt x="317" y="-11" on="1"/>
        <pt x="304" y="-44" on="1"/>
        <pt x="316" y="-52" on="0"/>
        <pt x="346" y="-71" on="0"/>
        <pt x="371" y="-95" on="0"/>
        <pt x="388" y="-122" on="0"/>
        <pt x="388" y="-136" on="1"/>
        <pt x="388" y="-157" on="0"/>
        <pt x="363" y="-194" on="0"/>
        <pt x="322" y="-222" on="0"/>
        <pt x="271" y="-238" on="0"/>
        <pt x="244" y="-238" on="1"/>
        <pt x="232" y="-238" on="0"/>
        <pt x="206" y="-232" on="0"/>
        <pt x="185" y="-221" on="0"/>
        <pt x="172" y="-206" on="0"/>
        <pt x="172" y="-196" on="1"/>
        <pt x="172" y="-190" on="0"/>
        <pt x="181" y="-174" on="0"/>
        <pt x="195" y="-155" on="0"/>
        <pt x="211" y="-137" on="0"/>
        <pt x="218" y="-130" on="1"/>
        <pt x="226" y="-130" on="1"/>
        <pt x="224" y="-158" on="0"/>
        <pt x="248" y="-186" on="0"/>
        <pt x="269" y="-186" on="1"/>
        <pt x="287" y="-186" on="0"/>
        <pt x="311" y="-168" on="0"/>
        <pt x="311" y="-154" on="1"/>
        <pt x="311" y="-146" on="0"/>
        <pt x="297" y="-129" on="0"/>
        <pt x="275" y="-111" on="0"/>
        <pt x="249" y="-94" on="0"/>
        <pt x="236" y="-86" on="1"/>
      </contour>
    </TTGlyph>
    <TTGlyph name="Ccircumflex" xMin="32" yMin="-12" xMax="603" yMax="904">
      <component glyphName="C" x="0" y="0" flags="0x204"/>
      <component glyphName="circumflex" x="152" y="174" flags="0x4"/>
    </TTGlyph>
    <TTGlyph name="Cdotaccent" xMin="32" yMin="-12" xMax="603" yMax="854">
      <component glyphName="C" x="0" y="0" flags="0x204"/>
      <component glyphName="dotaccent.cap" x="150" y="0" flags="0x4"/>
    </TTGlyph>
    <TTGlyph name="D" xMin="7" yMin="-12" xMax="659" yMax="646">
      <contour>
        <pt x="283" y="-12" on="1"/>
        <pt x="256" y="-9" on="0"/>
        <pt x="229" y="-6" on="1"/>
        <pt x="206" y="-4" on="0"/>
        <pt x="153" y="0" on="0"/>
        <pt x="133" y="0" on="1"/>
        <pt x="113" y="0" on="0"/>
        <pt x="70" y="-3" on="0"/>
        <pt x="51" y="-5" on="1"/>
        <pt x="29" y="-8" on="0"/>
        <pt x="7" y="-10" on="1"/>
        <pt x="22" y="57" on="1"/>
        <pt x="43" y="61" on="0"/>
        <pt x="71" y="72" on="0"/>
        <pt x="89" y="91" on="0"/>
        <pt x="99" y="120" on="0"/>
        <pt x="102" y="141" on="1"/>
        <pt x="149" y="523" on="1"/>
        <pt x="153" y="555" on="0"/>
        <pt x="143" y="577" on="0"/>
        <pt x="126" y="577" on="1"/>
        <pt x="121" y="577" on="0"/>
        <pt x="110" y="576" on="0"/>
        <pt x="105" y="576" on="1"/>
        <pt x="99" y="575" on="0"/>
        <pt x="93" y="575" on="1"/>
        <pt x="89" y="584" on="1"/>
        <pt x="104" y="644" on="1"/>
        <pt x="128" y="643" on="0"/>
        <pt x="151" y="642" on="1"/>
        <pt x="171" y="641" on="0"/>
        <pt x="213" y="641" on="0"/>
        <pt x="227" y="641" on="1"/>
        <pt x="244" y="641" on="0"/>
        <pt x="293" y="642" on="0"/>
        <pt x="316" y="643" on="1"/>
        <pt x="343" y="644" on="0"/>
        <pt x="372" y="646" on="1"/>
        <pt x="438" y="646" on="0"/>
        <pt x="544" y="611" on="0"/>
        <pt x="619" y="545" on="0"/>
        <pt x="659" y="449" on="0"/>
        <pt x="659" y="388" on="1"/>
        <pt x="659" y="302" on="0"/>
        <pt x="602" y="156" on="0"/>
        <pt x="502" y="49" on="0"/>
        <pt x="364" y="-12" on="0"/>
      </contour>
      <contour>
        <pt x="320" y="562" on="1"/>
        <pt x="304" y="562" on="0"/>
        <pt x="292" y="552" on="0"/>
        <pt x="290" y="538" on="1"/>
        <pt x="280" y="478" on="0"/>
        <pt x="258" y="341" on="0"/>
        <pt x="239" y="221" on="0"/>
        <pt x="227" y="134" on="0"/>
        <pt x="227" y="125" on="1"/>
        <pt x="227" y="94" on="0"/>
        <pt x="258" y="72" on="0"/>
        <pt x="299" y="72" on="1"/>
        <pt x="347" y="72" on="0"/>
        <pt x="423" y="114" on="0"/>
        <pt x="476" y="193" on="0"/>
        <pt x="504" y="305" on="0"/>
        <pt x="504" y="376" on="1"/>
        <pt x="504" y="562" on="0"/>
      </contour>
    </TTGlyph>
    <TTGlyph name="Dcaron" xMin="7" yMin="-12" xMax="659" yMax="865">
      <component glyphName="D" x="0" y="0" flags="0x4"/>
      <component glyphName="caron.cap" x="130" y="0" flags="0x4"/>
    </TTGlyph>
    <TTGlyph name="Dcroat" xMin="16" yMin="-12" xMax="674" yMax="646">
      <contour>
        <pt x="298" y="-12" on="1"/>
        <pt x="271" y="-9" on="0"/>
        <pt x="244" y="-6" on="1"/>
        <pt x="221" y="-4" on="0"/>
        <pt x="168" y="0" on="0"/>
        <pt x="148" y="0" on="1"/>
        <pt x="128" y="0" on="0"/>
        <pt x="85" y="-3" on="0"/>
        <pt x="66" y="-5" on="1"/>
        <pt x="44" y="-8" on="0"/>
        <pt x="22" y="-10" on="1"/>
        <pt x="37" y="57" on="1"/>
        <pt x="58" y="61" on="0"/>
        <pt x="86" y="72" on="0"/>
        <pt x="104" y="91" on="0"/>
        <pt x="114" y="120" on="0"/>
        <pt x="117" y="141" on="1"/>
        <pt x="135" y="286" on="1"/>
        <pt x="23" y="286" on="1"/>
        <pt x="16" y="293" on="1"/>
        <pt x="33" y="353" on="1"/>
        <pt x="143" y="353" on="1"/>
        <pt x="164" y="523" on="1"/>
        <pt x="168" y="555" on="0"/>
        <pt x="158" y="577" on="0"/>
        <pt x="141" y="577" on="1"/>
        <pt x="136" y="577" on="0"/>
        <pt x="125" y="576" on="0"/>
        <pt x="120" y="576" on="1"/>
        <pt x="114" y="575" on="0"/>
        <pt x="108" y="575" on="1"/>
        <pt x="104" y="584" on="1"/>
        <pt x="119" y="644" on="1"/>
        <pt x="143" y="643" on="0"/>
        <pt x="166" y="642" on="1"/>
        <pt x="186" y="641" on="0"/>
        <pt x="228" y="641" on="0"/>
        <pt x="242" y="641" on="1"/>
        <pt x="259" y="641" on="0"/>
        <pt x="308" y="642" on="0"/>
        <pt x="331" y="643" on="1"/>
        <pt x="358" y="644" on="0"/>
        <pt x="387" y="646" on="1"/>
        <pt x="453" y="646" on="0"/>
        <pt x="559" y="611" on="0"/>
        <pt x="634" y="545" on="0"/>
        <pt x="674" y="449" on="0"/>
        <pt x="674" y="388" on="1"/>
        <pt x="674" y="302" on="0"/>
        <pt x="617" y="156" on="0"/>
        <pt x="517" y="49" on="0"/>
        <pt x="379" y="-12" on="0"/>
      </contour>
      <contour>
        <pt x="335" y="562" on="1"/>
        <pt x="319" y="562" on="0"/>
        <pt x="307" y="552" on="0"/>
        <pt x="305" y="538" on="1"/>
        <pt x="297" y="495" on="0"/>
        <pt x="283" y="400" on="0"/>
        <pt x="275" y="353" on="1"/>
        <pt x="392" y="355" on="1"/>
        <pt x="398" y="346" on="1"/>
        <pt x="384" y="286" on="1"/>
        <pt x="264" y="286" on="1"/>
        <pt x="254" y="223" on="0"/>
        <pt x="242" y="134" on="0"/>
        <pt x="242" y="125" on="1"/>
        <pt x="242" y="94" on="0"/>
        <pt x="273" y="72" on="0"/>
        <pt x="314" y="72" on="1"/>
        <pt x="362" y="72" on="0"/>
        <pt x="438" y="114" on="0"/>
        <pt x="491" y="193" on="0"/>
        <pt x="519" y="305" on="0"/>
        <pt x="519" y="376" on="1"/>
        <pt x="519" y="562" on="0"/>
      </contour>
    </TTGlyph>
    <TTGlyph name="Delta" xMin="-17" yMin="0" xMax="540" yMax="654">
      <contour>
        <pt x="-17" y="13" on="1"/>
        <pt x="266" y="637" on="1"/>
        <pt x="431" y="654" on="1"/>
        <pt x="440" y="654" on="1"/>
        <pt x="455" y="541" on="0"/>
        <pt x="472" y="427" on="1"/>
        <pt x="479" y="378" on="0"/>
        <pt x="495" y="271" on="0"/>
        <pt x="513" y="162" on="0"/>
        <pt x="531" y="55" on="0"/>
        <pt x="540" y="7" on="1"/>
        <pt x="531" y="0" on="1"/>
        <pt x="-8" y="0" on="1"/>
      </contour>
      <contour>
        <pt x="314" y="519" on="1"/>
        <pt x="136" y="95" on="1"/>
        <pt x="377" y="95" on="1"/>
        <pt x="330" y="519" on="1"/>
      </contour>
    </TTGlyph>
    <TTGlyph name="E" xMin="5" yMin="-10" xMax="584" yMax="653">
      <contour>
        <pt x="225" y="114" on="1"/>
        <pt x="225" y="89" on="0"/>
        <pt x="249" y="77" on="0"/>
        <pt x="282" y="77" on="1"/>
        <pt x="326" y="77" on="0"/>
        <pt x="381" y="84" on="0"/>
        <pt x="415" y="108" on="0"/>
        <pt x="436" y="153" on="0"/>
        <pt x="446" y="191" on="1"/>
        <pt x="529" y="198" on="1"/>
        <pt x="535" y="188" on="1"/>
        <pt x="527" y="161" on="0"/>
        <pt x="518" y="131" on="1"/>
        <pt x="510" y="105" on="0"/>
        <pt x="493" y="39" on="0"/>
        <pt x="485" y="3" on="1"/>
        <pt x="474" y="-7" on="1"/>
        <pt x="422" y="-6" on="0"/>
        <pt x="369" y="-4" on="1"/>
        <pt x="324" y="-2" on="0"/>
        <pt x="220" y="0" on="0"/>
        <pt x="175" y="0" on="1"/>
        <pt x="143" y="0" on="0"/>
        <pt x="82" y="-3" on="0"/>
        <pt x="58" y="-5" on="1"/>
        <pt x="30" y="-8" on="0"/>
        <pt x="5" y="-10" on="1"/>
        <pt x="21" y="57" on="1"/>
        <pt x="41" y="60" on="0"/>
        <pt x="69" y="71" on="0"/>
        <pt x="87" y="90" on="0"/>
        <pt x="97" y="120" on="0"/>
        <pt x="100" y="142" on="1"/>
        <pt x="148" y="524" on="1"/>
        <pt x="152" y="556" on="0"/>
        <pt x="143" y="578" on="0"/>
        <pt x="124" y="578" on="1"/>
        <pt x="119" y="578" on="0"/>
        <pt x="110" y="577" on="0"/>
        <pt x="105" y="577" on="1"/>
        <pt x="100" y="576" on="0"/>
        <pt x="94" y="576" on="1"/>
        <pt x="89" y="585" on="1"/>
        <pt x="104" y="644" on="1"/>
        <pt x="134" y="643" on="0"/>
        <pt x="166" y="642" on="1"/>
        <pt x="192" y="641" on="0"/>
        <pt x="255" y="641" on="0"/>
        <pt x="282" y="641" on="1"/>
        <pt x="488" y="641" on="0"/>
        <pt x="578" y="653" on="1"/>
        <pt x="584" y="643" on="1"/>
        <pt x="576" y="617" on="0"/>
        <pt x="568" y="587" on="1"/>
        <pt x="561" y="561" on="0"/>
        <pt x="546" y="497" on="0"/>
        <pt x="540" y="462" on="1"/>
        <pt x="450" y="456" on="1"/>
        <pt x="452" y="465" on="0"/>
        <pt x="454" y="476" on="1"/>
        <pt x="456" y="484" on="0"/>
        <pt x="458" y="505" on="0"/>
        <pt x="458" y="513" on="1"/>
        <pt x="458" y="528" on="0"/>
        <pt x="448" y="547" on="0"/>
        <pt x="422" y="557" on="0"/>
        <pt x="377" y="560" on="0"/>
        <pt x="343" y="560" on="1"/>
        <pt x="326" y="560" on="0"/>
        <pt x="306" y="558" on="0"/>
        <pt x="295" y="551" on="0"/>
        <pt x="290" y="538" on="0"/>
        <pt x="288" y="527" on="1"/>
        <pt x="262" y="369" on="1"/>
        <pt x="277" y="369" on="0"/>
        <pt x="331" y="368" on="0"/>
        <pt x="352" y="368" on="1"/>
        <pt x="363" y="368" on="0"/>
        <pt x="402" y="370" on="0"/>
        <pt x="420" y="372" on="1"/>
        <pt x="441" y="374" on="0"/>
        <pt x="465" y="376" on="1"/>
        <pt x="471" y="368" on="1"/>
        <pt x="447" y="283" on="1"/>
        <pt x="424" y="283" on="0"/>
        <pt x="402" y="284" on="1"/>
        <pt x="383" y="285" on="0"/>
        <pt x="340" y="286" on="0"/>
        <pt x="322" y="286" on="1"/>
        <pt x="301" y="286" on="0"/>
        <pt x="261" y="282" on="0"/>
        <pt x="248" y="280" on="1"/>
        <pt x="240" y="223" on="0"/>
        <pt x="225" y="135" on="0"/>
      </contour>
    </TTGlyph>
    <TTGlyph name="Eacute" xMin="5" yMin="-10" xMax="584" yMax="857">
      <component glyphName="E" x="0" y="0" flags="0x4"/>
      <component glyphName="acute.cap" x="126" y="0" flags="0x4"/>
    </TTGlyph>
    <TTGlyph name="Ebreve" xMin="5" yMin="-10" xMax="584" yMax="870">
      <component glyphName="E" x="0" y="0" flags="0x4"/>
      <component glyphName="breve" x="128" y="160" flags="0x4"/>
    </TTGlyph>
    <TTGlyph name="Ecaron" xMin="5" yMin="-10" xMax="584" yMax="865">
      <component glyphName="E" x="0" y="0" flags="0x4"/>
      <component glyphName="caron.cap" x="119" y="0" flags="0x4"/>
    </TTGlyph>
    <TTGlyph name="Ecircumflex" xMin="5" yMin="-10" xMax="584" yMax="877">
      <component glyphName="E" x="0" y="0" flags="0x4"/>
      <component glyphName="circumflex.cap" x="120" y="0" flags="0x4"/>
    </TTGlyph>
    <TTGlyph name="Edieresis" xMin="5" yMin="-10" xMax="584" yMax="839">
      <component glyphName="E" x="0" y="0" flags="0x4"/>
      <component glyphName="dieresis.cap" x="119" y="5" flags="0x4"/>
    </TTGlyph>
    <TTGlyph name="Edotaccent" xMin="5" yMin="-10" xMax="584" yMax="854">
      <component glyphName="E" x="0" y="0" flags="0x4"/>
      <component glyphName="dotaccent.cap" x="120" y="0" flags="0x4"/>
    </TTGlyph>
    <TTGlyph name="Egrave" xMin="5" yMin="-10" xMax="584" yMax="857">
      <component glyphName="E" x="0" y="0" flags="0x4"/>
      <component glyphName="grave.cap" x="159" y="0" flags="0x4"/>
    </TTGlyph>
    <TTGlyph name="Emacron" xMin="5" yMin="-10" xMax="584" yMax="805">
      <component glyphName="E" x="0" y="0" flags="0x4"/>
      <component glyphName="macron.cap" x="118" y="0" flags="0x4"/>
    </TTGlyph>
    <TTGlyph name="Eng" xMin="13" yMin="-163" xMax="738" yMax="648">
      <contour>
        <pt x="201" y="642" on="1"/>
        <pt x="213" y="642" on="0"/>
        <pt x="246" y="643" on="0"/>
        <pt x="261" y="644" on="1"/>
        <pt x="279" y="645" on="0"/>
        <pt x="296" y="646" on="1"/>
        <pt x="329" y="572" on="0"/>
        <pt x="401" y="423" on="0"/>
        <pt x="432" y="363" on="1"/>
        <pt x="467" y="293" on="0"/>
        <pt x="502" y="228" on="1"/>
        <pt x="511" y="228" on="1"/>
        <pt x="548" y="536" on="1"/>
        <pt x="550" y="559" on="0"/>
        <pt x="538" y="579" on="0"/>
        <pt x="521" y="579" on="1"/>
        <pt x="516" y="579" on="0"/>
        <pt x="504" y="578" on="0"/>
        <pt x="499" y="578" on="1"/>
        <pt x="487" y="578" on="1"/>
        <pt x="485" y="584" on="1"/>
        <pt x="499" y="646" on="1"/>
        <pt x="526" y="645" on="0"/>
        <pt x="551" y="644" on="1"/>
        <pt x="572" y="643" on="0"/>
        <pt x="614" y="642" on="0"/>
        <pt x="625" y="642" on="1"/>
        <pt x="641" y="642" on="0"/>
        <pt x="681" y="643" on="0"/>
        <pt x="698" y="645" on="1"/>
        <pt x="718" y="646" on="0"/>
        <pt x="738" y="648" on="1"/>
        <pt x="726" y="582" on="1"/>
        <pt x="692" y="577" on="0"/>
        <pt x="662" y="549" on="0"/>
        <pt x="657" y="519" on="1"/>
        <pt x="594" y="86" on="1"/>
        <pt x="586" y="36" on="0"/>
        <pt x="552" y="-42" on="0"/>
        <pt x="495" y="-102" on="0"/>
        <pt x="414" y="-147" on="0"/>
        <pt x="360" y="-163" on="1"/>
        <pt x="336" y="-122" on="1"/>
        <pt x="340" y="-111" on="1"/>
        <pt x="387" y="-90" on="0"/>
        <pt x="443" y="-34" on="0"/>
        <pt x="460" y="4" on="1"/>
        <pt x="417" y="93" on="0"/>
        <pt x="341" y="246" on="0"/>
        <pt x="312" y="303" on="1"/>
        <pt x="278" y="370" on="0"/>
        <pt x="249" y="425" on="1"/>
        <pt x="240" y="425" on="1"/>
        <pt x="200" y="108" on="1"/>
        <pt x="197" y="82" on="0"/>
        <pt x="209" y="63" on="0"/>
        <pt x="228" y="63" on="1"/>
        <pt x="232" y="63" on="0"/>
        <pt x="245" y="63" on="0"/>
        <pt x="252" y="64" on="1"/>
        <pt x="260" y="64" on="0"/>
        <pt x="269" y="65" on="1"/>
        <pt x="274" y="59" on="1"/>
        <pt x="257" y="-4" on="1"/>
        <pt x="234" y="-3" on="0"/>
        <pt x="209" y="-2" on="1"/>
        <pt x="188" y="-1" on="0"/>
        <pt x="138" y="0" on="0"/>
        <pt x="115" y="0" on="1"/>
        <pt x="100" y="0" on="0"/>
        <pt x="65" y="-2" on="0"/>
        <pt x="49" y="-4" on="1"/>
        <pt x="31" y="-6" on="0"/>
        <pt x="13" y="-8" on="1"/>
        <pt x="29" y="57" on="1"/>
        <pt x="60" y="61" on="0"/>
        <pt x="89" y="93" on="0"/>
        <pt x="96" y="133" on="1"/>
        <pt x="154" y="519" on="1"/>
        <pt x="158" y="550" on="0"/>
        <pt x="130" y="575" on="0"/>
        <pt x="84" y="581" on="1"/>
        <pt x="78" y="591" on="1"/>
        <pt x="91" y="647" on="1"/>
        <pt x="112" y="645" on="0"/>
        <pt x="132" y="644" on="1"/>
        <pt x="149" y="643" on="0"/>
        <pt x="187" y="642" on="0"/>
      </contour>
    </TTGlyph>
    <TTGlyph name="Eogonek" xMin="5" yMin="-241" xMax="584" yMax="653">
      <contour>
        <pt x="487" y="-174" on="1"/>
        <pt x="470" y="-188" on="0"/>
        <pt x="452" y="-201" on="1"/>
        <pt x="436" y="-212" on="0"/>
        <pt x="399" y="-235" on="0"/>
        <pt x="380" y="-241" on="1"/>
        <pt x="331" y="-241" on="0"/>
        <pt x="274" y="-198" on="0"/>
        <pt x="274" y="-160" on="1"/>
        <pt x="274" y="-125" on="0"/>
        <pt x="324" y="-53" on="0"/>
        <pt x="376" y="-3" on="1"/>
        <pt x="330" y="-1" on="0"/>
        <pt x="222" y="0" on="0"/>
        <pt x="175" y="0" on="1"/>
        <pt x="143" y="0" on="0"/>
        <pt x="82" y="-3" on="0"/>
        <pt x="58" y="-5" on="1"/>
        <pt x="30" y="-8" on="0"/>
        <pt x="5" y="-10" on="1"/>
        <pt x="21" y="57" on="1"/>
        <pt x="41" y="60" on="0"/>
        <pt x="69" y="71" on="0"/>
        <pt x="87" y="90" on="0"/>
        <pt x="97" y="120" on="0"/>
        <pt x="100" y="142" on="1"/>
        <pt x="148" y="524" on="1"/>
        <pt x="152" y="556" on="0"/>
        <pt x="143" y="578" on="0"/>
        <pt x="124" y="578" on="1"/>
        <pt x="119" y="578" on="0"/>
        <pt x="110" y="577" on="0"/>
        <pt x="105" y="577" on="1"/>
        <pt x="100" y="576" on="0"/>
        <pt x="94" y="576" on="1"/>
        <pt x="89" y="585" on="1"/>
        <pt x="104" y="644" on="1"/>
        <pt x="134" y="643" on="0"/>
        <pt x="166" y="642" on="1"/>
        <pt x="192" y="641" on="0"/>
        <pt x="255" y="641" on="0"/>
        <pt x="282" y="641" on="1"/>
        <pt x="488" y="641" on="0"/>
        <pt x="578" y="653" on="1"/>
        <pt x="584" y="643" on="1"/>
        <pt x="576" y="617" on="0"/>
        <pt x="568" y="587" on="1"/>
        <pt x="561" y="561" on="0"/>
        <pt x="546" y="497" on="0"/>
        <pt x="540" y="462" on="1"/>
        <pt x="450" y="456" on="1"/>
        <pt x="452" y="465" on="0"/>
        <pt x="454" y="476" on="1"/>
        <pt x="456" y="484" on="0"/>
        <pt x="458" y="505" on="0"/>
        <pt x="458" y="513" on="1"/>
        <pt x="458" y="528" on="0"/>
        <pt x="448" y="547" on="0"/>
        <pt x="422" y="557" on="0"/>
        <pt x="377" y="560" on="0"/>
        <pt x="343" y="560" on="1"/>
        <pt x="326" y="560" on="0"/>
        <pt x="306" y="558" on="0"/>
        <pt x="295" y="551" on="0"/>
        <pt x="290" y="538" on="0"/>
        <pt x="288" y="527" on="1"/>
        <pt x="262" y="369" on="1"/>
        <pt x="277" y="369" on="0"/>
        <pt x="331" y="368" on="0"/>
        <pt x="352" y="368" on="1"/>
        <pt x="363" y="368" on="0"/>
        <pt x="402" y="370" on="0"/>
        <pt x="420" y="372" on="1"/>
        <pt x="441" y="374" on="0"/>
        <pt x="465" y="376" on="1"/>
        <pt x="471" y="368" on="1"/>
        <pt x="447" y="283" on="1"/>
        <pt x="424" y="283" on="0"/>
        <pt x="402" y="284" on="1"/>
        <pt x="383" y="285" on="0"/>
        <pt x="340" y="286" on="0"/>
        <pt x="322" y="286" on="1"/>
        <pt x="301" y="286" on="0"/>
        <pt x="261" y="282" on="0"/>
        <pt x="248" y="280" on="1"/>
        <pt x="240" y="223" on="0"/>
        <pt x="225" y="135" on="0"/>
        <pt x="225" y="114" on="1"/>
        <pt x="225" y="89" on="0"/>
        <pt x="249" y="77" on="0"/>
        <pt x="282" y="77" on="1"/>
        <pt x="326" y="77" on="0"/>
        <pt x="381" y="84" on="0"/>
        <pt x="415" y="108" on="0"/>
        <pt x="436" y="153" on="0"/>
        <pt x="446" y="191" on="1"/>
        <pt x="529" y="198" on="1"/>
        <pt x="535" y="188" on="1"/>
        <pt x="527" y="161" on="0"/>
        <pt x="518" y="131" on="1"/>
        <pt x="510" y="105" on="0"/>
        <pt x="493" y="39" on="0"/>
        <pt x="485" y="3" on="1"/>
        <pt x="474" y="-7" on="1"/>
        <pt x="469" y="-6" on="0"/>
        <pt x="463" y="-6" on="1"/>
        <pt x="458" y="-6" on="0"/>
        <pt x="444" y="-6" on="0"/>
        <pt x="435" y="-5" on="1"/>
        <pt x="413" y="-29" on="0"/>
        <pt x="384" y="-64" on="0"/>
        <pt x="366" y="-92" on="0"/>
        <pt x="359" y="-116" on="0"/>
        <pt x="359" y="-128" on="1"/>
        <pt x="359" y="-146" on="0"/>
        <pt x="381" y="-169" on="0"/>
        <pt x="400" y="-169" on="1"/>
        <pt x="412" y="-169" on="0"/>
        <pt x="437" y="-162" on="0"/>
        <pt x="448" y="-157" on="1"/>
        <pt x="460" y="-152" on="0"/>
        <pt x="472" y="-145" on="1"/>
      </contour>
    </TTGlyph>
    <TTGlyph name="Eth" xMin="16" yMin="-12" xMax="674" yMax="646">
      <contour>
        <pt x="298" y="-12" on="1"/>
        <pt x="271" y="-9" on="0"/>
        <pt x="244" y="-6" on="1"/>
        <pt x="221" y="-4" on="0"/>
        <pt x="168" y="0" on="0"/>
        <pt x="148" y="0" on="1"/>
        <pt x="128" y="0" on="0"/>
        <pt x="85" y="-3" on="0"/>
        <pt x="66" y="-5" on="1"/>
        <pt x="44" y="-8" on="0"/>
        <pt x="22" y="-10" on="1"/>
        <pt x="37" y="57" on="1"/>
        <pt x="58" y="61" on="0"/>
        <pt x="86" y="72" on="0"/>
        <pt x="104" y="91" on="0"/>
        <pt x="114" y="120" on="0"/>
        <pt x="117" y="141" on="1"/>
        <pt x="135" y="286" on="1"/>
        <pt x="23" y="286" on="1"/>
        <pt x="16" y="293" on="1"/>
        <pt x="33" y="353" on="1"/>
        <pt x="143" y="353" on="1"/>
        <pt x="164" y="523" on="1"/>
        <pt x="168" y="555" on="0"/>
        <pt x="158" y="577" on="0"/>
        <pt x="141" y="577" on="1"/>
        <pt x="136" y="577" on="0"/>
        <pt x="125" y="576" on="0"/>
        <pt x="120" y="576" on="1"/>
        <pt x="114" y="575" on="0"/>
        <pt x="108" y="575" on="1"/>
        <pt x="104" y="584" on="1"/>
        <pt x="119" y="644" on="1"/>
        <pt x="143" y="643" on="0"/>
        <pt x="166" y="642" on="1"/>
        <pt x="186" y="641" on="0"/>
        <pt x="228" y="641" on="0"/>
        <pt x="242" y="641" on="1"/>
        <pt x="259" y="641" on="0"/>
        <pt x="308" y="642" on="0"/>
        <pt x="331" y="643" on="1"/>
        <pt x="358" y="644" on="0"/>
        <pt x="387" y="646" on="1"/>
        <pt x="453" y="646" on="0"/>
        <pt x="559" y="611" on="0"/>
        <pt x="634" y="545" on="0"/>
        <pt x="674" y="449" on="0"/>
        <pt x="674" y="388" on="1"/>
        <pt x="674" y="302" on="0"/>
        <pt x="617" y="156" on="0"/>
        <pt x="517" y="49" on="0"/>
        <pt x="379" y="-12" on="0"/>
      </contour>
      <contour>
        <pt x="335" y="562" on="1"/>
        <pt x="319" y="562" on="0"/>
        <pt x="307" y="552" on="0"/>
        <pt x="305" y="538" on="1"/>
        <pt x="297" y="495" on="0"/>
        <pt x="283" y="400" on="0"/>
        <pt x="275" y="353" on="1"/>
        <pt x="392" y="355" on="1"/>
        <pt x="398" y="346" on="1"/>
        <pt x="384" y="286" on="1"/>
        <pt x="264" y="286" on="1"/>
        <pt x="254" y="223" on="0"/>
        <pt x="242" y="134" on="0"/>
        <pt x="242" y="125" on="1"/>
        <pt x="242" y="94" on="0"/>
        <pt x="273" y="72" on="0"/>
        <pt x="314" y="72" on="1"/>
        <pt x="362" y="72" on="0"/>
        <pt x="438" y="114" on="0"/>
        <pt x="491" y="193" on="0"/>
        <pt x="519" y="305" on="0"/>
        <pt x="519" y="376" on="1"/>
        <pt x="519" y="562" on="0"/>
      </contour>
    </TTGlyph>
    <TTGlyph name="Euro" xMin="-3" yMin="-9" xMax="545" yMax="510">
      <contour>
        <pt x="362" y="214" on="1"/>
        <pt x="351" y="166" on="1"/>
        <pt x="211" y="165" on="1"/>
        <pt x="229" y="67" on="0"/>
        <pt x="314" y="67" on="1"/>
        <pt x="356" y="67" on="0"/>
        <pt x="407" y="114" on="0"/>
        <pt x="424" y="173" on="1"/>
        <pt x="506" y="179" on="1"/>
        <pt x="500" y="156" on="0"/>
        <pt x="494" y="130" on="1"/>
        <pt x="489" y="108" on="0"/>
        <pt x="477" y="56" on="0"/>
        <pt x="473" y="31" on="1"/>
        <pt x="464" y="22" on="1"/>
        <pt x="442" y="13" on="0"/>
        <pt x="416" y="6" on="1"/>
        <pt x="393" y="0" on="0"/>
        <pt x="330" y="-9" on="0"/>
        <pt x="293" y="-9" on="1"/>
        <pt x="202" y="-9" on="0"/>
        <pt x="89" y="82" on="0"/>
        <pt x="78" y="165" on="1"/>
        <pt x="2" y="165" on="1"/>
        <pt x="-3" y="172" on="1"/>
        <pt x="9" y="219" on="1"/>
        <pt x="76" y="219" on="1"/>
        <pt x="77" y="235" on="0"/>
        <pt x="80" y="265" on="0"/>
        <pt x="83" y="279" on="1"/>
        <pt x="16" y="279" on="1"/>
        <pt x="11" y="286" on="1"/>
        <pt x="23" y="333" on="1"/>
        <pt x="98" y="333" on="1"/>
        <pt x="130" y="417" on="0"/>
        <pt x="274" y="510" on="0"/>
        <pt x="378" y="510" on="1"/>
        <pt x="403" y="510" on="0"/>
        <pt x="461" y="504" on="0"/>
        <pt x="485" y="500" on="1"/>
        <pt x="513" y="496" on="0"/>
        <pt x="541" y="490" on="1"/>
        <pt x="545" y="479" on="1"/>
        <pt x="538" y="460" on="0"/>
        <pt x="531" y="436" on="1"/>
        <pt x="525" y="416" on="0"/>
        <pt x="511" y="362" on="0"/>
        <pt x="505" y="331" on="1"/>
        <pt x="423" y="325" on="1"/>
        <pt x="424" y="336" on="0"/>
        <pt x="426" y="346" on="1"/>
        <pt x="428" y="354" on="0"/>
        <pt x="430" y="372" on="0"/>
        <pt x="430" y="378" on="1"/>
        <pt x="430" y="432" on="0"/>
        <pt x="350" y="432" on="1"/>
        <pt x="256" y="432" on="0"/>
        <pt x="222" y="333" on="1"/>
        <pt x="225" y="333" on="1"/>
        <pt x="370" y="337" on="1"/>
        <pt x="376" y="328" on="1"/>
        <pt x="365" y="280" on="1"/>
        <pt x="211" y="279" on="1"/>
        <pt x="209" y="265" on="0"/>
        <pt x="207" y="236" on="0"/>
        <pt x="207" y="219" on="1"/>
        <pt x="211" y="219" on="1"/>
        <pt x="356" y="223" on="1"/>
      </contour>
    </TTGlyph>
    <TTGlyph name="F" xMin="5" yMin="-11" xMax="561" yMax="653">
      <contour>
        <pt x="228" y="140" on="1"/>
        <pt x="223" y="105" on="0"/>
        <pt x="237" y="76" on="0"/>
        <pt x="262" y="76" on="1"/>
        <pt x="271" y="76" on="0"/>
        <pt x="293" y="77" on="0"/>
        <pt x="303" y="78" on="1"/>
        <pt x="314" y="79" on="0"/>
        <pt x="325" y="81" on="1"/>
        <pt x="332" y="71" on="1"/>
        <pt x="313" y="-4" on="1"/>
        <pt x="283" y="-3" on="0"/>
        <pt x="256" y="-2" on="1"/>
        <pt x="232" y="-1" on="0"/>
        <pt x="181" y="0" on="0"/>
        <pt x="163" y="0" on="1"/>
        <pt x="135" y="0" on="0"/>
        <pt x="79" y="-4" on="0"/>
        <pt x="56" y="-6" on="1"/>
        <pt x="30" y="-9" on="0"/>
        <pt x="5" y="-11" on="1"/>
        <pt x="20" y="55" on="1"/>
        <pt x="62" y="63" on="0"/>
        <pt x="95" y="99" on="0"/>
        <pt x="100" y="142" on="1"/>
        <pt x="148" y="524" on="1"/>
        <pt x="152" y="556" on="0"/>
        <pt x="143" y="578" on="0"/>
        <pt x="124" y="578" on="1"/>
        <pt x="119" y="578" on="0"/>
        <pt x="110" y="577" on="0"/>
        <pt x="105" y="577" on="1"/>
        <pt x="100" y="576" on="0"/>
        <pt x="94" y="576" on="1"/>
        <pt x="89" y="585" on="1"/>
        <pt x="104" y="644" on="1"/>
        <pt x="134" y="643" on="0"/>
        <pt x="166" y="642" on="1"/>
        <pt x="192" y="641" on="0"/>
        <pt x="255" y="641" on="0"/>
        <pt x="282" y="641" on="1"/>
        <pt x="373" y="641" on="0"/>
        <pt x="513" y="647" on="0"/>
        <pt x="555" y="653" on="1"/>
        <pt x="561" y="643" on="1"/>
        <pt x="553" y="616" on="0"/>
        <pt x="546" y="586" on="1"/>
        <pt x="539" y="560" on="0"/>
        <pt x="525" y="496" on="0"/>
        <pt x="519" y="461" on="1"/>
        <pt x="430" y="455" on="1"/>
        <pt x="432" y="465" on="0"/>
        <pt x="434" y="476" on="1"/>
        <pt x="436" y="485" on="0"/>
        <pt x="438" y="505" on="0"/>
        <pt x="438" y="514" on="1"/>
        <pt x="438" y="543" on="0"/>
        <pt x="398" y="560" on="0"/>
        <pt x="343" y="560" on="1"/>
        <pt x="326" y="560" on="0"/>
        <pt x="306" y="558" on="0"/>
        <pt x="295" y="551" on="0"/>
        <pt x="290" y="538" on="0"/>
        <pt x="288" y="527" on="1"/>
        <pt x="260" y="352" on="1"/>
        <pt x="350" y="351" on="1"/>
        <pt x="361" y="351" on="0"/>
        <pt x="395" y="353" on="0"/>
        <pt x="412" y="355" on="1"/>
        <pt x="431" y="357" on="0"/>
        <pt x="452" y="359" on="1"/>
        <pt x="458" y="351" on="1"/>
        <pt x="435" y="266" on="1"/>
        <pt x="414" y="266" on="0"/>
        <pt x="394" y="267" on="1"/>
        <pt x="377" y="268" on="0"/>
        <pt x="337" y="269" on="0"/>
        <pt x="320" y="269" on="1"/>
        <pt x="298" y="269" on="0"/>
        <pt x="259" y="264" on="0"/>
        <pt x="246" y="262" on="1"/>
      </contour>
    </TTGlyph>
    <TTGlyph name="G" xMin="32" yMin="-12" xMax="603" yMax="653">
      <contour>
        <pt x="294" y="-12" on="1"/>
        <pt x="233" y="-12" on="0"/>
        <pt x="136" y="25" on="0"/>
        <pt x="68" y="94" on="0"/>
        <pt x="32" y="193" on="0"/>
        <pt x="32" y="256" on="1"/>
        <pt x="32" y="347" on="0"/>
        <pt x="84" y="493" on="0"/>
        <pt x="181" y="597" on="0"/>
        <pt x="318" y="653" on="0"/>
        <pt x="402" y="653" on="1"/>
        <pt x="432" y="653" on="0"/>
        <pt x="502" y="646" on="0"/>
        <pt x="531" y="641" on="1"/>
        <pt x="565" y="636" on="0"/>
        <pt x="599" y="629" on="1"/>
        <pt x="603" y="616" on="1"/>
        <pt x="595" y="593" on="0"/>
        <pt x="586" y="565" on="1"/>
        <pt x="578" y="541" on="0"/>
        <pt x="561" y="474" on="0"/>
        <pt x="554" y="435" on="1"/>
        <pt x="457" y="428" on="1"/>
        <pt x="459" y="441" on="0"/>
        <pt x="461" y="452" on="1"/>
        <pt x="463" y="462" on="0"/>
        <pt x="466" y="482" on="0"/>
        <pt x="466" y="490" on="1"/>
        <pt x="466" y="559" on="0"/>
        <pt x="367" y="559" on="1"/>
        <pt x="282" y="559" on="0"/>
        <pt x="188" y="415" on="0"/>
        <pt x="188" y="275" on="1"/>
        <pt x="188" y="180" on="0"/>
        <pt x="255" y="80" on="0"/>
        <pt x="319" y="80" on="1"/>
        <pt x="340" y="80" on="0"/>
        <pt x="376" y="88" on="0"/>
        <pt x="389" y="93" on="1"/>
        <pt x="404" y="98" on="0"/>
        <pt x="416" y="106" on="1"/>
        <pt x="427" y="201" on="1"/>
        <pt x="430" y="230" on="0"/>
        <pt x="417" y="249" on="0"/>
        <pt x="391" y="249" on="1"/>
        <pt x="341" y="249" on="1"/>
        <pt x="337" y="257" on="1"/>
        <pt x="356" y="327" on="1"/>
        <pt x="356" y="327" on="0"/>
        <pt x="383" y="326" on="0"/>
        <pt x="423" y="326" on="0"/>
        <pt x="471" y="325" on="0"/>
        <pt x="491" y="325" on="1"/>
        <pt x="506" y="325" on="0"/>
        <pt x="539" y="326" on="0"/>
        <pt x="568" y="328" on="0"/>
        <pt x="586" y="330" on="0"/>
        <pt x="586" y="330" on="1"/>
        <pt x="588" y="292" on="1"/>
        <pt x="570" y="281" on="0"/>
        <pt x="549" y="242" on="0"/>
        <pt x="544" y="210" on="1"/>
        <pt x="541" y="195" on="0"/>
        <pt x="535" y="154" on="0"/>
        <pt x="530" y="114" on="0"/>
        <pt x="527" y="81" on="0"/>
        <pt x="527" y="74" on="1"/>
        <pt x="527" y="52" on="1"/>
        <pt x="527" y="46" on="0"/>
        <pt x="528" y="41" on="1"/>
        <pt x="518" y="29" on="1"/>
        <pt x="492" y="17" on="0"/>
        <pt x="458" y="8" on="1"/>
        <pt x="429" y="0" on="0"/>
        <pt x="346" y="-12" on="0"/>
      </contour>
    </TTGlyph>
    <TTGlyph name="Gbreve" xMin="32" yMin="-12" xMax="603" yMax="868">
      <component glyphName="G" x="0" y="0" flags="0x204"/>
      <component glyphName="breve.cap" x="138" y="30" flags="0x4"/>
    </TTGlyph>
    <TTGlyph name="Gcircumflex" xMin="32" yMin="-12" xMax="603" yMax="904">
      <component glyphName="G" x="0" y="0" flags="0x204"/>
      <component glyphName="circumflex" x="149" y="174" flags="0x4"/>
    </TTGlyph>
    <TTGlyph name="Gcommaaccent" xMin="32" yMin="-318" xMax="603" yMax="653">
      <component glyphName="G" x="0" y="0" flags="0x204"/>
      <component glyphName="commaaccent" x="143" y="0" flags="0x4"/>
    </TTGlyph>
    <TTGlyph name="Gdotaccent" xMin="32" yMin="-12" xMax="603" yMax="854">
      <component glyphName="G" x="0" y="0" flags="0x204"/>
      <component glyphName="dotaccent.cap" x="147" y="0" flags="0x4"/>
    </TTGlyph>
    <TTGlyph name="H" xMin="6" yMin="-9" xMax="735" yMax="649">
      <contour>
        <pt x="656" y="529" on="1"/>
        <pt x="650" y="496" on="0"/>
        <pt x="636" y="412" on="0"/>
        <pt x="622" y="325" on="0"/>
        <pt x="610" y="240" on="0"/>
        <pt x="600" y="169" on="0"/>
        <pt x="594" y="118" on="0"/>
        <pt x="594" y="108" on="1"/>
        <pt x="594" y="83" on="0"/>
        <pt x="609" y="64" on="0"/>
        <pt x="627" y="64" on="1"/>
        <pt x="633" y="64" on="0"/>
        <pt x="646" y="64" on="0"/>
        <pt x="651" y="65" on="1"/>
        <pt x="657" y="66" on="0"/>
        <pt x="663" y="67" on="1"/>
        <pt x="664" y="65" on="0"/>
        <pt x="666" y="62" on="0"/>
        <pt x="667" y="60" on="1"/>
        <pt x="651" y="-3" on="1"/>
        <pt x="631" y="-3" on="0"/>
        <pt x="611" y="-2" on="1"/>
        <pt x="594" y="-1" on="0"/>
        <pt x="552" y="0" on="0"/>
        <pt x="532" y="0" on="1"/>
        <pt x="492" y="0" on="1"/>
        <pt x="477" y="0" on="0"/>
        <pt x="436" y="-1" on="0"/>
        <pt x="418" y="-1" on="1"/>
        <pt x="396" y="-2" on="0"/>
        <pt x="374" y="-2" on="1"/>
        <pt x="390" y="63" on="1"/>
        <pt x="410" y="63" on="0"/>
        <pt x="437" y="72" on="0"/>
        <pt x="456" y="93" on="0"/>
        <pt x="467" y="128" on="0"/>
        <pt x="470" y="155" on="1"/>
        <pt x="486" y="284" on="1"/>
        <pt x="448" y="284" on="1"/>
        <pt x="432" y="284" on="0"/>
        <pt x="396" y="285" on="0"/>
        <pt x="383" y="285" on="1"/>
        <pt x="373" y="285" on="0"/>
        <pt x="329" y="282" on="0"/>
        <pt x="306" y="280" on="1"/>
        <pt x="279" y="277" on="0"/>
        <pt x="247" y="275" on="1"/>
        <pt x="233" y="165" on="1"/>
        <pt x="230" y="145" on="0"/>
        <pt x="224" y="104" on="0"/>
        <pt x="226" y="92" on="1"/>
        <pt x="227" y="75" on="0"/>
        <pt x="240" y="64" on="0"/>
        <pt x="256" y="64" on="1"/>
        <pt x="263" y="64" on="0"/>
        <pt x="276" y="64" on="0"/>
        <pt x="281" y="65" on="1"/>
        <pt x="286" y="66" on="0"/>
        <pt x="291" y="67" on="1"/>
        <pt x="295" y="60" on="1"/>
        <pt x="279" y="-3" on="1"/>
        <pt x="255" y="-3" on="0"/>
        <pt x="233" y="-2" on="1"/>
        <pt x="214" y="-1" on="0"/>
        <pt x="175" y="0" on="0"/>
        <pt x="161" y="0" on="1"/>
        <pt x="139" y="0" on="0"/>
        <pt x="86" y="-2" on="0"/>
        <pt x="39" y="-5" on="0"/>
        <pt x="6" y="-8" on="0"/>
        <pt x="6" y="-9" on="1"/>
        <pt x="21" y="55" on="1"/>
        <pt x="45" y="60" on="0"/>
        <pt x="74" y="73" on="0"/>
        <pt x="91" y="95" on="0"/>
        <pt x="100" y="130" on="0"/>
        <pt x="103" y="156" on="1"/>
        <pt x="148" y="526" on="1"/>
        <pt x="152" y="558" on="0"/>
        <pt x="141" y="578" on="0"/>
        <pt x="120" y="578" on="1"/>
        <pt x="115" y="578" on="0"/>
        <pt x="106" y="577" on="0"/>
        <pt x="101" y="577" on="1"/>
        <pt x="91" y="577" on="1"/>
        <pt x="87" y="585" on="1"/>
        <pt x="101" y="643" on="1"/>
        <pt x="123" y="642" on="0"/>
        <pt x="144" y="642" on="1"/>
        <pt x="162" y="641" on="0"/>
        <pt x="202" y="641" on="0"/>
        <pt x="217" y="641" on="1"/>
        <pt x="235" y="641" on="0"/>
        <pt x="285" y="643" on="0"/>
        <pt x="308" y="645" on="1"/>
        <pt x="335" y="647" on="0"/>
        <pt x="364" y="649" on="1"/>
        <pt x="351" y="583" on="1"/>
        <pt x="332" y="580" on="0"/>
        <pt x="309" y="572" on="0"/>
        <pt x="295" y="557" on="0"/>
        <pt x="288" y="531" on="0"/>
        <pt x="285" y="511" on="1"/>
        <pt x="261" y="367" on="1"/>
        <pt x="292" y="367" on="0"/>
        <pt x="353" y="366" on="0"/>
        <pt x="383" y="365" on="1"/>
        <pt x="418" y="365" on="0"/>
        <pt x="467" y="368" on="0"/>
        <pt x="496" y="372" on="1"/>
        <pt x="516" y="526" on="1"/>
        <pt x="521" y="557" on="0"/>
        <pt x="508" y="578" on="0"/>
        <pt x="488" y="578" on="1"/>
        <pt x="483" y="578" on="0"/>
        <pt x="473" y="577" on="0"/>
        <pt x="468" y="577" on="1"/>
        <pt x="458" y="577" on="1"/>
        <pt x="454" y="585" on="1"/>
        <pt x="469" y="643" on="1"/>
        <pt x="469" y="643" on="0"/>
        <pt x="502" y="642" on="0"/>
        <pt x="548" y="642" on="0"/>
        <pt x="593" y="641" on="0"/>
        <pt x="605" y="641" on="1"/>
        <pt x="623" y="641" on="0"/>
        <pt x="668" y="643" on="0"/>
        <pt x="688" y="645" on="1"/>
        <pt x="711" y="647" on="0"/>
        <pt x="735" y="649" on="1"/>
        <pt x="723" y="584" on="1"/>
        <pt x="687" y="579" on="0"/>
        <pt x="661" y="557" on="0"/>
      </contour>
    </TTGlyph>
    <TTGlyph name="Hbar" xMin="6" yMin="-9" xMax="746" yMax="649">
      <contour>
        <pt x="651" y="502" on="1"/>
        <pt x="669" y="502" on="0"/>
        <pt x="698" y="503" on="0"/>
        <pt x="709" y="503" on="1"/>
        <pt x="721" y="503" on="0"/>
        <pt x="732" y="504" on="1"/>
        <pt x="746" y="490" on="1"/>
        <pt x="741" y="444" on="1"/>
        <pt x="641" y="444" on="1"/>
        <pt x="633" y="393" on="0"/>
        <pt x="616" y="285" on="0"/>
        <pt x="602" y="190" on="0"/>
        <pt x="594" y="120" on="0"/>
        <pt x="594" y="108" on="1"/>
        <pt x="594" y="83" on="0"/>
        <pt x="609" y="64" on="0"/>
        <pt x="627" y="64" on="1"/>
        <pt x="633" y="64" on="0"/>
        <pt x="646" y="64" on="0"/>
        <pt x="651" y="65" on="1"/>
        <pt x="657" y="66" on="0"/>
        <pt x="663" y="67" on="1"/>
        <pt x="664" y="65" on="0"/>
        <pt x="666" y="62" on="0"/>
        <pt x="667" y="60" on="1"/>
        <pt x="651" y="-3" on="1"/>
        <pt x="631" y="-3" on="0"/>
        <pt x="611" y="-2" on="1"/>
        <pt x="594" y="-1" on="0"/>
        <pt x="552" y="0" on="0"/>
        <pt x="532" y="0" on="1"/>
        <pt x="492" y="0" on="1"/>
        <pt x="477" y="0" on="0"/>
        <pt x="436" y="-1" on="0"/>
        <pt x="418" y="-1" on="1"/>
        <pt x="396" y="-2" on="0"/>
        <pt x="374" y="-2" on="1"/>
        <pt x="390" y="63" on="1"/>
        <pt x="410" y="63" on="0"/>
        <pt x="437" y="72" on="0"/>
        <pt x="456" y="93" on="0"/>
        <pt x="467" y="128" on="0"/>
        <pt x="470" y="155" on="1"/>
        <pt x="486" y="284" on="1"/>
        <pt x="448" y="284" on="1"/>
        <pt x="432" y="284" on="0"/>
        <pt x="396" y="285" on="0"/>
        <pt x="383" y="285" on="1"/>
        <pt x="373" y="285" on="0"/>
        <pt x="329" y="282" on="0"/>
        <pt x="306" y="280" on="1"/>
        <pt x="279" y="277" on="0"/>
        <pt x="247" y="275" on="1"/>
        <pt x="233" y="165" on="1"/>
        <pt x="230" y="145" on="0"/>
        <pt x="224" y="104" on="0"/>
        <pt x="226" y="92" on="1"/>
        <pt x="227" y="75" on="0"/>
        <pt x="240" y="64" on="0"/>
        <pt x="256" y="64" on="1"/>
        <pt x="263" y="64" on="0"/>
        <pt x="276" y="64" on="0"/>
        <pt x="281" y="65" on="1"/>
        <pt x="286" y="66" on="0"/>
        <pt x="291" y="67" on="1"/>
        <pt x="295" y="60" on="1"/>
        <pt x="279" y="-3" on="1"/>
        <pt x="255" y="-3" on="0"/>
        <pt x="233" y="-2" on="1"/>
        <pt x="214" y="-1" on="0"/>
        <pt x="175" y="0" on="0"/>
        <pt x="161" y="0" on="1"/>
        <pt x="139" y="0" on="0"/>
        <pt x="86" y="-2" on="0"/>
        <pt x="39" y="-5" on="0"/>
        <pt x="6" y="-8" on="0"/>
        <pt x="6" y="-9" on="1"/>
        <pt x="21" y="55" on="1"/>
        <pt x="45" y="60" on="0"/>
        <pt x="74" y="73" on="0"/>
        <pt x="91" y="95" on="0"/>
        <pt x="100" y="130" on="0"/>
        <pt x="103" y="156" on="1"/>
        <pt x="138" y="442" on="1"/>
        <pt x="48" y="442" on="1"/>
        <pt x="38" y="452" on="1"/>
        <pt x="46" y="500" on="1"/>
        <pt x="58" y="499" on="0"/>
        <pt x="74" y="499" on="1"/>
        <pt x="145" y="499" on="1"/>
        <pt x="148" y="526" on="1"/>
        <pt x="152" y="558" on="0"/>
        <pt x="141" y="578" on="0"/>
        <pt x="120" y="578" on="1"/>
        <pt x="115" y="578" on="0"/>
        <pt x="106" y="577" on="0"/>
        <pt x="101" y="577" on="1"/>
        <pt x="91" y="577" on="1"/>
        <pt x="87" y="585" on="1"/>
        <pt x="101" y="643" on="1"/>
        <pt x="123" y="642" on="0"/>
        <pt x="144" y="642" on="1"/>
        <pt x="162" y="641" on="0"/>
        <pt x="202" y="641" on="0"/>
        <pt x="217" y="641" on="1"/>
        <pt x="235" y="641" on="0"/>
        <pt x="285" y="643" on="0"/>
        <pt x="308" y="645" on="1"/>
        <pt x="335" y="647" on="0"/>
        <pt x="364" y="649" on="1"/>
        <pt x="351" y="583" on="1"/>
        <pt x="332" y="580" on="0"/>
        <pt x="309" y="572" on="0"/>
        <pt x="295" y="557" on="0"/>
        <pt x="288" y="531" on="0"/>
        <pt x="285" y="511" on="1"/>
        <pt x="283" y="499" on="1"/>
        <pt x="418" y="499" on="1"/>
        <pt x="512" y="499" on="1"/>
        <pt x="516" y="526" on="1"/>
        <pt x="521" y="557" on="0"/>
        <pt x="508" y="578" on="0"/>
        <pt x="488" y="578" on="1"/>
        <pt x="483" y="578" on="0"/>
        <pt x="473" y="577" on="0"/>
        <pt x="468" y="577" on="1"/>
        <pt x="458" y="577" on="1"/>
        <pt x="454" y="585" on="1"/>
        <pt x="469" y="643" on="1"/>
        <pt x="469" y="643" on="0"/>
        <pt x="502" y="642" on="0"/>
        <pt x="548" y="642" on="0"/>
        <pt x="593" y="641" on="0"/>
        <pt x="605" y="641" on="1"/>
        <pt x="623" y="641" on="0"/>
        <pt x="668" y="643" on="0"/>
        <pt x="688" y="645" on="1"/>
        <pt x="711" y="647" on="0"/>
        <pt x="735" y="649" on="1"/>
        <pt x="723" y="584" on="1"/>
        <pt x="687" y="579" on="0"/>
        <pt x="661" y="557" on="0"/>
        <pt x="656" y="529" on="1"/>
      </contour>
      <contour>
        <pt x="273" y="443" on="1"/>
        <pt x="261" y="367" on="1"/>
        <pt x="292" y="367" on="0"/>
        <pt x="353" y="366" on="0"/>
        <pt x="383" y="365" on="1"/>
        <pt x="418" y="365" on="0"/>
        <pt x="467" y="368" on="0"/>
        <pt x="496" y="372" on="1"/>
        <pt x="505" y="443" on="1"/>
        <pt x="394" y="443" on="1"/>
      </contour>
    </TTGlyph>
    <TTGlyph name="Hcircumflex" xMin="6" yMin="-9" xMax="735" yMax="930">
      <component glyphName="H" x="0" y="0" flags="0x204"/>
      <component glyphName="circumflex" x="192" y="200" flags="0x4"/>
    </TTGlyph>
    <TTGlyph name="I" xMin="5" yMin="-9" xMax="371" yMax="649">
      <contour>
        <pt x="288" y="529" on="1"/>
        <pt x="282" y="494" on="0"/>
        <pt x="268" y="410" on="0"/>
        <pt x="254" y="322" on="0"/>
        <pt x="241" y="237" on="0"/>
        <pt x="231" y="166" on="0"/>
        <pt x="225" y="114" on="0"/>
        <pt x="225" y="104" on="1"/>
        <pt x="225" y="81" on="0"/>
        <pt x="239" y="64" on="0"/>
        <pt x="256" y="64" on="1"/>
        <pt x="264" y="64" on="0"/>
        <pt x="279" y="64" on="0"/>
        <pt x="285" y="65" on="1"/>
        <pt x="292" y="66" on="0"/>
        <pt x="298" y="67" on="1"/>
        <pt x="301" y="60" on="1"/>
        <pt x="285" y="-3" on="1"/>
        <pt x="256" y="-3" on="0"/>
        <pt x="230" y="-2" on="1"/>
        <pt x="207" y="-1" on="0"/>
        <pt x="158" y="0" on="0"/>
        <pt x="142" y="0" on="1"/>
        <pt x="121" y="0" on="0"/>
        <pt x="73" y="-3" on="0"/>
        <pt x="53" y="-5" on="1"/>
        <pt x="29" y="-7" on="0"/>
        <pt x="5" y="-9" on="1"/>
        <pt x="20" y="55" on="1"/>
        <pt x="63" y="64" on="0"/>
        <pt x="96" y="98" on="0"/>
        <pt x="101" y="139" on="1"/>
        <pt x="148" y="526" on="1"/>
        <pt x="152" y="557" on="0"/>
        <pt x="141" y="578" on="0"/>
        <pt x="120" y="578" on="1"/>
        <pt x="115" y="578" on="0"/>
        <pt x="104" y="577" on="0"/>
        <pt x="99" y="577" on="1"/>
        <pt x="87" y="577" on="1"/>
        <pt x="83" y="585" on="1"/>
        <pt x="97" y="643" on="1"/>
        <pt x="107" y="643" on="0"/>
        <pt x="138" y="642" on="0"/>
        <pt x="176" y="642" on="0"/>
        <pt x="215" y="641" on="0"/>
        <pt x="232" y="641" on="1"/>
        <pt x="248" y="641" on="0"/>
        <pt x="296" y="643" on="0"/>
        <pt x="318" y="645" on="1"/>
        <pt x="344" y="647" on="0"/>
        <pt x="371" y="649" on="1"/>
        <pt x="357" y="583" on="1"/>
        <pt x="338" y="580" on="0"/>
        <pt x="314" y="573" on="0"/>
        <pt x="299" y="561" on="0"/>
        <pt x="291" y="543" on="0"/>
      </contour>
    </TTGlyph>
    <TTGlyph name="IJ" xMin="5" yMin="-153" xMax="703" yMax="650">
      <component glyphName="I" x="0" y="0" flags="0x4"/>
      <component glyphName="J" x="353" y="0" flags="0x4"/>
    </TTGlyph>
    <TTGlyph name="Iacute" xMin="5" yMin="-9" xMax="394" yMax="857">
      <component glyphName="I" x="0" y="0" flags="0x4"/>
      <component glyphName="acute.cap" x="20" y="0" flags="0x4"/>
    </TTGlyph>
    <TTGlyph name="Ibreve" xMin="5" yMin="-9" xMax="394" yMax="862">
      <component glyphName="I" x="0" y="0" flags="0x4"/>
      <component glyphName="breve.cap" x="-14" y="24" flags="0x4"/>
    </TTGlyph>
    <TTGlyph name="Icircumflex" xMin="5" yMin="-9" xMax="406" yMax="877">
      <component glyphName="I" x="0" y="0" flags="0x4"/>
      <component glyphName="circumflex.cap" x="-12" y="0" flags="0x4"/>
    </TTGlyph>
    <TTGlyph name="Idieresis" xMin="5" yMin="-9" xMax="396" yMax="839">
      <component glyphName="I" x="0" y="0" flags="0x4"/>
      <component glyphName="dieresis.cap" x="-12" y="5" flags="0x4"/>
    </TTGlyph>
    <TTGlyph name="Idotaccent" xMin="5" yMin="-9" xMax="371" yMax="854">
      <component glyphName="I" x="0" y="0" flags="0x4"/>
      <component glyphName="dotaccent.cap" x="-11" y="0" flags="0x4"/>
    </TTGlyph>
    <TTGlyph name="Igrave" xMin="5" yMin="-9" xMax="371" yMax="857">
      <component glyphName="I" x="0" y="0" flags="0x4"/>
      <component glyphName="grave.cap" x="30" y="0" flags="0x4"/>
    </TTGlyph>
    <TTGlyph name="Imacron" xMin="5" yMin="-9" xMax="397" yMax="805">
      <component glyphName="I" x="0" y="0" flags="0x4"/>
      <component glyphName="macron.cap" x="-13" y="0" flags="0x4"/>
    </TTGlyph>
    <TTGlyph name="Iogonek" xMin="5" yMin="-242" xMax="371" yMax="649">
      <contour>
        <pt x="289" y="-175" on="1"/>
        <pt x="272" y="-189" on="0"/>
        <pt x="254" y="-202" on="1"/>
        <pt x="238" y="-213" on="0"/>
        <pt x="201" y="-236" on="0"/>
        <pt x="182" y="-242" on="1"/>
        <pt x="133" y="-242" on="0"/>
        <pt x="76" y="-199" on="0"/>
        <pt x="76" y="-161" on="1"/>
        <pt x="76" y="-125" on="0"/>
        <pt x="129" y="-52" on="0"/>
        <pt x="183" y="0" on="1"/>
        <pt x="142" y="0" on="1"/>
        <pt x="121" y="0" on="0"/>
        <pt x="73" y="-3" on="0"/>
        <pt x="53" y="-5" on="1"/>
        <pt x="29" y="-7" on="0"/>
        <pt x="5" y="-9" on="1"/>
        <pt x="20" y="55" on="1"/>
        <pt x="63" y="64" on="0"/>
        <pt x="96" y="98" on="0"/>
        <pt x="101" y="139" on="1"/>
        <pt x="148" y="526" on="1"/>
        <pt x="152" y="557" on="0"/>
        <pt x="141" y="578" on="0"/>
        <pt x="120" y="578" on="1"/>
        <pt x="115" y="578" on="0"/>
        <pt x="104" y="577" on="0"/>
        <pt x="99" y="577" on="1"/>
        <pt x="87" y="577" on="1"/>
        <pt x="83" y="585" on="1"/>
        <pt x="97" y="643" on="1"/>
        <pt x="107" y="643" on="0"/>
        <pt x="138" y="642" on="0"/>
        <pt x="176" y="642" on="0"/>
        <pt x="215" y="641" on="0"/>
        <pt x="232" y="641" on="1"/>
        <pt x="248" y="641" on="0"/>
        <pt x="296" y="643" on="0"/>
        <pt x="318" y="645" on="1"/>
        <pt x="344" y="647" on="0"/>
        <pt x="371" y="649" on="1"/>
        <pt x="357" y="583" on="1"/>
        <pt x="338" y="580" on="0"/>
        <pt x="314" y="573" on="0"/>
        <pt x="299" y="561" on="0"/>
        <pt x="291" y="543" on="0"/>
        <pt x="288" y="529" on="1"/>
        <pt x="282" y="494" on="0"/>
        <pt x="268" y="410" on="0"/>
        <pt x="254" y="322" on="0"/>
        <pt x="241" y="237" on="0"/>
        <pt x="231" y="166" on="0"/>
        <pt x="225" y="114" on="0"/>
        <pt x="225" y="104" on="1"/>
        <pt x="225" y="81" on="0"/>
        <pt x="239" y="64" on="0"/>
        <pt x="256" y="64" on="1"/>
        <pt x="264" y="64" on="0"/>
        <pt x="279" y="64" on="0"/>
        <pt x="285" y="65" on="1"/>
        <pt x="292" y="66" on="0"/>
        <pt x="298" y="67" on="1"/>
        <pt x="301" y="60" on="1"/>
        <pt x="285" y="-3" on="1"/>
        <pt x="279" y="-2" on="0"/>
        <pt x="272" y="-2" on="1"/>
        <pt x="266" y="-2" on="0"/>
        <pt x="250" y="-2" on="0"/>
        <pt x="241" y="-1" on="1"/>
        <pt x="217" y="-27" on="0"/>
        <pt x="186" y="-63" on="0"/>
        <pt x="168" y="-92" on="0"/>
        <pt x="161" y="-116" on="0"/>
        <pt x="161" y="-129" on="1"/>
        <pt x="161" y="-147" on="0"/>
        <pt x="183" y="-170" on="0"/>
        <pt x="202" y="-170" on="1"/>
        <pt x="214" y="-170" on="0"/>
        <pt x="239" y="-163" on="0"/>
        <pt x="250" y="-158" on="1"/>
        <pt x="262" y="-153" on="0"/>
        <pt x="274" y="-146" on="1"/>
      </contour>
    </TTGlyph>
    <TTGlyph name="Itilde" xMin="5" yMin="-9" xMax="427" yMax="889">
      <component glyphName="I" x="0" y="0" flags="0x4"/>
      <component glyphName="tilde" x="4" y="175" flags="0x4"/>
    </TTGlyph>
    <TTGlyph name="J" xMin="-42" yMin="-153" xMax="350" yMax="650">
      <contour>
        <pt x="139" y="526" on="1"/>
        <pt x="143" y="558" on="0"/>
        <pt x="133" y="578" on="0"/>
        <pt x="113" y="578" on="1"/>
        <pt x="108" y="578" on="0"/>
        <pt x="94" y="577" on="0"/>
        <pt x="87" y="576" on="1"/>
        <pt x="79" y="575" on="0"/>
        <pt x="71" y="575" on="1"/>
        <pt x="68" y="583" on="1"/>
        <pt x="82" y="641" on="1"/>
        <pt x="202" y="642" on="1"/>
        <pt x="227" y="642" on="0"/>
        <pt x="279" y="644" on="0"/>
        <pt x="301" y="646" on="1"/>
        <pt x="327" y="648" on="0"/>
        <pt x="350" y="650" on="1"/>
        <pt x="336" y="583" on="1"/>
        <pt x="320" y="580" on="0"/>
        <pt x="300" y="573" on="0"/>
        <pt x="288" y="562" on="0"/>
        <pt x="282" y="544" on="0"/>
        <pt x="279" y="529" on="1"/>
        <pt x="273" y="495" on="0"/>
        <pt x="255" y="383" on="0"/>
        <pt x="237" y="260" on="0"/>
        <pt x="220" y="142" on="0"/>
        <pt x="215" y="102" on="1"/>
        <pt x="201" y="2" on="0"/>
        <pt x="90" y="-119" on="0"/>
        <pt x="-19" y="-153" on="1"/>
        <pt x="-42" y="-113" on="1"/>
        <pt x="-38" y="-102" on="1"/>
        <pt x="-6" y="-81" on="0"/>
        <pt x="37" y="-41" on="0"/>
        <pt x="66" y="10" on="0"/>
        <pt x="83" y="76" on="0"/>
        <pt x="89" y="123" on="1"/>
      </contour>
    </TTGlyph>
    <TTGlyph name="Jcircumflex" xMin="-42" yMin="-153" xMax="394" yMax="904">
      <component glyphName="J" x="0" y="0" flags="0x204"/>
      <component glyphName="circumflex" x="2" y="174" flags="0x4"/>
    </TTGlyph>
    <TTGlyph name="K" xMin="6" yMin="-15" xMax="672" yMax="649">
      <contour>
        <pt x="148" y="526" on="1"/>
        <pt x="152" y="558" on="0"/>
        <pt x="141" y="578" on="0"/>
        <pt x="120" y="578" on="1"/>
        <pt x="115" y="578" on="0"/>
        <pt x="106" y="577" on="0"/>
        <pt x="101" y="577" on="1"/>
        <pt x="91" y="577" on="1"/>
        <pt x="87" y="585" on="1"/>
        <pt x="102" y="644" on="1"/>
        <pt x="131" y="643" on="0"/>
        <pt x="157" y="642" on="1"/>
        <pt x="179" y="641" on="0"/>
        <pt x="221" y="641" on="0"/>
        <pt x="232" y="641" on="1"/>
        <pt x="247" y="641" on="0"/>
        <pt x="293" y="643" on="0"/>
        <pt x="315" y="645" on="1"/>
        <pt x="341" y="647" on="0"/>
        <pt x="367" y="649" on="1"/>
        <pt x="354" y="583" on="1"/>
        <pt x="335" y="579" on="0"/>
        <pt x="310" y="570" on="0"/>
        <pt x="295" y="557" on="0"/>
        <pt x="287" y="538" on="0"/>
        <pt x="285" y="525" on="1"/>
        <pt x="227" y="132" on="1"/>
        <pt x="222" y="91" on="0"/>
        <pt x="233" y="64" on="0"/>
        <pt x="256" y="64" on="1"/>
        <pt x="264" y="64" on="0"/>
        <pt x="277" y="64" on="0"/>
        <pt x="282" y="65" on="1"/>
        <pt x="288" y="66" on="0"/>
        <pt x="294" y="67" on="1"/>
        <pt x="298" y="60" on="1"/>
        <pt x="281" y="-3" on="1"/>
        <pt x="253" y="-3" on="0"/>
        <pt x="227" y="-2" on="1"/>
        <pt x="204" y="-1" on="0"/>
        <pt x="158" y="0" on="0"/>
        <pt x="142" y="0" on="1"/>
        <pt x="122" y="0" on="0"/>
        <pt x="74" y="-1" on="0"/>
        <pt x="54" y="-2" on="1"/>
        <pt x="30" y="-3" on="0"/>
        <pt x="6" y="-3" on="1"/>
        <pt x="23" y="60" on="1"/>
        <pt x="44" y="63" on="0"/>
        <pt x="72" y="73" on="0"/>
        <pt x="89" y="91" on="0"/>
        <pt x="98" y="118" on="0"/>
        <pt x="101" y="139" on="1"/>
      </contour>
      <contour>
        <pt x="274" y="337" on="1"/>
        <pt x="431" y="495" on="1"/>
        <pt x="466" y="530" on="0"/>
        <pt x="466" y="552" on="1"/>
        <pt x="466" y="565" on="0"/>
        <pt x="445" y="577" on="0"/>
        <pt x="420" y="579" on="1"/>
        <pt x="417" y="586" on="1"/>
        <pt x="432" y="647" on="1"/>
        <pt x="455" y="645" on="0"/>
        <pt x="477" y="644" on="1"/>
        <pt x="496" y="642" on="0"/>
        <pt x="538" y="641" on="0"/>
        <pt x="553" y="641" on="1"/>
        <pt x="567" y="641" on="0"/>
        <pt x="605" y="642" on="0"/>
        <pt x="623" y="643" on="1"/>
        <pt x="644" y="644" on="0"/>
        <pt x="667" y="646" on="1"/>
        <pt x="672" y="635" on="1"/>
        <pt x="658" y="579" on="1"/>
        <pt x="641" y="572" on="0"/>
        <pt x="611" y="556" on="0"/>
        <pt x="581" y="532" on="0"/>
        <pt x="547" y="499" on="0"/>
        <pt x="526" y="476" on="1"/>
        <pt x="404" y="347" on="1"/>
        <pt x="506" y="145" on="1"/>
        <pt x="529" y="99" on="0"/>
        <pt x="573" y="59" on="0"/>
        <pt x="604" y="57" on="1"/>
        <pt x="610" y="49" on="1"/>
        <pt x="596" y="-3" on="1"/>
        <pt x="569" y="-6" on="0"/>
        <pt x="545" y="-9" on="1"/>
        <pt x="525" y="-11" on="0"/>
        <pt x="487" y="-15" on="0"/>
        <pt x="481" y="-15" on="1"/>
        <pt x="450" y="-15" on="0"/>
        <pt x="404" y="26" on="0"/>
        <pt x="384" y="69" on="1"/>
        <pt x="269" y="316" on="1"/>
      </contour>
    </TTGlyph>
    <TTGlyph name="Kcommaaccent" xMin="6" yMin="-318" xMax="672" yMax="649">
      <component glyphName="K" x="0" y="0" flags="0x4"/>
      <component glyphName="commaaccent" x="155" y="0" flags="0x4"/>
    </TTGlyph>
    <TTGlyph name="L" xMin="10" yMin="-10" xMax="512" yMax="649">
      <contour>
        <pt x="178" y="0" on="1"/>
        <pt x="146" y="0" on="0"/>
        <pt x="85" y="-3" on="0"/>
        <pt x="62" y="-5" on="1"/>
        <pt x="35" y="-8" on="0"/>
        <pt x="10" y="-10" on="1"/>
        <pt x="26" y="57" on="1"/>
        <pt x="64" y="63" on="0"/>
        <pt x="95" y="98" on="0"/>
        <pt x="100" y="142" on="1"/>
        <pt x="148" y="526" on="1"/>
        <pt x="152" y="558" on="0"/>
        <pt x="139" y="578" on="0"/>
        <pt x="119" y="578" on="1"/>
        <pt x="115" y="578" on="0"/>
        <pt x="106" y="577" on="0"/>
        <pt x="101" y="577" on="1"/>
        <pt x="90" y="577" on="1"/>
        <pt x="86" y="585" on="1"/>
        <pt x="101" y="643" on="1"/>
        <pt x="110" y="643" on="0"/>
        <pt x="141" y="642" on="0"/>
        <pt x="177" y="642" on="0"/>
        <pt x="215" y="641" on="0"/>
        <pt x="232" y="641" on="1"/>
        <pt x="249" y="641" on="0"/>
        <pt x="300" y="643" on="0"/>
        <pt x="324" y="645" on="1"/>
        <pt x="352" y="647" on="0"/>
        <pt x="383" y="649" on="1"/>
        <pt x="368" y="580" on="1"/>
        <pt x="345" y="577" on="0"/>
        <pt x="316" y="570" on="0"/>
        <pt x="298" y="554" on="0"/>
        <pt x="288" y="527" on="0"/>
        <pt x="284" y="505" on="1"/>
        <pt x="279" y="480" on="0"/>
        <pt x="267" y="408" on="0"/>
        <pt x="254" y="328" on="0"/>
        <pt x="242" y="246" on="0"/>
        <pt x="233" y="177" on="0"/>
        <pt x="227" y="127" on="0"/>
        <pt x="227" y="118" on="1"/>
        <pt x="227" y="94" on="0"/>
        <pt x="248" y="77" on="0"/>
        <pt x="280" y="77" on="1"/>
        <pt x="314" y="77" on="0"/>
        <pt x="359" y="88" on="0"/>
        <pt x="390" y="121" on="0"/>
        <pt x="411" y="180" on="0"/>
        <pt x="422" y="228" on="1"/>
        <pt x="506" y="236" on="1"/>
        <pt x="512" y="227" on="1"/>
        <pt x="503" y="195" on="0"/>
        <pt x="494" y="158" on="1"/>
        <pt x="486" y="126" on="0"/>
        <pt x="467" y="46" on="0"/>
        <pt x="458" y="2" on="1"/>
        <pt x="447" y="-8" on="1"/>
        <pt x="402" y="-6" on="0"/>
        <pt x="355" y="-4" on="1"/>
        <pt x="315" y="-2" on="0"/>
        <pt x="221" y="0" on="0"/>
      </contour>
    </TTGlyph>
    <TTGlyph name="Lacute" xMin="10" yMin="-10" xMax="512" yMax="857">
      <component glyphName="L" x="0" y="0" flags="0x4"/>
      <component glyphName="acute.cap" x="30" y="0" flags="0x4"/>
    </TTGlyph>
    <TTGlyph name="Lcaron" xMin="10" yMin="-10" xMax="555" yMax="649">
      <contour>
        <pt x="178" y="0" on="1"/>
        <pt x="146" y="0" on="0"/>
        <pt x="85" y="-3" on="0"/>
        <pt x="62" y="-5" on="1"/>
        <pt x="35" y="-8" on="0"/>
        <pt x="10" y="-10" on="1"/>
        <pt x="26" y="57" on="1"/>
        <pt x="64" y="63" on="0"/>
        <pt x="95" y="98" on="0"/>
        <pt x="100" y="142" on="1"/>
        <pt x="148" y="526" on="1"/>
        <pt x="152" y="558" on="0"/>
        <pt x="139" y="578" on="0"/>
        <pt x="119" y="578" on="1"/>
        <pt x="115" y="578" on="0"/>
        <pt x="106" y="577" on="0"/>
        <pt x="101" y="577" on="1"/>
        <pt x="90" y="577" on="1"/>
        <pt x="86" y="585" on="1"/>
        <pt x="101" y="643" on="1"/>
        <pt x="110" y="643" on="0"/>
        <pt x="141" y="642" on="0"/>
        <pt x="177" y="642" on="0"/>
        <pt x="215" y="641" on="0"/>
        <pt x="232" y="641" on="1"/>
        <pt x="249" y="641" on="0"/>
        <pt x="300" y="643" on="0"/>
        <pt x="324" y="645" on="1"/>
        <pt x="352" y="647" on="0"/>
        <pt x="383" y="649" on="1"/>
        <pt x="368" y="580" on="1"/>
        <pt x="345" y="577" on="0"/>
        <pt x="316" y="570" on="0"/>
        <pt x="298" y="554" on="0"/>
        <pt x="288" y="527" on="0"/>
        <pt x="284" y="505" on="1"/>
        <pt x="279" y="480" on="0"/>
        <pt x="267" y="408" on="0"/>
        <pt x="254" y="328" on="0"/>
        <pt x="242" y="246" on="0"/>
        <pt x="233" y="177" on="0"/>
        <pt x="227" y="127" on="0"/>
        <pt x="227" y="118" on="1"/>
        <pt x="227" y="94" on="0"/>
        <pt x="248" y="77" on="0"/>
        <pt x="280" y="77" on="1"/>
        <pt x="314" y="77" on="0"/>
        <pt x="359" y="88" on="0"/>
        <pt x="390" y="121" on="0"/>
        <pt x="411" y="180" on="0"/>
        <pt x="422" y="228" on="1"/>
        <pt x="506" y="236" on="1"/>
        <pt x="512" y="227" on="1"/>
        <pt x="503" y="195" on="0"/>
        <pt x="494" y="158" on="1"/>
        <pt x="486" y="126" on="0"/>
        <pt x="467" y="46" on="0"/>
        <pt x="458" y="2" on="1"/>
        <pt x="447" y="-8" on="1"/>
        <pt x="402" y="-6" on="0"/>
        <pt x="355" y="-4" on="1"/>
        <pt x="315" y="-2" on="0"/>
        <pt x="221" y="0" on="0"/>
      </contour>
      <contour>
        <pt x="555" y="630" on="1"/>
        <pt x="551" y="598" on="0"/>
        <pt x="545" y="562" on="1"/>
        <pt x="540" y="531" on="0"/>
        <pt x="525" y="454" on="0"/>
        <pt x="517" y="414" on="1"/>
        <pt x="469" y="395" on="1"/>
        <pt x="454" y="399" on="1"/>
        <pt x="455" y="442" on="0"/>
        <pt x="454" y="523" on="0"/>
        <pt x="452" y="555" on="1"/>
        <pt x="450" y="592" on="0"/>
        <pt x="447" y="626" on="1"/>
        <pt x="547" y="640" on="1"/>
      </contour>
    </TTGlyph>
    <TTGlyph name="Lcommaaccent" xMin="10" yMin="-318" xMax="512" yMax="649">
      <component glyphName="L" x="0" y="0" flags="0x4"/>
      <component glyphName="commaaccent" x="99" y="0" flags="0x4"/>
    </TTGlyph>
    <TTGlyph name="Ldot" xMin="10" yMin="-10" xMax="556" yMax="649">
      <component glyphName="L" x="0" y="0" flags="0x4"/>
      <component glyphName="periodcentered" x="362" y="235" flags="0x4"/>
    </TTGlyph>
    <TTGlyph name="Lslash" xMin="10" yMin="-10" xMax="512" yMax="649">
      <contour>
        <pt x="178" y="0" on="1"/>
        <pt x="146" y="0" on="0"/>
        <pt x="85" y="-3" on="0"/>
        <pt x="62" y="-5" on="1"/>
        <pt x="35" y="-8" on="0"/>
        <pt x="10" y="-10" on="1"/>
        <pt x="26" y="57" on="1"/>
        <pt x="64" y="63" on="0"/>
        <pt x="95" y="98" on="0"/>
        <pt x="100" y="142" on="1"/>
        <pt x="116" y="269" on="1"/>
        <pt x="46" y="235" on="1"/>
        <pt x="37" y="237" on="1"/>
        <pt x="19" y="299" on="1"/>
        <pt x="126" y="352" on="1"/>
        <pt x="148" y="526" on="1"/>
        <pt x="152" y="558" on="0"/>
        <pt x="139" y="578" on="0"/>
        <pt x="119" y="578" on="1"/>
        <pt x="115" y="578" on="0"/>
        <pt x="106" y="577" on="0"/>
        <pt x="101" y="577" on="1"/>
        <pt x="90" y="577" on="1"/>
        <pt x="86" y="585" on="1"/>
        <pt x="101" y="643" on="1"/>
        <pt x="110" y="643" on="0"/>
        <pt x="141" y="642" on="0"/>
        <pt x="177" y="642" on="0"/>
        <pt x="215" y="641" on="0"/>
        <pt x="232" y="641" on="1"/>
        <pt x="249" y="641" on="0"/>
        <pt x="300" y="643" on="0"/>
        <pt x="324" y="645" on="1"/>
        <pt x="352" y="647" on="0"/>
        <pt x="383" y="649" on="1"/>
        <pt x="368" y="580" on="1"/>
        <pt x="345" y="577" on="0"/>
        <pt x="316" y="570" on="0"/>
        <pt x="298" y="554" on="0"/>
        <pt x="288" y="527" on="0"/>
        <pt x="284" y="505" on="1"/>
        <pt x="276" y="467" on="0"/>
        <pt x="267" y="409" on="1"/>
        <pt x="378" y="464" on="1"/>
        <pt x="386" y="460" on="1"/>
        <pt x="404" y="399" on="1"/>
        <pt x="254" y="324" on="1"/>
        <pt x="248" y="289" on="0"/>
        <pt x="239" y="221" on="0"/>
        <pt x="231" y="166" on="0"/>
        <pt x="227" y="126" on="0"/>
        <pt x="227" y="118" on="1"/>
        <pt x="227" y="94" on="0"/>
        <pt x="248" y="77" on="0"/>
        <pt x="280" y="77" on="1"/>
        <pt x="314" y="77" on="0"/>
        <pt x="359" y="88" on="0"/>
        <pt x="390" y="121" on="0"/>
        <pt x="411" y="180" on="0"/>
        <pt x="422" y="228" on="1"/>
        <pt x="506" y="236" on="1"/>
        <pt x="512" y="227" on="1"/>
        <pt x="503" y="195" on="0"/>
        <pt x="494" y="158" on="1"/>
        <pt x="486" y="126" on="0"/>
        <pt x="467" y="46" on="0"/>
        <pt x="458" y="2" on="1"/>
        <pt x="447" y="-8" on="1"/>
        <pt x="402" y="-6" on="0"/>
        <pt x="355" y="-4" on="1"/>
        <pt x="315" y="-2" on="0"/>
        <pt x="221" y="0" on="0"/>
      </contour>
    </TTGlyph>
    <TTGlyph name="M" xMin="-3" yMin="-16" xMax="809" yMax="647">
      <contour>
        <pt x="324" y="-16" on="1"/>
        <pt x="298" y="131" on="0"/>
        <pt x="254" y="356" on="0"/>
        <pt x="235" y="449" on="1"/>
        <pt x="227" y="449" on="1"/>
        <pt x="209" y="352" on="0"/>
        <pt x="195" y="275" on="1"/>
        <pt x="189" y="242" on="0"/>
        <pt x="178" y="178" on="0"/>
        <pt x="169" y="127" on="0"/>
        <pt x="164" y="93" on="0"/>
        <pt x="164" y="90" on="1"/>
        <pt x="164" y="64" on="0"/>
        <pt x="191" y="64" on="1"/>
        <pt x="211" y="64" on="1"/>
        <pt x="217" y="64" on="0"/>
        <pt x="224" y="65" on="1"/>
        <pt x="229" y="60" on="1"/>
        <pt x="210" y="-4" on="1"/>
        <pt x="186" y="-3" on="0"/>
        <pt x="164" y="-2" on="1"/>
        <pt x="145" y="-1" on="0"/>
        <pt x="107" y="0" on="0"/>
        <pt x="95" y="0" on="1"/>
        <pt x="81" y="0" on="0"/>
        <pt x="47" y="-2" on="0"/>
        <pt x="32" y="-4" on="1"/>
        <pt x="14" y="-6" on="0"/>
        <pt x="-3" y="-8" on="1"/>
        <pt x="12" y="58" on="1"/>
        <pt x="41" y="62" on="0"/>
        <pt x="70" y="93" on="0"/>
        <pt x="78" y="130" on="1"/>
        <pt x="81" y="144" on="0"/>
        <pt x="96" y="212" on="0"/>
        <pt x="115" y="300" on="0"/>
        <pt x="135" y="396" on="0"/>
        <pt x="152" y="478" on="0"/>
        <pt x="163" y="537" on="0"/>
        <pt x="163" y="543" on="1"/>
        <pt x="163" y="561" on="0"/>
        <pt x="135" y="579" on="0"/>
        <pt x="96" y="582" on="1"/>
        <pt x="91" y="588" on="1"/>
        <pt x="107" y="646" on="1"/>
        <pt x="132" y="644" on="0"/>
        <pt x="155" y="643" on="1"/>
        <pt x="175" y="642" on="0"/>
        <pt x="215" y="641" on="0"/>
        <pt x="229" y="641" on="1"/>
        <pt x="244" y="641" on="0"/>
        <pt x="281" y="642" on="0"/>
        <pt x="298" y="643" on="1"/>
        <pt x="317" y="644" on="0"/>
        <pt x="336" y="645" on="1"/>
        <pt x="347" y="559" on="0"/>
        <pt x="372" y="409" on="0"/>
        <pt x="383" y="352" on="1"/>
        <pt x="395" y="286" on="0"/>
        <pt x="407" y="230" on="1"/>
        <pt x="415" y="230" on="1"/>
        <pt x="440" y="286" on="0"/>
        <pt x="468" y="352" on="1"/>
        <pt x="492" y="409" on="0"/>
        <pt x="554" y="558" on="0"/>
        <pt x="587" y="643" on="1"/>
        <pt x="609" y="644" on="0"/>
        <pt x="678" y="640" on="0"/>
        <pt x="707" y="642" on="1"/>
        <pt x="721" y="642" on="0"/>
        <pt x="755" y="644" on="0"/>
        <pt x="770" y="645" on="1"/>
        <pt x="788" y="646" on="0"/>
        <pt x="805" y="647" on="1"/>
        <pt x="809" y="643" on="1"/>
        <pt x="795" y="583" on="1"/>
        <pt x="754" y="580" on="0"/>
        <pt x="723" y="558" on="0"/>
        <pt x="720" y="530" on="1"/>
        <pt x="719" y="519" on="0"/>
        <pt x="715" y="472" on="0"/>
        <pt x="712" y="409" on="0"/>
        <pt x="708" y="334" on="0"/>
        <pt x="704" y="258" on="0"/>
        <pt x="702" y="186" on="0"/>
        <pt x="701" y="156" on="1"/>
        <pt x="699" y="101" on="0"/>
        <pt x="713" y="64" on="0"/>
        <pt x="736" y="64" on="1"/>
        <pt x="741" y="64" on="0"/>
        <pt x="751" y="64" on="0"/>
        <pt x="755" y="65" on="1"/>
        <pt x="759" y="65" on="0"/>
        <pt x="764" y="66" on="1"/>
        <pt x="767" y="61" on="1"/>
        <pt x="751" y="-3" on="1"/>
        <pt x="735" y="-3" on="0"/>
        <pt x="717" y="-2" on="1"/>
        <pt x="702" y="-1" on="0"/>
        <pt x="667" y="0" on="0"/>
        <pt x="652" y="0" on="1"/>
        <pt x="641" y="0" on="0"/>
        <pt x="595" y="-2" on="0"/>
        <pt x="549" y="-5" on="0"/>
        <pt x="512" y="-7" on="0"/>
        <pt x="509" y="-8" on="1"/>
        <pt x="525" y="58" on="1"/>
        <pt x="554" y="62" on="0"/>
        <pt x="581" y="85" on="0"/>
        <pt x="584" y="108" on="1"/>
        <pt x="585" y="115" on="0"/>
        <pt x="588" y="152" on="0"/>
        <pt x="592" y="203" on="0"/>
        <pt x="596" y="263" on="0"/>
        <pt x="598" y="293" on="1"/>
        <pt x="602" y="363" on="0"/>
        <pt x="608" y="449" on="1"/>
        <pt x="599" y="449" on="1"/>
        <pt x="582" y="411" on="0"/>
        <pt x="537" y="311" on="0"/>
        <pt x="484" y="194" on="0"/>
        <pt x="427" y="62" on="0"/>
        <pt x="397" y="-8" on="1"/>
      </contour>
    </TTGlyph>
    <TTGlyph name="N" xMin="12" yMin="-28" xMax="738" yMax="647">
      <contour>
        <pt x="511" y="230" on="1"/>
        <pt x="546" y="535" on="1"/>
        <pt x="548" y="558" on="0"/>
        <pt x="536" y="578" on="0"/>
        <pt x="520" y="578" on="1"/>
        <pt x="509" y="578" on="0"/>
        <pt x="490" y="577" on="0"/>
        <pt x="487" y="577" on="1"/>
        <pt x="484" y="585" on="1"/>
        <pt x="498" y="645" on="1"/>
        <pt x="521" y="644" on="0"/>
        <pt x="544" y="643" on="1"/>
        <pt x="564" y="642" on="0"/>
        <pt x="606" y="641" on="0"/>
        <pt x="623" y="641" on="1"/>
        <pt x="640" y="641" on="0"/>
        <pt x="681" y="642" on="0"/>
        <pt x="698" y="644" on="1"/>
        <pt x="718" y="645" on="0"/>
        <pt x="738" y="647" on="1"/>
        <pt x="725" y="581" on="1"/>
        <pt x="693" y="576" on="0"/>
        <pt x="662" y="548" on="0"/>
        <pt x="657" y="518" on="1"/>
        <pt x="579" y="-15" on="1"/>
        <pt x="473" y="-28" on="1"/>
        <pt x="428" y="66" on="0"/>
        <pt x="348" y="231" on="0"/>
        <pt x="317" y="292" on="1"/>
        <pt x="281" y="363" on="0"/>
        <pt x="249" y="423" on="1"/>
        <pt x="240" y="423" on="1"/>
        <pt x="200" y="108" on="1"/>
        <pt x="197" y="82" on="0"/>
        <pt x="209" y="63" on="0"/>
        <pt x="228" y="63" on="1"/>
        <pt x="232" y="63" on="0"/>
        <pt x="246" y="63" on="0"/>
        <pt x="253" y="64" on="1"/>
        <pt x="261" y="64" on="0"/>
        <pt x="269" y="65" on="1"/>
        <pt x="274" y="59" on="1"/>
        <pt x="257" y="-4" on="1"/>
        <pt x="233" y="-3" on="0"/>
        <pt x="210" y="-2" on="1"/>
        <pt x="190" y="-1" on="0"/>
        <pt x="148" y="0" on="0"/>
        <pt x="132" y="0" on="1"/>
        <pt x="112" y="0" on="0"/>
        <pt x="69" y="-2" on="0"/>
        <pt x="52" y="-4" on="1"/>
        <pt x="31" y="-6" on="0"/>
        <pt x="12" y="-8" on="1"/>
        <pt x="28" y="58" on="1"/>
        <pt x="57" y="62" on="0"/>
        <pt x="88" y="90" on="0"/>
        <pt x="93" y="121" on="1"/>
        <pt x="154" y="518" on="1"/>
        <pt x="158" y="550" on="0"/>
        <pt x="129" y="575" on="0"/>
        <pt x="83" y="580" on="1"/>
        <pt x="77" y="590" on="1"/>
        <pt x="90" y="646" on="1"/>
        <pt x="109" y="644" on="0"/>
        <pt x="128" y="643" on="1"/>
        <pt x="145" y="642" on="0"/>
        <pt x="184" y="641" on="0"/>
        <pt x="203" y="641" on="1"/>
        <pt x="219" y="641" on="0"/>
        <pt x="251" y="642" on="0"/>
        <pt x="265" y="643" on="1"/>
        <pt x="281" y="644" on="0"/>
        <pt x="296" y="645" on="1"/>
        <pt x="333" y="564" on="0"/>
        <pt x="407" y="415" on="0"/>
        <pt x="436" y="357" on="1"/>
        <pt x="470" y="289" on="0"/>
        <pt x="501" y="230" on="1"/>
      </contour>
    </TTGlyph>
    <TTGlyph name="Nacute" xMin="12" yMin="-28" xMax="738" yMax="857">
      <component glyphName="N" x="0" y="0" flags="0x4"/>
      <component glyphName="acute.cap" x="192" y="0" flags="0x4"/>
    </TTGlyph>
    <TTGlyph name="Ncaron" xMin="12" yMin="-28" xMax="738" yMax="865">
      <component glyphName="N" x="0" y="0" flags="0x4"/>
      <component glyphName="caron.cap" x="168" y="0" flags="0x4"/>
    </TTGlyph>
    <TTGlyph name="Ncommaaccent" xMin="12" yMin="-318" xMax="738" yMax="647">
      <component glyphName="N" x="0" y="0" flags="0x4"/>
      <component glyphName="commaaccent" x="179" y="0" flags="0x4"/>
    </TTGlyph>
    <TTGlyph name="Ntilde" xMin="12" yMin="-28" xMax="738" yMax="853">
      <component glyphName="N" x="0" y="0" flags="0x4"/>
      <component glyphName="tilde.cap" x="169" y="0" flags="0x4"/>
    </TTGlyph>
    <TTGlyph name="O" xMin="32" yMin="-12" xMax="641" yMax="653">
      <contour>
        <pt x="311" y="73" on="1"/>
        <pt x="391" y="73" on="0"/>
        <pt x="485" y="228" on="0"/>
        <pt x="485" y="371" on="1"/>
        <pt x="485" y="460" on="0"/>
        <pt x="416" y="559" on="0"/>
        <pt x="356" y="559" on="1"/>
        <pt x="278" y="559" on="0"/>
        <pt x="185" y="402" on="0"/>
        <pt x="185" y="261" on="1"/>
        <pt x="185" y="172" on="0"/>
        <pt x="251" y="73" on="0"/>
      </contour>
      <contour>
        <pt x="285" y="-12" on="1"/>
        <pt x="228" y="-12" on="0"/>
        <pt x="134" y="25" on="0"/>
        <pt x="68" y="94" on="0"/>
        <pt x="32" y="193" on="0"/>
        <pt x="32" y="255" on="1"/>
        <pt x="32" y="343" on="0"/>
        <pt x="83" y="490" on="0"/>
        <pt x="175" y="595" on="0"/>
        <pt x="305" y="653" on="0"/>
        <pt x="385" y="653" on="1"/>
        <pt x="444" y="653" on="0"/>
        <pt x="539" y="617" on="0"/>
        <pt x="605" y="549" on="0"/>
        <pt x="641" y="451" on="0"/>
        <pt x="641" y="390" on="1"/>
        <pt x="641" y="301" on="0"/>
        <pt x="589" y="153" on="0"/>
        <pt x="495" y="47" on="0"/>
        <pt x="364" y="-12" on="0"/>
      </contour>
    </TTGlyph>
    <TTGlyph name="OE" xMin="32" yMin="-11" xMax="914" yMax="654">
      <contour>
        <pt x="558" y="139" on="1"/>
        <pt x="555" y="119" on="0"/>
        <pt x="556" y="95" on="0"/>
        <pt x="567" y="83" on="0"/>
        <pt x="591" y="79" on="0"/>
        <pt x="612" y="79" on="1"/>
        <pt x="655" y="79" on="0"/>
        <pt x="709" y="86" on="0"/>
        <pt x="743" y="110" on="0"/>
        <pt x="763" y="155" on="0"/>
        <pt x="773" y="193" on="1"/>
        <pt x="858" y="200" on="1"/>
        <pt x="864" y="190" on="1"/>
        <pt x="856" y="163" on="0"/>
        <pt x="847" y="133" on="1"/>
        <pt x="839" y="107" on="0"/>
        <pt x="823" y="40" on="0"/>
        <pt x="815" y="4" on="1"/>
        <pt x="804" y="-7" on="1"/>
        <pt x="751" y="-5" on="0"/>
        <pt x="698" y="-3" on="1"/>
        <pt x="653" y="-1" on="0"/>
        <pt x="547" y="2" on="0"/>
        <pt x="502" y="2" on="1"/>
        <pt x="437" y="2" on="0"/>
        <pt x="330" y="-11" on="0"/>
        <pt x="284" y="-11" on="1"/>
        <pt x="227" y="-11" on="0"/>
        <pt x="134" y="26" on="0"/>
        <pt x="68" y="95" on="0"/>
        <pt x="32" y="194" on="0"/>
        <pt x="32" y="256" on="1"/>
        <pt x="32" y="344" on="0"/>
        <pt x="81" y="489" on="0"/>
        <pt x="171" y="593" on="0"/>
        <pt x="299" y="649" on="0"/>
        <pt x="378" y="649" on="1"/>
        <pt x="427" y="649" on="0"/>
        <pt x="541" y="636" on="0"/>
        <pt x="604" y="636" on="1"/>
        <pt x="689" y="636" on="0"/>
        <pt x="846" y="646" on="0"/>
        <pt x="907" y="654" on="1"/>
        <pt x="914" y="643" on="1"/>
        <pt x="906" y="617" on="0"/>
        <pt x="898" y="587" on="1"/>
        <pt x="891" y="561" on="0"/>
        <pt x="875" y="496" on="0"/>
        <pt x="869" y="461" on="1"/>
        <pt x="777" y="455" on="1"/>
        <pt x="779" y="465" on="0"/>
        <pt x="781" y="475" on="1"/>
        <pt x="783" y="483" on="0"/>
        <pt x="785" y="503" on="0"/>
        <pt x="785" y="511" on="1"/>
        <pt x="785" y="526" on="0"/>
        <pt x="775" y="544" on="0"/>
        <pt x="750" y="555" on="0"/>
        <pt x="705" y="558" on="0"/>
        <pt x="671" y="558" on="1"/>
        <pt x="654" y="558" on="0"/>
        <pt x="634" y="556" on="0"/>
        <pt x="624" y="549" on="0"/>
        <pt x="619" y="536" on="0"/>
        <pt x="618" y="525" on="1"/>
        <pt x="592" y="370" on="1"/>
        <pt x="680" y="369" on="1"/>
        <pt x="692" y="369" on="0"/>
        <pt x="731" y="371" on="0"/>
        <pt x="749" y="373" on="1"/>
        <pt x="770" y="375" on="0"/>
        <pt x="794" y="377" on="1"/>
        <pt x="801" y="368" on="1"/>
        <pt x="776" y="282" on="1"/>
        <pt x="754" y="282" on="0"/>
        <pt x="732" y="283" on="1"/>
        <pt x="713" y="284" on="0"/>
        <pt x="669" y="285" on="0"/>
        <pt x="652" y="285" on="1"/>
        <pt x="577" y="279" on="1"/>
      </contour>
      <contour>
        <pt x="307" y="73" on="1"/>
        <pt x="370" y="73" on="0"/>
        <pt x="431" y="133" on="0"/>
        <pt x="440" y="202" on="1"/>
        <pt x="472" y="454" on="1"/>
        <pt x="479" y="513" on="0"/>
        <pt x="429" y="561" on="0"/>
        <pt x="358" y="561" on="1"/>
        <pt x="320" y="561" on="0"/>
        <pt x="258" y="519" on="0"/>
        <pt x="213" y="441" on="0"/>
        <pt x="188" y="328" on="0"/>
        <pt x="188" y="258" on="1"/>
        <pt x="188" y="169" on="0"/>
        <pt x="249" y="73" on="0"/>
      </contour>
    </TTGlyph>
    <TTGlyph name="Oacute" xMin="32" yMin="-12" xMax="641" yMax="857">
      <component glyphName="O" x="0" y="0" flags="0x4"/>
      <component glyphName="acute.cap" x="154" y="0" flags="0x4"/>
    </TTGlyph>
    <TTGlyph name="Obreve" xMin="32" yMin="-12" xMax="641" yMax="875">
      <component glyphName="O" x="0" y="0" flags="0x4"/>
      <component glyphName="breve" x="136" y="165" flags="0x4"/>
    </TTGlyph>
    <TTGlyph name="Ocircumflex" xMin="32" yMin="-12" xMax="641" yMax="877">
      <component glyphName="O" x="0" y="0" flags="0x4"/>
      <component glyphName="circumflex.cap" x="130" y="0" flags="0x4"/>
    </TTGlyph>
    <TTGlyph name="Odieresis" xMin="32" yMin="-12" xMax="641" yMax="839">
      <component glyphName="O" x="0" y="0" flags="0x4"/>
      <component glyphName="dieresis.cap" x="130" y="5" flags="0x4"/>
    </TTGlyph>
    <TTGlyph name="Ograve" xMin="32" yMin="-12" xMax="641" yMax="857">
      <component glyphName="O" x="0" y="0" flags="0x4"/>
      <component glyphName="grave.cap" x="183" y="0" flags="0x4"/>
    </TTGlyph>
    <TTGlyph name="Ohungarumlaut" xMin="32" yMin="-12" xMax="641" yMax="857">
      <component glyphName="O" x="0" y="0" flags="0x4"/>
      <component glyphName="hungarumlaut.cap" x="144" y="0" flags="0x4"/>
    </TTGlyph>
    <TTGlyph name="Omacron" xMin="32" yMin="-12" xMax="641" yMax="805">
      <component glyphName="O" x="0" y="0" flags="0x4"/>
      <component glyphName="macron.cap" x="134" y="0" flags="0x4"/>
    </TTGlyph>
    <TTGlyph name="Omega" xMin="6" yMin="-5" xMax="802" yMax="654">
      <contour>
        <pt x="747" y="-5" on="1"/>
        <pt x="484" y="6" on="1"/>
        <pt x="428" y="-2" on="1"/>
        <pt x="418" y="47" on="1"/>
        <pt x="501" y="120" on="0"/>
        <pt x="573" y="281" on="0"/>
        <pt x="573" y="379" on="1"/>
        <pt x="573" y="464" on="0"/>
        <pt x="510" y="557" on="0"/>
        <pt x="451" y="557" on="1"/>
        <pt x="372" y="557" on="0"/>
        <pt x="279" y="418" on="0"/>
        <pt x="279" y="283" on="1"/>
        <pt x="279" y="212" on="0"/>
        <pt x="321" y="88" on="0"/>
        <pt x="361" y="48" on="1"/>
        <pt x="338" y="-3" on="1"/>
        <pt x="284" y="6" on="1"/>
        <pt x="21" y="-5" on="1"/>
        <pt x="6" y="14" on="1"/>
        <pt x="9" y="45" on="0"/>
        <pt x="14" y="112" on="0"/>
        <pt x="16" y="141" on="1"/>
        <pt x="18" y="174" on="0"/>
        <pt x="19" y="206" on="1"/>
        <pt x="91" y="213" on="1"/>
        <pt x="90" y="178" on="0"/>
        <pt x="96" y="129" on="0"/>
        <pt x="112" y="99" on="0"/>
        <pt x="140" y="84" on="0"/>
        <pt x="161" y="83" on="1"/>
        <pt x="230" y="79" on="1"/>
        <pt x="180" y="128" on="0"/>
        <pt x="128" y="255" on="0"/>
        <pt x="128" y="324" on="1"/>
        <pt x="128" y="394" on="0"/>
        <pt x="180" y="515" on="0"/>
        <pt x="272" y="603" on="0"/>
        <pt x="395" y="654" on="0"/>
        <pt x="467" y="654" on="1"/>
        <pt x="526" y="654" on="0"/>
        <pt x="624" y="619" on="0"/>
        <pt x="694" y="556" on="0"/>
        <pt x="733" y="468" on="0"/>
        <pt x="733" y="414" on="1"/>
        <pt x="733" y="316" on="0"/>
        <pt x="637" y="144" on="0"/>
        <pt x="550" y="78" on="1"/>
        <pt x="628" y="83" on="1"/>
        <pt x="648" y="84" on="0"/>
        <pt x="678" y="98" on="0"/>
        <pt x="702" y="127" on="0"/>
        <pt x="721" y="173" on="0"/>
        <pt x="729" y="206" on="1"/>
        <pt x="802" y="213" on="1"/>
        <pt x="795" y="178" on="0"/>
        <pt x="788" y="144" on="1"/>
        <pt x="782" y="114" on="0"/>
        <pt x="770" y="45" on="0"/>
        <pt x="766" y="14" on="1"/>
      </contour>
    </TTGlyph>
    <TTGlyph name="Oslash" xMin="32" yMin="-107" xMax="641" yMax="729">
      <contour>
        <pt x="125" y="38" on="1"/>
        <pt x="80" y="72" on="0"/>
        <pt x="32" y="182" on="0"/>
        <pt x="32" y="255" on="1"/>
        <pt x="32" y="343" on="0"/>
        <pt x="83" y="490" on="0"/>
        <pt x="175" y="595" on="0"/>
        <pt x="305" y="653" on="0"/>
        <pt x="385" y="653" on="1"/>
        <pt x="434" y="653" on="0"/>
        <pt x="478" y="639" on="1"/>
        <pt x="532" y="729" on="1"/>
        <pt x="593" y="700" on="1"/>
        <pt x="596" y="687" on="1"/>
        <pt x="546" y="605" on="1"/>
        <pt x="591" y="572" on="0"/>
        <pt x="641" y="463" on="0"/>
        <pt x="641" y="390" on="1"/>
        <pt x="641" y="301" on="0"/>
        <pt x="589" y="153" on="0"/>
        <pt x="495" y="47" on="0"/>
        <pt x="364" y="-12" on="0"/>
        <pt x="285" y="-12" on="1"/>
        <pt x="233" y="-12" on="0"/>
        <pt x="190" y="3" on="1"/>
        <pt x="123" y="-107" on="1"/>
        <pt x="63" y="-78" on="1"/>
        <pt x="60" y="-68" on="1"/>
      </contour>
      <contour>
        <pt x="311" y="73" on="1"/>
        <pt x="391" y="73" on="0"/>
        <pt x="485" y="228" on="0"/>
        <pt x="485" y="371" on="1"/>
        <pt x="485" y="431" on="0"/>
        <pt x="468" y="476" on="1"/>
        <pt x="245" y="94" on="1"/>
        <pt x="272" y="73" on="0"/>
      </contour>
      <contour>
        <pt x="185" y="261" on="1"/>
        <pt x="185" y="205" on="0"/>
        <pt x="199" y="161" on="1"/>
        <pt x="419" y="540" on="1"/>
        <pt x="390" y="559" on="0"/>
        <pt x="356" y="559" on="1"/>
        <pt x="278" y="559" on="0"/>
        <pt x="185" y="402" on="0"/>
      </contour>
    </TTGlyph>
    <TTGlyph name="Oslashacute" xMin="32" yMin="-107" xMax="641" yMax="862">
      <component glyphName="Oslash" x="0" y="0" flags="0x204"/>
      <component glyphName="acute.cap" x="141" y="5" flags="0x4"/>
    </TTGlyph>
    <TTGlyph name="Otilde" xMin="32" yMin="-12" xMax="641" yMax="853">
      <component glyphName="O" x="0" y="0" flags="0x4"/>
      <component glyphName="tilde.cap" x="135" y="0" flags="0x4"/>
    </TTGlyph>
    <TTGlyph name="P" xMin="9" yMin="-8" xMax="583" yMax="646">
      <contour>
        <pt x="102" y="643" on="1"/>
        <pt x="110" y="643" on="0"/>
        <pt x="139" y="642" on="0"/>
        <pt x="172" y="642" on="0"/>
        <pt x="208" y="641" on="0"/>
        <pt x="223" y="641" on="1"/>
        <pt x="236" y="641" on="0"/>
        <pt x="283" y="642" on="0"/>
        <pt x="306" y="643" on="1"/>
        <pt x="332" y="644" on="0"/>
        <pt x="362" y="646" on="1"/>
        <pt x="422" y="646" on="0"/>
        <pt x="506" y="619" on="0"/>
        <pt x="559" y="573" on="0"/>
        <pt x="583" y="514" on="0"/>
        <pt x="583" y="481" on="1"/>
        <pt x="583" y="431" on="0"/>
        <pt x="540" y="340" on="0"/>
        <pt x="469" y="270" on="0"/>
        <pt x="377" y="228" on="0"/>
        <pt x="328" y="228" on="1"/>
        <pt x="241" y="228" on="1"/>
        <pt x="226" y="125" on="1"/>
        <pt x="221" y="90" on="0"/>
        <pt x="237" y="64" on="0"/>
        <pt x="265" y="64" on="1"/>
        <pt x="271" y="64" on="0"/>
        <pt x="285" y="64" on="0"/>
        <pt x="292" y="65" on="1"/>
        <pt x="299" y="66" on="0"/>
        <pt x="307" y="67" on="1"/>
        <pt x="310" y="61" on="1"/>
        <pt x="293" y="-3" on="1"/>
        <pt x="268" y="-3" on="0"/>
        <pt x="245" y="-2" on="1"/>
        <pt x="225" y="-1" on="0"/>
        <pt x="185" y="0" on="0"/>
        <pt x="171" y="0" on="1"/>
        <pt x="153" y="0" on="0"/>
        <pt x="98" y="-2" on="0"/>
        <pt x="46" y="-5" on="0"/>
        <pt x="9" y="-8" on="0"/>
        <pt x="9" y="-8" on="1"/>
        <pt x="24" y="58" on="1"/>
        <pt x="64" y="65" on="0"/>
        <pt x="96" y="99" on="0"/>
        <pt x="101" y="141" on="1"/>
        <pt x="148" y="524" on="1"/>
        <pt x="152" y="556" on="0"/>
        <pt x="142" y="578" on="0"/>
        <pt x="125" y="578" on="1"/>
        <pt x="120" y="578" on="0"/>
        <pt x="108" y="577" on="0"/>
        <pt x="103" y="577" on="1"/>
        <pt x="97" y="576" on="0"/>
        <pt x="91" y="576" on="1"/>
        <pt x="86" y="584" on="1"/>
      </contour>
      <contour>
        <pt x="336" y="303" on="1"/>
        <pt x="390" y="315" on="0"/>
        <pt x="443" y="397" on="0"/>
        <pt x="443" y="461" on="1"/>
        <pt x="443" y="515" on="0"/>
        <pt x="380" y="563" on="0"/>
        <pt x="314" y="563" on="1"/>
        <pt x="300" y="563" on="0"/>
        <pt x="294" y="557" on="0"/>
        <pt x="292" y="546" on="1"/>
        <pt x="282" y="494" on="0"/>
        <pt x="262" y="375" on="0"/>
        <pt x="254" y="315" on="1"/>
      </contour>
    </TTGlyph>
    <TTGlyph name="Q" xMin="32" yMin="-227" xMax="747" yMax="653">
      <contour>
        <pt x="280" y="-12" on="1"/>
        <pt x="224" y="-11" on="0"/>
        <pt x="132" y="27" on="0"/>
        <pt x="67" y="96" on="0"/>
        <pt x="32" y="194" on="0"/>
        <pt x="32" y="255" on="1"/>
        <pt x="32" y="343" on="0"/>
        <pt x="83" y="490" on="0"/>
        <pt x="175" y="595" on="0"/>
        <pt x="305" y="653" on="0"/>
        <pt x="385" y="653" on="1"/>
        <pt x="444" y="653" on="0"/>
        <pt x="539" y="617" on="0"/>
        <pt x="605" y="549" on="0"/>
        <pt x="641" y="451" on="0"/>
        <pt x="641" y="390" on="1"/>
        <pt x="641" y="319" on="0"/>
        <pt x="608" y="197" on="0"/>
        <pt x="547" y="99" on="0"/>
        <pt x="461" y="28" on="0"/>
        <pt x="408" y="9" on="1"/>
        <pt x="408" y="6" on="1"/>
        <pt x="479" y="-53" on="0"/>
        <pt x="597" y="-108" on="0"/>
        <pt x="651" y="-108" on="1"/>
        <pt x="684" y="-108" on="0"/>
        <pt x="709" y="-103" on="1"/>
        <pt x="722" y="-101" on="0"/>
        <pt x="734" y="-98" on="1"/>
        <pt x="741" y="-104" on="1"/>
        <pt x="747" y="-145" on="1"/>
        <pt x="715" y="-168" on="0"/>
        <pt x="687" y="-186" on="1"/>
        <pt x="663" y="-202" on="0"/>
        <pt x="617" y="-227" on="0"/>
        <pt x="607" y="-227" on="1"/>
        <pt x="575" y="-227" on="0"/>
        <pt x="519" y="-211" on="0"/>
        <pt x="448" y="-165" on="0"/>
        <pt x="352" y="-81" on="0"/>
      </contour>
      <contour>
        <pt x="311" y="73" on="1"/>
        <pt x="391" y="73" on="0"/>
        <pt x="485" y="228" on="0"/>
        <pt x="485" y="371" on="1"/>
        <pt x="485" y="460" on="0"/>
        <pt x="416" y="559" on="0"/>
        <pt x="356" y="559" on="1"/>
        <pt x="278" y="559" on="0"/>
        <pt x="185" y="402" on="0"/>
        <pt x="185" y="261" on="1"/>
        <pt x="185" y="172" on="0"/>
        <pt x="251" y="73" on="0"/>
      </contour>
    </TTGlyph>
    <TTGlyph name="R" xMin="5" yMin="-16" xMax="602" yMax="646">
      <contour>
        <pt x="244" y="253" on="1"/>
        <pt x="229" y="140" on="1"/>
        <pt x="226" y="115" on="0"/>
        <pt x="226" y="85" on="0"/>
        <pt x="238" y="69" on="0"/>
        <pt x="265" y="63" on="0"/>
        <pt x="288" y="63" on="1"/>
        <pt x="291" y="57" on="1"/>
        <pt x="274" y="-4" on="1"/>
        <pt x="250" y="-4" on="0"/>
        <pt x="226" y="-3" on="1"/>
        <pt x="206" y="-2" on="0"/>
        <pt x="161" y="-1" on="0"/>
        <pt x="145" y="-1" on="1"/>
        <pt x="122" y="-1" on="0"/>
        <pt x="72" y="-2" on="0"/>
        <pt x="52" y="-3" on="1"/>
        <pt x="27" y="-4" on="0"/>
        <pt x="5" y="-6" on="1"/>
        <pt x="22" y="60" on="1"/>
        <pt x="43" y="63" on="0"/>
        <pt x="70" y="73" on="0"/>
        <pt x="88" y="91" on="0"/>
        <pt x="98" y="120" on="0"/>
        <pt x="101" y="141" on="1"/>
        <pt x="149" y="529" on="1"/>
        <pt x="152" y="558" on="0"/>
        <pt x="142" y="578" on="0"/>
        <pt x="125" y="578" on="1"/>
        <pt x="120" y="578" on="0"/>
        <pt x="108" y="577" on="0"/>
        <pt x="103" y="577" on="1"/>
        <pt x="97" y="576" on="0"/>
        <pt x="91" y="576" on="1"/>
        <pt x="86" y="584" on="1"/>
        <pt x="102" y="644" on="1"/>
        <pt x="125" y="643" on="0"/>
        <pt x="148" y="642" on="1"/>
        <pt x="167" y="641" on="0"/>
        <pt x="209" y="641" on="0"/>
        <pt x="223" y="641" on="1"/>
        <pt x="238" y="641" on="0"/>
        <pt x="285" y="642" on="0"/>
        <pt x="308" y="643" on="1"/>
        <pt x="334" y="644" on="0"/>
        <pt x="363" y="646" on="1"/>
        <pt x="466" y="646" on="0"/>
        <pt x="582" y="568" on="0"/>
        <pt x="582" y="496" on="1"/>
        <pt x="582" y="430" on="0"/>
        <pt x="509" y="322" on="0"/>
        <pt x="434" y="285" on="1"/>
        <pt x="499" y="142" on="1"/>
        <pt x="521" y="97" on="0"/>
        <pt x="565" y="56" on="0"/>
        <pt x="596" y="56" on="1"/>
        <pt x="602" y="47" on="1"/>
        <pt x="589" y="-5" on="1"/>
        <pt x="472" y="-16" on="1"/>
        <pt x="409" y="-16" on="0"/>
        <pt x="377" y="77" on="1"/>
        <pt x="317" y="253" on="1"/>
      </contour>
      <contour>
        <pt x="343" y="330" on="1"/>
        <pt x="351" y="333" on="0"/>
        <pt x="384" y="351" on="0"/>
        <pt x="417" y="384" on="0"/>
        <pt x="441" y="435" on="0"/>
        <pt x="441" y="473" on="1"/>
        <pt x="441" y="566" on="0"/>
        <pt x="310" y="566" on="1"/>
        <pt x="300" y="566" on="0"/>
        <pt x="293" y="558" on="0"/>
        <pt x="290" y="544" on="1"/>
        <pt x="283" y="506" on="0"/>
        <pt x="273" y="449" on="0"/>
        <pt x="266" y="401" on="0"/>
        <pt x="260" y="361" on="0"/>
        <pt x="257" y="340" on="1"/>
      </contour>
    </TTGlyph>
    <TTGlyph name="Racute" xMin="5" yMin="-16" xMax="602" yMax="857">
      <component glyphName="R" x="0" y="0" flags="0x4"/>
      <component glyphName="acute.cap" x="138" y="0" flags="0x4"/>
    </TTGlyph>
    <TTGlyph name="Rcaron" xMin="5" yMin="-16" xMax="602" yMax="865">
      <component glyphName="R" x="0" y="0" flags="0x4"/>
      <component glyphName="caron.cap" x="114" y="0" flags="0x4"/>
    </TTGlyph>
    <TTGlyph name="Rcommaaccent" xMin="5" yMin="-318" xMax="602" yMax="646">
      <component glyphName="R" x="0" y="0" flags="0x4"/>
      <component glyphName="commaaccent" x="139" y="0" flags="0x4"/>
    </TTGlyph>
    <TTGlyph name="S" xMin="10" yMin="-12" xMax="521" yMax="653">
      <contour>
        <pt x="193" y="-12" on="1"/>
        <pt x="155" y="-12" on="0"/>
        <pt x="90" y="-1" on="0"/>
        <pt x="67" y="7" on="1"/>
        <pt x="40" y="15" on="0"/>
        <pt x="17" y="26" on="1"/>
        <pt x="10" y="40" on="1"/>
        <pt x="18" y="65" on="0"/>
        <pt x="25" y="93" on="1"/>
        <pt x="31" y="117" on="0"/>
        <pt x="43" y="177" on="0"/>
        <pt x="48" y="209" on="1"/>
        <pt x="131" y="216" on="1"/>
        <pt x="126" y="176" on="0"/>
        <pt x="130" y="122" on="0"/>
        <pt x="150" y="89" on="0"/>
        <pt x="189" y="75" on="0"/>
        <pt x="219" y="75" on="1"/>
        <pt x="267" y="75" on="0"/>
        <pt x="328" y="122" on="0"/>
        <pt x="328" y="160" on="1"/>
        <pt x="328" y="176" on="0"/>
        <pt x="311" y="204" on="0"/>
        <pt x="283" y="228" on="0"/>
        <pt x="245" y="251" on="0"/>
        <pt x="224" y="262" on="1"/>
        <pt x="197" y="277" on="0"/>
        <pt x="142" y="309" on="0"/>
        <pt x="97" y="350" on="0"/>
        <pt x="69" y="403" on="0"/>
        <pt x="69" y="438" on="1"/>
        <pt x="69" y="484" on="0"/>
        <pt x="109" y="563" on="0"/>
        <pt x="182" y="621" on="0"/>
        <pt x="283" y="653" on="0"/>
        <pt x="343" y="653" on="1"/>
        <pt x="379" y="653" on="0"/>
        <pt x="442" y="645" on="0"/>
        <pt x="465" y="640" on="1"/>
        <pt x="492" y="634" on="0"/>
        <pt x="515" y="627" on="1"/>
        <pt x="521" y="614" on="1"/>
        <pt x="513" y="590" on="0"/>
        <pt x="505" y="563" on="1"/>
        <pt x="498" y="540" on="0"/>
        <pt x="483" y="477" on="0"/>
        <pt x="477" y="443" on="1"/>
        <pt x="402" y="437" on="1"/>
        <pt x="394" y="443" on="1"/>
        <pt x="395" y="452" on="0"/>
        <pt x="397" y="462" on="1"/>
        <pt x="399" y="470" on="0"/>
        <pt x="401" y="488" on="0"/>
        <pt x="401" y="495" on="1"/>
        <pt x="401" y="531" on="0"/>
        <pt x="361" y="562" on="0"/>
        <pt x="317" y="562" on="1"/>
        <pt x="273" y="562" on="0"/>
        <pt x="216" y="517" on="0"/>
        <pt x="216" y="482" on="1"/>
        <pt x="216" y="456" on="0"/>
        <pt x="256" y="416" on="0"/>
        <pt x="286" y="398" on="1"/>
        <pt x="315" y="381" on="0"/>
        <pt x="383" y="347" on="0"/>
        <pt x="441" y="303" on="0"/>
        <pt x="479" y="245" on="0"/>
        <pt x="479" y="205" on="1"/>
        <pt x="479" y="157" on="0"/>
        <pt x="439" y="77" on="0"/>
        <pt x="364" y="20" on="0"/>
        <pt x="258" y="-12" on="0"/>
      </contour>
    </TTGlyph>
    <TTGlyph name="Sacute" xMin="10" yMin="-12" xMax="521" yMax="857">
      <component glyphName="S" x="0" y="0" flags="0x4"/>
      <component glyphName="acute.cap" x="109" y="0" flags="0x4"/>
    </TTGlyph>
    <TTGlyph name="Scaron" xMin="10" yMin="-12" xMax="521" yMax="865">
      <component glyphName="S" x="0" y="0" flags="0x4"/>
      <component glyphName="caron.cap" x="85" y="0" flags="0x4"/>
    </TTGlyph>
    <TTGlyph name="Scedilla" xMin="10" yMin="-238" xMax="521" yMax="653">
      <contour>
        <pt x="187" y="-12" on="1"/>
        <pt x="149" y="-11" on="0"/>
        <pt x="88" y="1" on="0"/>
        <pt x="65" y="8" on="1"/>
        <pt x="39" y="16" on="0"/>
        <pt x="17" y="26" on="1"/>
        <pt x="10" y="40" on="1"/>
        <pt x="18" y="65" on="0"/>
        <pt x="25" y="93" on="1"/>
        <pt x="31" y="117" on="0"/>
        <pt x="43" y="177" on="0"/>
        <pt x="48" y="209" on="1"/>
        <pt x="131" y="216" on="1"/>
        <pt x="126" y="176" on="0"/>
        <pt x="130" y="122" on="0"/>
        <pt x="150" y="89" on="0"/>
        <pt x="189" y="75" on="0"/>
        <pt x="219" y="75" on="1"/>
        <pt x="267" y="75" on="0"/>
        <pt x="328" y="122" on="0"/>
        <pt x="328" y="160" on="1"/>
        <pt x="328" y="176" on="0"/>
        <pt x="311" y="204" on="0"/>
        <pt x="283" y="228" on="0"/>
        <pt x="245" y="251" on="0"/>
        <pt x="224" y="262" on="1"/>
        <pt x="197" y="277" on="0"/>
        <pt x="142" y="309" on="0"/>
        <pt x="97" y="350" on="0"/>
        <pt x="69" y="403" on="0"/>
        <pt x="69" y="438" on="1"/>
        <pt x="69" y="484" on="0"/>
        <pt x="109" y="563" on="0"/>
        <pt x="182" y="621" on="0"/>
        <pt x="283" y="653" on="0"/>
        <pt x="343" y="653" on="1"/>
        <pt x="379" y="653" on="0"/>
        <pt x="442" y="645" on="0"/>
        <pt x="465" y="640" on="1"/>
        <pt x="492" y="634" on="0"/>
        <pt x="515" y="627" on="1"/>
        <pt x="521" y="614" on="1"/>
        <pt x="513" y="590" on="0"/>
        <pt x="505" y="563" on="1"/>
        <pt x="498" y="540" on="0"/>
        <pt x="483" y="477" on="0"/>
        <pt x="477" y="443" on="1"/>
        <pt x="402" y="437" on="1"/>
        <pt x="394" y="443" on="1"/>
        <pt x="395" y="452" on="0"/>
        <pt x="397" y="462" on="1"/>
        <pt x="399" y="470" on="0"/>
        <pt x="401" y="488" on="0"/>
        <pt x="401" y="495" on="1"/>
        <pt x="401" y="531" on="0"/>
        <pt x="361" y="562" on="0"/>
        <pt x="317" y="562" on="1"/>
        <pt x="273" y="562" on="0"/>
        <pt x="216" y="517" on="0"/>
        <pt x="216" y="482" on="1"/>
        <pt x="216" y="456" on="0"/>
        <pt x="256" y="416" on="0"/>
        <pt x="286" y="398" on="1"/>
        <pt x="315" y="381" on="0"/>
        <pt x="383" y="347" on="0"/>
        <pt x="441" y="303" on="0"/>
        <pt x="479" y="245" on="0"/>
        <pt x="479" y="205" on="1"/>
        <pt x="479" y="161" on="0"/>
        <pt x="446" y="87" on="0"/>
        <pt x="383" y="31" on="0"/>
        <pt x="294" y="-5" on="0"/>
        <pt x="239" y="-10" on="1"/>
        <pt x="226" y="-44" on="1"/>
        <pt x="238" y="-52" on="0"/>
        <pt x="268" y="-71" on="0"/>
        <pt x="293" y="-95" on="0"/>
        <pt x="310" y="-122" on="0"/>
        <pt x="310" y="-136" on="1"/>
        <pt x="310" y="-157" on="0"/>
        <pt x="285" y="-194" on="0"/>
        <pt x="244" y="-222" on="0"/>
        <pt x="193" y="-238" on="0"/>
        <pt x="166" y="-238" on="1"/>
        <pt x="154" y="-238" on="0"/>
        <pt x="128" y="-232" on="0"/>
        <pt x="107" y="-221" on="0"/>
        <pt x="94" y="-206" on="0"/>
        <pt x="94" y="-196" on="1"/>
        <pt x="94" y="-190" on="0"/>
        <pt x="103" y="-174" on="0"/>
        <pt x="117" y="-155" on="0"/>
        <pt x="133" y="-137" on="0"/>
        <pt x="140" y="-130" on="1"/>
        <pt x="148" y="-130" on="1"/>
        <pt x="146" y="-158" on="0"/>
        <pt x="170" y="-186" on="0"/>
        <pt x="191" y="-186" on="1"/>
        <pt x="209" y="-186" on="0"/>
        <pt x="233" y="-168" on="0"/>
        <pt x="233" y="-154" on="1"/>
        <pt x="233" y="-146" on="0"/>
        <pt x="219" y="-129" on="0"/>
        <pt x="197" y="-111" on="0"/>
        <pt x="171" y="-94" on="0"/>
        <pt x="158" y="-86" on="1"/>
      </contour>
    </TTGlyph>
    <TTGlyph name="Scircumflex" xMin="10" yMin="-12" xMax="521" yMax="904">
      <component glyphName="S" x="0" y="0" flags="0x4"/>
      <component glyphName="circumflex" x="99" y="174" flags="0x4"/>
    </TTGlyph>
    <TTGlyph name="Scommaaccent" xMin="10" yMin="-318" xMax="521" yMax="653">
      <component glyphName="S" x="0" y="0" flags="0x4"/>
      <component glyphName="commaaccent" x="63" y="0" flags="0x4"/>
    </TTGlyph>
    <TTGlyph name="T" xMin="29" yMin="-6" xMax="585" yMax="653">
      <contour>
        <pt x="249" y="566" on="1"/>
        <pt x="210" y="564" on="0"/>
        <pt x="165" y="555" on="0"/>
        <pt x="138" y="528" on="0"/>
        <pt x="122" y="478" on="0"/>
        <pt x="112" y="435" on="1"/>
        <pt x="29" y="429" on="1"/>
        <pt x="35" y="463" on="0"/>
        <pt x="42" y="499" on="1"/>
        <pt x="47" y="530" on="0"/>
        <pt x="61" y="605" on="0"/>
        <pt x="66" y="642" on="1"/>
        <pt x="79" y="653" on="1"/>
        <pt x="173" y="642" on="1"/>
        <pt x="475" y="642" on="1"/>
        <pt x="576" y="653" on="1"/>
        <pt x="585" y="642" on="1"/>
        <pt x="580" y="604" on="0"/>
        <pt x="575" y="530" on="0"/>
        <pt x="573" y="501" on="1"/>
        <pt x="570" y="467" on="0"/>
        <pt x="569" y="435" on="1"/>
        <pt x="486" y="429" on="1"/>
        <pt x="486" y="475" on="0"/>
        <pt x="483" y="528" on="0"/>
        <pt x="464" y="556" on="0"/>
        <pt x="424" y="564" on="0"/>
        <pt x="388" y="566" on="1"/>
        <pt x="384" y="542" on="0"/>
        <pt x="370" y="461" on="0"/>
        <pt x="356" y="368" on="0"/>
        <pt x="342" y="269" on="0"/>
        <pt x="330" y="186" on="0"/>
        <pt x="323" y="125" on="0"/>
        <pt x="323" y="116" on="1"/>
        <pt x="323" y="89" on="0"/>
        <pt x="344" y="65" on="0"/>
        <pt x="368" y="65" on="1"/>
        <pt x="379" y="65" on="0"/>
        <pt x="398" y="65" on="0"/>
        <pt x="406" y="66" on="1"/>
        <pt x="414" y="67" on="0"/>
        <pt x="421" y="68" on="1"/>
        <pt x="424" y="63" on="1"/>
        <pt x="407" y="-4" on="1"/>
        <pt x="374" y="-3" on="0"/>
        <pt x="342" y="-2" on="1"/>
        <pt x="315" y="-1" on="0"/>
        <pt x="257" y="0" on="0"/>
        <pt x="238" y="0" on="1"/>
        <pt x="218" y="0" on="0"/>
        <pt x="162" y="-2" on="0"/>
        <pt x="136" y="-3" on="1"/>
        <pt x="106" y="-5" on="0"/>
        <pt x="75" y="-6" on="1"/>
        <pt x="91" y="59" on="1"/>
        <pt x="123" y="62" on="0"/>
        <pt x="162" y="72" on="0"/>
        <pt x="185" y="94" on="0"/>
        <pt x="196" y="133" on="0"/>
        <pt x="200" y="165" on="1"/>
      </contour>
    </TTGlyph>
    <TTGlyph name="Tbar" xMin="29" yMin="-6" xMax="585" yMax="653">
      <contour>
        <pt x="213" y="276" on="1"/>
        <pt x="130" y="276" on="1"/>
        <pt x="120" y="285" on="1"/>
        <pt x="127" y="333" on="1"/>
        <pt x="220" y="332" on="1"/>
        <pt x="249" y="566" on="1"/>
        <pt x="210" y="564" on="0"/>
        <pt x="165" y="555" on="0"/>
        <pt x="138" y="528" on="0"/>
        <pt x="122" y="478" on="0"/>
        <pt x="112" y="435" on="1"/>
        <pt x="29" y="429" on="1"/>
        <pt x="35" y="463" on="0"/>
        <pt x="42" y="499" on="1"/>
        <pt x="47" y="530" on="0"/>
        <pt x="61" y="605" on="0"/>
        <pt x="66" y="642" on="1"/>
        <pt x="79" y="653" on="1"/>
        <pt x="173" y="642" on="1"/>
        <pt x="475" y="642" on="1"/>
        <pt x="576" y="653" on="1"/>
        <pt x="585" y="642" on="1"/>
        <pt x="580" y="604" on="0"/>
        <pt x="575" y="530" on="0"/>
        <pt x="573" y="501" on="1"/>
        <pt x="570" y="467" on="0"/>
        <pt x="569" y="435" on="1"/>
        <pt x="486" y="429" on="1"/>
        <pt x="486" y="475" on="0"/>
        <pt x="483" y="528" on="0"/>
        <pt x="464" y="556" on="0"/>
        <pt x="424" y="564" on="0"/>
        <pt x="388" y="566" on="1"/>
        <pt x="385" y="549" on="0"/>
        <pt x="376" y="498" on="0"/>
        <pt x="366" y="436" on="0"/>
        <pt x="356" y="368" on="0"/>
        <pt x="351" y="334" on="1"/>
        <pt x="427" y="337" on="1"/>
        <pt x="441" y="323" on="1"/>
        <pt x="437" y="277" on="1"/>
        <pt x="342" y="277" on="1"/>
        <pt x="334" y="217" on="0"/>
        <pt x="323" y="128" on="0"/>
        <pt x="323" y="116" on="1"/>
        <pt x="323" y="89" on="0"/>
        <pt x="344" y="65" on="0"/>
        <pt x="368" y="65" on="1"/>
        <pt x="379" y="65" on="0"/>
        <pt x="398" y="65" on="0"/>
        <pt x="406" y="66" on="1"/>
        <pt x="414" y="67" on="0"/>
        <pt x="421" y="68" on="1"/>
        <pt x="424" y="63" on="1"/>
        <pt x="407" y="-4" on="1"/>
        <pt x="374" y="-3" on="0"/>
        <pt x="342" y="-2" on="1"/>
        <pt x="315" y="-1" on="0"/>
        <pt x="257" y="0" on="0"/>
        <pt x="238" y="0" on="1"/>
        <pt x="218" y="0" on="0"/>
        <pt x="162" y="-2" on="0"/>
        <pt x="136" y="-3" on="1"/>
        <pt x="106" y="-5" on="0"/>
        <pt x="75" y="-6" on="1"/>
        <pt x="91" y="59" on="1"/>
        <pt x="123" y="62" on="0"/>
        <pt x="162" y="72" on="0"/>
        <pt x="185" y="94" on="0"/>
        <pt x="196" y="133" on="0"/>
        <pt x="200" y="165" on="1"/>
      </contour>
    </TTGlyph>
    <TTGlyph name="Tcaron" xMin="29" yMin="-6" xMax="585" yMax="865">
      <component glyphName="T" x="0" y="0" flags="0x4"/>
      <component glyphName="caron.cap" x="89" y="0" flags="0x4"/>
    </TTGlyph>
    <TTGlyph name="Tcedilla" xMin="29" yMin="-238" xMax="585" yMax="653">
      <contour>
        <pt x="221" y="0" on="1"/>
        <pt x="199" y="-1" on="0"/>
        <pt x="149" y="-2" on="0"/>
        <pt x="127" y="-3" on="1"/>
        <pt x="101" y="-4" on="0"/>
        <pt x="75" y="-6" on="1"/>
        <pt x="91" y="59" on="1"/>
        <pt x="123" y="62" on="0"/>
        <pt x="162" y="72" on="0"/>
        <pt x="185" y="94" on="0"/>
        <pt x="196" y="133" on="0"/>
        <pt x="200" y="165" on="1"/>
        <pt x="249" y="566" on="1"/>
        <pt x="210" y="564" on="0"/>
        <pt x="165" y="555" on="0"/>
        <pt x="138" y="528" on="0"/>
        <pt x="122" y="478" on="0"/>
        <pt x="112" y="435" on="1"/>
        <pt x="29" y="429" on="1"/>
        <pt x="35" y="463" on="0"/>
        <pt x="42" y="499" on="1"/>
        <pt x="47" y="530" on="0"/>
        <pt x="61" y="605" on="0"/>
        <pt x="66" y="642" on="1"/>
        <pt x="79" y="653" on="1"/>
        <pt x="173" y="642" on="1"/>
        <pt x="475" y="642" on="1"/>
        <pt x="576" y="653" on="1"/>
        <pt x="585" y="642" on="1"/>
        <pt x="580" y="604" on="0"/>
        <pt x="575" y="530" on="0"/>
        <pt x="573" y="501" on="1"/>
        <pt x="570" y="467" on="0"/>
        <pt x="569" y="435" on="1"/>
        <pt x="486" y="429" on="1"/>
        <pt x="486" y="475" on="0"/>
        <pt x="483" y="528" on="0"/>
        <pt x="464" y="556" on="0"/>
        <pt x="424" y="564" on="0"/>
        <pt x="388" y="566" on="1"/>
        <pt x="384" y="542" on="0"/>
        <pt x="370" y="461" on="0"/>
        <pt x="356" y="368" on="0"/>
        <pt x="342" y="269" on="0"/>
        <pt x="330" y="186" on="0"/>
        <pt x="323" y="125" on="0"/>
        <pt x="323" y="116" on="1"/>
        <pt x="323" y="89" on="0"/>
        <pt x="344" y="65" on="0"/>
        <pt x="368" y="65" on="1"/>
        <pt x="379" y="65" on="0"/>
        <pt x="398" y="65" on="0"/>
        <pt x="406" y="66" on="1"/>
        <pt x="414" y="67" on="0"/>
        <pt x="421" y="68" on="1"/>
        <pt x="424" y="63" on="1"/>
        <pt x="407" y="-4" on="1"/>
        <pt x="384" y="-3" on="0"/>
        <pt x="361" y="-2" on="1"/>
        <pt x="341" y="-1" on="0"/>
        <pt x="294" y="-1" on="0"/>
        <pt x="273" y="0" on="1"/>
        <pt x="256" y="-44" on="1"/>
        <pt x="268" y="-52" on="0"/>
        <pt x="298" y="-71" on="0"/>
        <pt x="323" y="-95" on="0"/>
        <pt x="340" y="-122" on="0"/>
        <pt x="340" y="-136" on="1"/>
        <pt x="340" y="-157" on="0"/>
        <pt x="315" y="-194" on="0"/>
        <pt x="274" y="-222" on="0"/>
        <pt x="223" y="-238" on="0"/>
        <pt x="196" y="-238" on="1"/>
        <pt x="184" y="-238" on="0"/>
        <pt x="158" y="-232" on="0"/>
        <pt x="137" y="-221" on="0"/>
        <pt x="124" y="-206" on="0"/>
        <pt x="124" y="-196" on="1"/>
        <pt x="124" y="-190" on="0"/>
        <pt x="133" y="-174" on="0"/>
        <pt x="147" y="-155" on="0"/>
        <pt x="163" y="-137" on="0"/>
        <pt x="170" y="-130" on="1"/>
        <pt x="178" y="-130" on="1"/>
        <pt x="176" y="-158" on="0"/>
        <pt x="200" y="-186" on="0"/>
        <pt x="221" y="-186" on="1"/>
        <pt x="239" y="-186" on="0"/>
        <pt x="263" y="-168" on="0"/>
        <pt x="263" y="-154" on="1"/>
        <pt x="263" y="-146" on="0"/>
        <pt x="249" y="-129" on="0"/>
        <pt x="227" y="-111" on="0"/>
        <pt x="201" y="-94" on="0"/>
        <pt x="188" y="-86" on="1"/>
      </contour>
    </TTGlyph>
    <TTGlyph name="Thorn" xMin="4" yMin="-9" xMax="560" yMax="649">
      <contour>
        <pt x="287" y="512" on="1"/>
        <pt x="359" y="512" on="1"/>
        <pt x="560" y="512" on="0"/>
        <pt x="560" y="360" on="1"/>
        <pt x="560" y="313" on="0"/>
        <pt x="519" y="234" on="0"/>
        <pt x="448" y="177" on="0"/>
        <pt x="353" y="144" on="0"/>
        <pt x="300" y="144" on="1"/>
        <pt x="232" y="144" on="1"/>
        <pt x="228" y="114" on="1"/>
        <pt x="224" y="84" on="0"/>
        <pt x="236" y="65" on="0"/>
        <pt x="258" y="65" on="1"/>
        <pt x="268" y="65" on="0"/>
        <pt x="285" y="65" on="0"/>
        <pt x="291" y="66" on="1"/>
        <pt x="298" y="67" on="0"/>
        <pt x="304" y="68" on="1"/>
        <pt x="308" y="61" on="1"/>
        <pt x="292" y="-3" on="1"/>
        <pt x="262" y="-3" on="0"/>
        <pt x="234" y="-2" on="1"/>
        <pt x="210" y="-1" on="0"/>
        <pt x="159" y="0" on="0"/>
        <pt x="142" y="0" on="1"/>
        <pt x="122" y="0" on="0"/>
        <pt x="74" y="-3" on="0"/>
        <pt x="53" y="-5" on="1"/>
        <pt x="28" y="-7" on="0"/>
        <pt x="4" y="-9" on="1"/>
        <pt x="19" y="56" on="1"/>
        <pt x="40" y="60" on="0"/>
        <pt x="69" y="72" on="0"/>
        <pt x="87" y="91" on="0"/>
        <pt x="96" y="119" on="0"/>
        <pt x="99" y="140" on="1"/>
        <pt x="147" y="525" on="1"/>
        <pt x="151" y="556" on="0"/>
        <pt x="139" y="577" on="0"/>
        <pt x="118" y="577" on="1"/>
        <pt x="113" y="577" on="0"/>
        <pt x="102" y="576" on="0"/>
        <pt x="97" y="576" on="1"/>
        <pt x="86" y="576" on="1"/>
        <pt x="81" y="584" on="1"/>
        <pt x="96" y="643" on="1"/>
        <pt x="106" y="643" on="0"/>
        <pt x="138" y="643" on="0"/>
        <pt x="176" y="642" on="0"/>
        <pt x="215" y="642" on="0"/>
        <pt x="232" y="642" on="1"/>
        <pt x="248" y="642" on="0"/>
        <pt x="295" y="643" on="0"/>
        <pt x="318" y="645" on="1"/>
        <pt x="344" y="647" on="0"/>
        <pt x="372" y="649" on="1"/>
        <pt x="359" y="582" on="1"/>
        <pt x="320" y="576" on="0"/>
        <pt x="295" y="558" on="0"/>
        <pt x="291" y="536" on="1"/>
      </contour>
      <contour>
        <pt x="243" y="232" on="1"/>
        <pt x="261" y="227" on="0"/>
        <pt x="307" y="218" on="0"/>
        <pt x="321" y="218" on="1"/>
        <pt x="369" y="226" on="0"/>
        <pt x="416" y="291" on="0"/>
        <pt x="416" y="342" on="1"/>
        <pt x="416" y="389" on="0"/>
        <pt x="358" y="431" on="0"/>
        <pt x="295" y="431" on="1"/>
        <pt x="282" y="431" on="0"/>
        <pt x="273" y="425" on="0"/>
        <pt x="271" y="417" on="1"/>
      </contour>
    </TTGlyph>
    <TTGlyph name="U" xMin="60" yMin="-12" xMax="667" yMax="648">
      <contour>
        <pt x="213" y="237" on="1"/>
        <pt x="212" y="226" on="0"/>
        <pt x="211" y="205" on="0"/>
        <pt x="211" y="197" on="1"/>
        <pt x="210" y="138" on="0"/>
        <pt x="261" y="77" on="0"/>
        <pt x="312" y="77" on="1"/>
        <pt x="428" y="77" on="0"/>
        <pt x="444" y="209" on="1"/>
        <pt x="445" y="221" on="0"/>
        <pt x="450" y="261" on="0"/>
        <pt x="456" y="310" on="0"/>
        <pt x="462" y="364" on="0"/>
        <pt x="465" y="391" on="1"/>
        <pt x="472" y="453" on="0"/>
        <pt x="480" y="524" on="1"/>
        <pt x="483" y="557" on="0"/>
        <pt x="474" y="578" on="0"/>
        <pt x="456" y="578" on="1"/>
        <pt x="452" y="578" on="0"/>
        <pt x="441" y="577" on="0"/>
        <pt x="436" y="577" on="1"/>
        <pt x="430" y="576" on="0"/>
        <pt x="424" y="576" on="1"/>
        <pt x="422" y="580" on="1"/>
        <pt x="438" y="644" on="1"/>
        <pt x="459" y="643" on="0"/>
        <pt x="480" y="642" on="1"/>
        <pt x="497" y="641" on="0"/>
        <pt x="536" y="641" on="0"/>
        <pt x="550" y="641" on="1"/>
        <pt x="569" y="641" on="0"/>
        <pt x="610" y="642" on="0"/>
        <pt x="627" y="644" on="1"/>
        <pt x="647" y="646" on="0"/>
        <pt x="667" y="648" on="1"/>
        <pt x="653" y="582" on="1"/>
        <pt x="634" y="578" on="0"/>
        <pt x="611" y="571" on="0"/>
        <pt x="598" y="560" on="0"/>
        <pt x="592" y="544" on="0"/>
        <pt x="591" y="532" on="1"/>
        <pt x="552" y="219" on="1"/>
        <pt x="538" y="105" on="0"/>
        <pt x="400" y="-12" on="0"/>
        <pt x="280" y="-12" on="1"/>
        <pt x="177" y="-12" on="0"/>
        <pt x="75" y="77" on="0"/>
        <pt x="75" y="165" on="1"/>
        <pt x="75" y="184" on="0"/>
        <pt x="78" y="205" on="1"/>
        <pt x="118" y="524" on="1"/>
        <pt x="122" y="557" on="0"/>
        <pt x="112" y="578" on="0"/>
        <pt x="92" y="578" on="1"/>
        <pt x="87" y="578" on="0"/>
        <pt x="78" y="577" on="0"/>
        <pt x="73" y="577" on="1"/>
        <pt x="68" y="576" on="0"/>
        <pt x="62" y="576" on="1"/>
        <pt x="60" y="580" on="1"/>
        <pt x="77" y="644" on="1"/>
        <pt x="100" y="643" on="0"/>
        <pt x="125" y="642" on="1"/>
        <pt x="145" y="641" on="0"/>
        <pt x="194" y="641" on="0"/>
        <pt x="215" y="641" on="1"/>
        <pt x="230" y="641" on="0"/>
        <pt x="270" y="642" on="0"/>
        <pt x="288" y="644" on="1"/>
        <pt x="309" y="646" on="0"/>
        <pt x="331" y="648" on="1"/>
        <pt x="316" y="581" on="1"/>
        <pt x="285" y="577" on="0"/>
        <pt x="260" y="554" on="0"/>
        <pt x="256" y="528" on="1"/>
      </contour>
    </TTGlyph>
    <TTGlyph name="Uacute" xMin="60" yMin="-12" xMax="667" yMax="857">
      <component glyphName="U" x="0" y="0" flags="0x4"/>
      <component glyphName="acute.cap" x="170" y="0" flags="0x4"/>
    </TTGlyph>
    <TTGlyph name="Ubreve" xMin="60" yMin="-12" xMax="667" yMax="880">
      <component glyphName="U" x="0" y="0" flags="0x4"/>
      <component glyphName="breve" x="144" y="170" flags="0x4"/>
    </TTGlyph>
    <TTGlyph name="Ucircumflex" xMin="60" yMin="-12" xMax="667" yMax="877">
      <component glyphName="U" x="0" y="0" flags="0x4"/>
      <component glyphName="circumflex.cap" x="142" y="0" flags="0x4"/>
    </TTGlyph>
    <TTGlyph name="Udieresis" xMin="60" yMin="-12" xMax="667" yMax="839">
      <component glyphName="U" x="0" y="0" flags="0x4"/>
      <component glyphName="dieresis.cap" x="141" y="5" flags="0x4"/>
    </TTGlyph>
    <TTGlyph name="Ugrave" xMin="60" yMin="-12" xMax="667" yMax="857">
      <component glyphName="U" x="0" y="0" flags="0x4"/>
      <component glyphName="grave.cap" x="181" y="0" flags="0x4"/>
    </TTGlyph>
    <TTGlyph name="Uhungarumlaut" xMin="60" yMin="-12" xMax="667" yMax="857">
      <component glyphName="U" x="0" y="0" flags="0x4"/>
      <component glyphName="hungarumlaut.cap" x="166" y="0" flags="0x4"/>
    </TTGlyph>
    <TTGlyph name="Umacron" xMin="60" yMin="-12" xMax="667" yMax="805">
      <component glyphName="U" x="0" y="0" flags="0x4"/>
      <component glyphName="macron.cap" x="140" y="0" flags="0x4"/>
    </TTGlyph>
    <TTGlyph name="Uogonek" xMin="60" yMin="-241" xMax="667" yMax="648">
      <contour>
        <pt x="479" y="-174" on="1"/>
        <pt x="462" y="-188" on="0"/>
        <pt x="444" y="-201" on="1"/>
        <pt x="429" y="-212" on="0"/>
        <pt x="391" y="-235" on="0"/>
        <pt x="373" y="-241" on="1"/>
        <pt x="322" y="-241" on="0"/>
        <pt x="266" y="-198" on="0"/>
        <pt x="266" y="-160" on="1"/>
        <pt x="266" y="-128" on="0"/>
        <pt x="309" y="-56" on="0"/>
        <pt x="362" y="-3" on="1"/>
        <pt x="326" y="-12" on="0"/>
        <pt x="280" y="-12" on="1"/>
        <pt x="75" y="-12" on="0"/>
        <pt x="75" y="165" on="1"/>
        <pt x="75" y="184" on="0"/>
        <pt x="78" y="205" on="1"/>
        <pt x="118" y="524" on="1"/>
        <pt x="122" y="558" on="0"/>
        <pt x="112" y="578" on="0"/>
        <pt x="92" y="578" on="1"/>
        <pt x="87" y="578" on="0"/>
        <pt x="78" y="577" on="0"/>
        <pt x="73" y="577" on="1"/>
        <pt x="68" y="576" on="0"/>
        <pt x="62" y="576" on="1"/>
        <pt x="60" y="580" on="1"/>
        <pt x="77" y="644" on="1"/>
        <pt x="100" y="643" on="0"/>
        <pt x="125" y="642" on="1"/>
        <pt x="145" y="641" on="0"/>
        <pt x="194" y="641" on="0"/>
        <pt x="215" y="641" on="1"/>
        <pt x="230" y="641" on="0"/>
        <pt x="270" y="642" on="0"/>
        <pt x="288" y="644" on="1"/>
        <pt x="309" y="646" on="0"/>
        <pt x="331" y="648" on="1"/>
        <pt x="316" y="581" on="1"/>
        <pt x="285" y="577" on="0"/>
        <pt x="260" y="554" on="0"/>
        <pt x="256" y="528" on="1"/>
        <pt x="213" y="237" on="1"/>
        <pt x="212" y="226" on="0"/>
        <pt x="211" y="205" on="0"/>
        <pt x="211" y="197" on="1"/>
        <pt x="209" y="77" on="0"/>
        <pt x="312" y="77" on="1"/>
        <pt x="370" y="77" on="0"/>
        <pt x="436" y="141" on="0"/>
        <pt x="444" y="209" on="1"/>
        <pt x="445" y="221" on="0"/>
        <pt x="450" y="261" on="0"/>
        <pt x="456" y="310" on="0"/>
        <pt x="462" y="364" on="0"/>
        <pt x="465" y="391" on="1"/>
        <pt x="472" y="453" on="0"/>
        <pt x="480" y="524" on="1"/>
        <pt x="483" y="558" on="0"/>
        <pt x="474" y="578" on="0"/>
        <pt x="456" y="578" on="1"/>
        <pt x="452" y="578" on="0"/>
        <pt x="441" y="577" on="0"/>
        <pt x="436" y="577" on="1"/>
        <pt x="430" y="576" on="0"/>
        <pt x="424" y="576" on="1"/>
        <pt x="422" y="580" on="1"/>
        <pt x="438" y="644" on="1"/>
        <pt x="459" y="643" on="0"/>
        <pt x="480" y="642" on="1"/>
        <pt x="497" y="641" on="0"/>
        <pt x="536" y="641" on="0"/>
        <pt x="550" y="641" on="1"/>
        <pt x="569" y="641" on="0"/>
        <pt x="610" y="642" on="0"/>
        <pt x="627" y="644" on="1"/>
        <pt x="647" y="646" on="0"/>
        <pt x="667" y="648" on="1"/>
        <pt x="653" y="582" on="1"/>
        <pt x="615" y="574" on="0"/>
        <pt x="593" y="555" on="0"/>
        <pt x="591" y="532" on="1"/>
        <pt x="552" y="219" on="1"/>
        <pt x="539" y="118" on="0"/>
        <pt x="467" y="40" on="1"/>
        <pt x="433" y="4" on="0"/>
        <pt x="389" y="-48" on="0"/>
        <pt x="362" y="-87" on="0"/>
        <pt x="351" y="-115" on="0"/>
        <pt x="351" y="-128" on="1"/>
        <pt x="351" y="-146" on="0"/>
        <pt x="374" y="-169" on="0"/>
        <pt x="392" y="-169" on="1"/>
        <pt x="404" y="-169" on="0"/>
        <pt x="429" y="-162" on="0"/>
        <pt x="440" y="-157" on="1"/>
        <pt x="452" y="-152" on="0"/>
        <pt x="464" y="-145" on="1"/>
      </contour>
    </TTGlyph>
    <TTGlyph name="Uring" xMin="60" yMin="-12" xMax="667" yMax="864">
      <component glyphName="U" x="0" y="0" flags="0x4"/>
      <component glyphName="ring.cap" x="141" y="0" flags="0x4"/>
    </TTGlyph>
    <TTGlyph name="Utilde" xMin="60" yMin="-12" xMax="667" yMax="889">
      <component glyphName="U" x="0" y="0" flags="0x4"/>
      <component glyphName="tilde" x="152" y="175" flags="0x4"/>
    </TTGlyph>
    <TTGlyph name="V" xMin="37" yMin="-15" xMax="658" yMax="650">
      <contour>
        <pt x="104" y="516" on="1"/>
        <pt x="99" y="548" on="0"/>
        <pt x="69" y="576" on="0"/>
        <pt x="40" y="578" on="1"/>
        <pt x="37" y="585" on="1"/>
        <pt x="52" y="644" on="1"/>
        <pt x="75" y="643" on="0"/>
        <pt x="97" y="642" on="1"/>
        <pt x="116" y="641" on="0"/>
        <pt x="157" y="641" on="0"/>
        <pt x="173" y="641" on="1"/>
        <pt x="199" y="641" on="0"/>
        <pt x="258" y="643" on="0"/>
        <pt x="283" y="645" on="1"/>
        <pt x="312" y="647" on="0"/>
        <pt x="339" y="650" on="1"/>
        <pt x="342" y="642" on="1"/>
        <pt x="330" y="582" on="1"/>
        <pt x="305" y="580" on="0"/>
        <pt x="274" y="573" on="0"/>
        <pt x="257" y="563" on="0"/>
        <pt x="251" y="547" on="0"/>
        <pt x="251" y="535" on="1"/>
        <pt x="251" y="523" on="0"/>
        <pt x="254" y="475" on="0"/>
        <pt x="259" y="413" on="0"/>
        <pt x="266" y="343" on="0"/>
        <pt x="269" y="308" on="1"/>
        <pt x="277" y="226" on="0"/>
        <pt x="288" y="129" on="1"/>
        <pt x="303" y="129" on="1"/>
        <pt x="314" y="154" on="0"/>
        <pt x="348" y="232" on="0"/>
        <pt x="387" y="320" on="0"/>
        <pt x="425" y="411" on="0"/>
        <pt x="456" y="489" on="0"/>
        <pt x="475" y="543" on="0"/>
        <pt x="475" y="551" on="1"/>
        <pt x="475" y="565" on="0"/>
        <pt x="454" y="579" on="0"/>
        <pt x="430" y="579" on="1"/>
        <pt x="392" y="579" on="1"/>
        <pt x="388" y="586" on="1"/>
        <pt x="402" y="647" on="1"/>
        <pt x="426" y="645" on="0"/>
        <pt x="451" y="644" on="1"/>
        <pt x="472" y="642" on="0"/>
        <pt x="522" y="641" on="0"/>
        <pt x="545" y="641" on="1"/>
        <pt x="564" y="641" on="0"/>
        <pt x="604" y="641" on="0"/>
        <pt x="621" y="642" on="1"/>
        <pt x="640" y="643" on="0"/>
        <pt x="658" y="644" on="1"/>
        <pt x="643" y="579" on="1"/>
        <pt x="631" y="577" on="0"/>
        <pt x="615" y="571" on="0"/>
        <pt x="602" y="560" on="0"/>
        <pt x="591" y="542" on="0"/>
        <pt x="584" y="527" on="1"/>
        <pt x="349" y="5" on="1"/>
        <pt x="184" y="-15" on="1"/>
        <pt x="170" y="83" on="0"/>
        <pt x="156" y="179" on="1"/>
        <pt x="150" y="220" on="0"/>
        <pt x="137" y="308" on="0"/>
        <pt x="123" y="396" on="0"/>
        <pt x="110" y="480" on="0"/>
      </contour>
    </TTGlyph>
    <TTGlyph name="W" xMin="38" yMin="-15" xMax="983" yMax="650">
      <contour>
        <pt x="522" y="-15" on="1"/>
        <pt x="484" y="346" on="1"/>
        <pt x="474" y="346" on="1"/>
        <pt x="334" y="5" on="1"/>
        <pt x="174" y="-15" on="1"/>
        <pt x="162" y="83" on="0"/>
        <pt x="150" y="179" on="1"/>
        <pt x="145" y="220" on="0"/>
        <pt x="133" y="308" on="0"/>
        <pt x="121" y="396" on="0"/>
        <pt x="109" y="480" on="0"/>
        <pt x="103" y="516" on="1"/>
        <pt x="97" y="548" on="0"/>
        <pt x="69" y="576" on="0"/>
        <pt x="42" y="578" on="1"/>
        <pt x="38" y="585" on="1"/>
        <pt x="53" y="644" on="1"/>
        <pt x="75" y="643" on="0"/>
        <pt x="96" y="642" on="1"/>
        <pt x="114" y="641" on="0"/>
        <pt x="154" y="641" on="0"/>
        <pt x="169" y="641" on="1"/>
        <pt x="198" y="641" on="0"/>
        <pt x="256" y="643" on="0"/>
        <pt x="279" y="645" on="1"/>
        <pt x="305" y="647" on="0"/>
        <pt x="329" y="650" on="1"/>
        <pt x="333" y="642" on="1"/>
        <pt x="321" y="582" on="1"/>
        <pt x="297" y="580" on="0"/>
        <pt x="267" y="573" on="0"/>
        <pt x="249" y="563" on="0"/>
        <pt x="243" y="547" on="0"/>
        <pt x="243" y="535" on="1"/>
        <pt x="243" y="521" on="0"/>
        <pt x="246" y="472" on="0"/>
        <pt x="250" y="410" on="0"/>
        <pt x="257" y="340" on="0"/>
        <pt x="260" y="305" on="1"/>
        <pt x="268" y="223" on="0"/>
        <pt x="278" y="129" on="1"/>
        <pt x="292" y="129" on="1"/>
        <pt x="309" y="171" on="0"/>
        <pt x="349" y="266" on="0"/>
        <pt x="388" y="363" on="0"/>
        <pt x="426" y="454" on="0"/>
        <pt x="442" y="491" on="1"/>
        <pt x="444" y="516" on="0"/>
        <pt x="441" y="527" on="0"/>
        <pt x="439" y="533" on="1"/>
        <pt x="437" y="558" on="0"/>
        <pt x="408" y="577" on="0"/>
        <pt x="374" y="578" on="1"/>
        <pt x="370" y="585" on="1"/>
        <pt x="386" y="644" on="1"/>
        <pt x="411" y="643" on="0"/>
        <pt x="435" y="642" on="1"/>
        <pt x="455" y="641" on="0"/>
        <pt x="500" y="641" on="0"/>
        <pt x="517" y="641" on="1"/>
        <pt x="544" y="641" on="0"/>
        <pt x="601" y="643" on="0"/>
        <pt x="624" y="645" on="1"/>
        <pt x="651" y="647" on="0"/>
        <pt x="676" y="650" on="1"/>
        <pt x="680" y="642" on="1"/>
        <pt x="668" y="582" on="1"/>
        <pt x="643" y="580" on="0"/>
        <pt x="612" y="573" on="0"/>
        <pt x="595" y="563" on="0"/>
        <pt x="589" y="547" on="0"/>
        <pt x="589" y="535" on="1"/>
        <pt x="589" y="523" on="0"/>
        <pt x="592" y="474" on="0"/>
        <pt x="597" y="413" on="0"/>
        <pt x="604" y="342" on="0"/>
        <pt x="607" y="307" on="1"/>
        <pt x="615" y="225" on="0"/>
        <pt x="625" y="129" on="1"/>
        <pt x="639" y="129" on="1"/>
        <pt x="653" y="160" on="0"/>
        <pt x="688" y="245" on="0"/>
        <pt x="725" y="335" on="0"/>
        <pt x="761" y="424" on="0"/>
        <pt x="790" y="498" on="0"/>
        <pt x="807" y="548" on="0"/>
        <pt x="807" y="555" on="1"/>
        <pt x="807" y="569" on="0"/>
        <pt x="787" y="579" on="0"/>
        <pt x="763" y="579" on="1"/>
        <pt x="727" y="579" on="1"/>
        <pt x="723" y="586" on="1"/>
        <pt x="738" y="647" on="1"/>
        <pt x="761" y="645" on="0"/>
        <pt x="785" y="644" on="1"/>
        <pt x="805" y="642" on="0"/>
        <pt x="853" y="641" on="0"/>
        <pt x="876" y="641" on="1"/>
        <pt x="894" y="641" on="0"/>
        <pt x="931" y="641" on="0"/>
        <pt x="947" y="642" on="1"/>
        <pt x="965" y="643" on="0"/>
        <pt x="983" y="644" on="1"/>
        <pt x="969" y="579" on="1"/>
        <pt x="958" y="577" on="0"/>
        <pt x="942" y="571" on="0"/>
        <pt x="929" y="560" on="0"/>
        <pt x="918" y="541" on="0"/>
        <pt x="912" y="527" on="1"/>
        <pt x="681" y="5" on="1"/>
      </contour>
    </TTGlyph>
    <TTGlyph name="Wacute" xMin="38" yMin="-15" xMax="983" yMax="857">
      <component glyphName="W" x="0" y="0" flags="0x4"/>
      <component glyphName="acute.cap" x="325" y="0" flags="0x4"/>
    </TTGlyph>
    <TTGlyph name="Wcircumflex" xMin="38" yMin="-15" xMax="983" yMax="877">
      <component glyphName="W" x="0" y="0" flags="0x4"/>
      <component glyphName="circumflex.cap" x="293" y="0" flags="0x4"/>
    </TTGlyph>
    <TTGlyph name="Wdieresis" xMin="38" yMin="-15" xMax="983" yMax="834">
      <component glyphName="W" x="0" y="0" flags="0x4"/>
      <component glyphName="dieresis.cap" x="292" y="0" flags="0x4"/>
    </TTGlyph>
    <TTGlyph name="Wgrave" xMin="38" yMin="-15" xMax="983" yMax="857">
      <component glyphName="W" x="0" y="0" flags="0x4"/>
      <component glyphName="grave.cap" x="333" y="0" flags="0x4"/>
    </TTGlyph>
    <TTGlyph name="X" xMin="-20" yMin="-7" xMax="696" yMax="649">
      <contour>
        <pt x="260" y="330" on="1"/>
        <pt x="177" y="493" on="1"/>
        <pt x="155" y="535" on="0"/>
        <pt x="102" y="569" on="0"/>
        <pt x="63" y="576" on="1"/>
        <pt x="61" y="581" on="1"/>
        <pt x="76" y="644" on="1"/>
        <pt x="99" y="643" on="0"/>
        <pt x="125" y="642" on="1"/>
        <pt x="147" y="641" on="0"/>
        <pt x="202" y="641" on="0"/>
        <pt x="229" y="641" on="1"/>
        <pt x="252" y="641" on="0"/>
        <pt x="303" y="643" on="0"/>
        <pt x="326" y="645" on="1"/>
        <pt x="352" y="647" on="0"/>
        <pt x="379" y="649" on="1"/>
        <pt x="382" y="640" on="1"/>
        <pt x="370" y="583" on="1"/>
        <pt x="309" y="580" on="0"/>
        <pt x="309" y="551" on="1"/>
        <pt x="309" y="534" on="0"/>
        <pt x="346" y="455" on="0"/>
        <pt x="375" y="398" on="1"/>
        <pt x="390" y="419" on="0"/>
        <pt x="430" y="468" on="0"/>
        <pt x="465" y="514" on="0"/>
        <pt x="489" y="552" on="0"/>
        <pt x="489" y="561" on="1"/>
        <pt x="489" y="580" on="0"/>
        <pt x="445" y="583" on="1"/>
        <pt x="445" y="584" on="0"/>
        <pt x="444" y="586" on="0"/>
        <pt x="444" y="588" on="1"/>
        <pt x="456" y="645" on="1"/>
        <pt x="465" y="645" on="0"/>
        <pt x="496" y="644" on="0"/>
        <pt x="531" y="642" on="0"/>
        <pt x="568" y="641" on="0"/>
        <pt x="584" y="641" on="1"/>
        <pt x="601" y="641" on="0"/>
        <pt x="640" y="642" on="0"/>
        <pt x="656" y="643" on="1"/>
        <pt x="674" y="644" on="0"/>
        <pt x="693" y="645" on="1"/>
        <pt x="696" y="638" on="1"/>
        <pt x="683" y="578" on="1"/>
        <pt x="660" y="570" on="0"/>
        <pt x="625" y="553" on="0"/>
        <pt x="593" y="528" on="0"/>
        <pt x="562" y="495" on="0"/>
        <pt x="543" y="472" on="1"/>
        <pt x="421" y="322" on="1"/>
        <pt x="513" y="150" on="1"/>
        <pt x="536" y="108" on="0"/>
        <pt x="588" y="69" on="0"/>
        <pt x="629" y="66" on="1"/>
        <pt x="615" y="-2" on="1"/>
        <pt x="591" y="-2" on="0"/>
        <pt x="568" y="-1" on="1"/>
        <pt x="548" y="0" on="0"/>
        <pt x="506" y="1" on="0"/>
        <pt x="491" y="1" on="1"/>
        <pt x="472" y="1" on="0"/>
        <pt x="413" y="-1" on="0"/>
        <pt x="385" y="-3" on="1"/>
        <pt x="352" y="-5" on="0"/>
        <pt x="316" y="-7" on="1"/>
        <pt x="312" y="0" on="1"/>
        <pt x="324" y="59" on="1"/>
        <pt x="380" y="63" on="0"/>
        <pt x="380" y="91" on="1"/>
        <pt x="380" y="104" on="0"/>
        <pt x="369" y="124" on="1"/>
        <pt x="304" y="254" on="1"/>
        <pt x="228" y="159" on="1"/>
        <pt x="204" y="130" on="0"/>
        <pt x="187" y="100" on="0"/>
        <pt x="187" y="88" on="1"/>
        <pt x="187" y="64" on="0"/>
        <pt x="230" y="61" on="1"/>
        <pt x="233" y="55" on="1"/>
        <pt x="220" y="-6" on="1"/>
        <pt x="194" y="-5" on="0"/>
        <pt x="170" y="-3" on="1"/>
        <pt x="150" y="-1" on="0"/>
        <pt x="107" y="1" on="0"/>
        <pt x="94" y="1" on="1"/>
        <pt x="80" y="1" on="0"/>
        <pt x="42" y="-1" on="0"/>
        <pt x="25" y="-2" on="1"/>
        <pt x="5" y="-3" on="0"/>
        <pt x="-17" y="-4" on="1"/>
        <pt x="-20" y="6" on="1"/>
        <pt x="-8" y="65" on="1"/>
        <pt x="26" y="77" on="0"/>
        <pt x="106" y="150" on="0"/>
        <pt x="148" y="199" on="1"/>
      </contour>
    </TTGlyph>
    <TTGlyph name="Y" xMin="34" yMin="-11" xMax="639" yMax="649">
      <contour>
        <pt x="261" y="551" on="1"/>
        <pt x="261" y="544" on="0"/>
        <pt x="268" y="511" on="0"/>
        <pt x="280" y="469" on="0"/>
        <pt x="293" y="422" on="0"/>
        <pt x="306" y="381" on="0"/>
        <pt x="315" y="349" on="0"/>
        <pt x="317" y="344" on="1"/>
        <pt x="325" y="344" on="1"/>
        <pt x="422" y="512" on="1"/>
        <pt x="441" y="544" on="0"/>
        <pt x="441" y="562" on="1"/>
        <pt x="441" y="572" on="0"/>
        <pt x="420" y="581" on="0"/>
        <pt x="395" y="583" on="1"/>
        <pt x="393" y="588" on="1"/>
        <pt x="408" y="645" on="1"/>
        <pt x="417" y="645" on="0"/>
        <pt x="448" y="644" on="0"/>
        <pt x="483" y="642" on="0"/>
        <pt x="520" y="641" on="0"/>
        <pt x="536" y="641" on="1"/>
        <pt x="553" y="641" on="0"/>
        <pt x="587" y="642" on="0"/>
        <pt x="602" y="643" on="1"/>
        <pt x="619" y="644" on="0"/>
        <pt x="636" y="645" on="1"/>
        <pt x="639" y="638" on="1"/>
        <pt x="624" y="578" on="1"/>
        <pt x="603" y="571" on="0"/>
        <pt x="570" y="551" on="0"/>
        <pt x="540" y="521" on="0"/>
        <pt x="510" y="479" on="0"/>
        <pt x="492" y="450" on="1"/>
        <pt x="378" y="271" on="1"/>
        <pt x="369" y="257" on="0"/>
        <pt x="359" y="231" on="0"/>
        <pt x="352" y="200" on="0"/>
        <pt x="347" y="159" on="0"/>
        <pt x="343" y="131" on="1"/>
        <pt x="338" y="94" on="0"/>
        <pt x="353" y="65" on="0"/>
        <pt x="380" y="65" on="1"/>
        <pt x="388" y="65" on="0"/>
        <pt x="405" y="65" on="0"/>
        <pt x="412" y="66" on="1"/>
        <pt x="420" y="67" on="0"/>
        <pt x="428" y="68" on="1"/>
        <pt x="431" y="63" on="1"/>
        <pt x="414" y="-4" on="1"/>
        <pt x="382" y="-3" on="0"/>
        <pt x="352" y="-2" on="1"/>
        <pt x="326" y="-1" on="0"/>
        <pt x="273" y="0" on="0"/>
        <pt x="255" y="0" on="1"/>
        <pt x="234" y="0" on="0"/>
        <pt x="180" y="-4" on="0"/>
        <pt x="157" y="-6" on="1"/>
        <pt x="129" y="-9" on="0"/>
        <pt x="101" y="-11" on="1"/>
        <pt x="116" y="56" on="1"/>
        <pt x="145" y="60" on="0"/>
        <pt x="181" y="72" on="0"/>
        <pt x="202" y="93" on="0"/>
        <pt x="212" y="126" on="0"/>
        <pt x="215" y="151" on="1"/>
        <pt x="219" y="182" on="1"/>
        <pt x="222" y="208" on="0"/>
        <pt x="217" y="252" on="0"/>
        <pt x="204" y="285" on="1"/>
        <pt x="133" y="475" on="1"/>
        <pt x="125" y="498" on="0"/>
        <pt x="109" y="532" on="0"/>
        <pt x="88" y="556" on="0"/>
        <pt x="59" y="571" on="0"/>
        <pt x="37" y="576" on="1"/>
        <pt x="34" y="581" on="1"/>
        <pt x="50" y="644" on="1"/>
        <pt x="75" y="643" on="0"/>
        <pt x="98" y="642" on="1"/>
        <pt x="118" y="641" on="0"/>
        <pt x="160" y="641" on="0"/>
        <pt x="174" y="641" on="1"/>
        <pt x="193" y="641" on="0"/>
        <pt x="246" y="643" on="0"/>
        <pt x="271" y="645" on="1"/>
        <pt x="300" y="647" on="0"/>
        <pt x="330" y="649" on="1"/>
        <pt x="334" y="640" on="1"/>
        <pt x="321" y="583" on="1"/>
        <pt x="285" y="581" on="0"/>
        <pt x="261" y="567" on="0"/>
      </contour>
    </TTGlyph>
    <TTGlyph name="Yacute" xMin="34" yMin="-11" xMax="639" yMax="857">
      <component glyphName="Y" x="0" y="0" flags="0x4"/>
      <component glyphName="acute.cap" x="153" y="0" flags="0x4"/>
    </TTGlyph>
    <TTGlyph name="Ycircumflex" xMin="34" yMin="-11" xMax="639" yMax="877">
      <component glyphName="Y" x="0" y="0" flags="0x4"/>
      <component glyphName="circumflex.cap" x="120" y="0" flags="0x4"/>
    </TTGlyph>
    <TTGlyph name="Ydieresis" xMin="34" yMin="-11" xMax="639" yMax="834">
      <component glyphName="Y" x="0" y="0" flags="0x4"/>
      <component glyphName="dieresis.cap" x="120" y="0" flags="0x4"/>
    </TTGlyph>
    <TTGlyph name="Ygrave" xMin="34" yMin="-11" xMax="639" yMax="857">
      <component glyphName="Y" x="0" y="0" flags="0x4"/>
      <component glyphName="grave.cap" x="155" y="0" flags="0x4"/>
    </TTGlyph>
    <TTGlyph name="Z" xMin="-5" yMin="-5" xMax="586" yMax="654">
      <contour>
        <pt x="468" y="-3" on="1"/>
        <pt x="88" y="3" on="1"/>
        <pt x="13" y="-5" on="1"/>
        <pt x="-5" y="39" on="1"/>
        <pt x="398" y="570" on="1"/>
        <pt x="275" y="562" on="1"/>
        <pt x="244" y="560" on="0"/>
        <pt x="203" y="546" on="0"/>
        <pt x="175" y="517" on="0"/>
        <pt x="157" y="470" on="0"/>
        <pt x="150" y="435" on="1"/>
        <pt x="66" y="429" on="1"/>
        <pt x="74" y="465" on="0"/>
        <pt x="82" y="502" on="1"/>
        <pt x="89" y="534" on="0"/>
        <pt x="103" y="609" on="0"/>
        <pt x="108" y="644" on="1"/>
        <pt x="120" y="654" on="1"/>
        <pt x="291" y="643" on="1"/>
        <pt x="574" y="639" on="1"/>
        <pt x="586" y="599" on="1"/>
        <pt x="514" y="513" on="0"/>
        <pt x="383" y="348" on="0"/>
        <pt x="275" y="207" on="0"/>
        <pt x="195" y="99" on="0"/>
        <pt x="174" y="71" on="1"/>
        <pt x="325" y="82" on="1"/>
        <pt x="373" y="86" on="0"/>
        <pt x="434" y="158" on="0"/>
        <pt x="455" y="237" on="1"/>
        <pt x="539" y="244" on="1"/>
        <pt x="529" y="206" on="0"/>
        <pt x="519" y="166" on="1"/>
        <pt x="511" y="132" on="0"/>
        <pt x="492" y="52" on="0"/>
        <pt x="487" y="16" on="1"/>
      </contour>
    </TTGlyph>
    <TTGlyph name="Zacute" xMin="-5" yMin="-5" xMax="586" yMax="857">
      <component glyphName="Z" x="0" y="0" flags="0x4"/>
      <component glyphName="acute.cap" x="140" y="0" flags="0x4"/>
    </TTGlyph>
    <TTGlyph name="Zcaron" xMin="-5" yMin="-5" xMax="586" yMax="865">
      <component glyphName="Z" x="0" y="0" flags="0x4"/>
      <component glyphName="caron.cap" x="112" y="0" flags="0x4"/>
    </TTGlyph>
    <TTGlyph name="Zdotaccent" xMin="-5" yMin="-5" xMax="586" yMax="854">
      <component glyphName="Z" x="0" y="0" flags="0x4"/>
      <component glyphName="dotaccent.cap" x="113" y="0" flags="0x4"/>
    </TTGlyph>
    <TTGlyph name="a" xMin="21" yMin="-12" xMax="487" yMax="477">
      <contour>
        <pt x="388" y="105" on="1"/>
        <pt x="391" y="105" on="0"/>
        <pt x="399" y="109" on="0"/>
        <pt x="413" y="120" on="0"/>
        <pt x="436" y="139" on="0"/>
        <pt x="454" y="155" on="1"/>
        <pt x="471" y="153" on="1"/>
        <pt x="487" y="118" on="1"/>
        <pt x="452" y="81" on="0"/>
        <pt x="399" y="31" on="0"/>
        <pt x="359" y="1" on="0"/>
        <pt x="327" y="-12" on="0"/>
        <pt x="313" y="-12" on="1"/>
        <pt x="270" y="-12" on="0"/>
        <pt x="270" y="26" on="1"/>
        <pt x="270" y="33" on="0"/>
        <pt x="278" y="76" on="0"/>
        <pt x="289" y="127" on="0"/>
        <pt x="300" y="178" on="0"/>
        <pt x="304" y="193" on="1"/>
        <pt x="296" y="194" on="1"/>
        <pt x="251" y="113" on="0"/>
        <pt x="175" y="16" on="0"/>
        <pt x="135" y="-12" on="1"/>
        <pt x="81" y="-12" on="0"/>
        <pt x="21" y="65" on="0"/>
        <pt x="21" y="134" on="1"/>
        <pt x="21" y="194" on="0"/>
        <pt x="63" y="313" on="0"/>
        <pt x="132" y="408" on="0"/>
        <pt x="218" y="466" on="0"/>
        <pt x="262" y="466" on="1"/>
        <pt x="349" y="448" on="1"/>
        <pt x="356" y="470" on="1"/>
        <pt x="367" y="477" on="1"/>
        <pt x="448" y="463" on="1"/>
        <pt x="456" y="446" on="1"/>
        <pt x="442" y="393" on="0"/>
        <pt x="429" y="337" on="1"/>
        <pt x="418" y="288" on="0"/>
        <pt x="393" y="169" on="0"/>
        <pt x="384" y="109" on="1"/>
      </contour>
      <contour>
        <pt x="167" y="105" on="1"/>
        <pt x="178" y="105" on="0"/>
        <pt x="214" y="147" on="0"/>
        <pt x="256" y="217" on="0"/>
        <pt x="300" y="308" on="0"/>
        <pt x="319" y="358" on="1"/>
        <pt x="296" y="372" on="0"/>
        <pt x="250" y="387" on="0"/>
        <pt x="231" y="387" on="1"/>
        <pt x="215" y="387" on="0"/>
        <pt x="184" y="353" on="0"/>
        <pt x="160" y="297" on="0"/>
        <pt x="145" y="226" on="0"/>
        <pt x="145" y="190" on="1"/>
        <pt x="145" y="153" on="0"/>
        <pt x="158" y="105" on="0"/>
      </contour>
    </TTGlyph>
    <TTGlyph name="a.sups" xMin="19" yMin="331" xMax="347" yMax="651">
      <contour>
        <pt x="282" y="421" on="1"/>
        <pt x="286" y="421" on="0"/>
        <pt x="301" y="433" on="0"/>
        <pt x="322" y="451" on="1"/>
        <pt x="335" y="450" on="1"/>
        <pt x="347" y="423" on="1"/>
        <pt x="322" y="396" on="0"/>
        <pt x="285" y="361" on="0"/>
        <pt x="256" y="340" on="0"/>
        <pt x="233" y="331" on="0"/>
        <pt x="221" y="331" on="1"/>
        <pt x="190" y="331" on="0"/>
        <pt x="190" y="360" on="1"/>
        <pt x="190" y="364" on="0"/>
        <pt x="194" y="384" on="0"/>
        <pt x="200" y="411" on="0"/>
        <pt x="207" y="441" on="0"/>
        <pt x="210" y="455" on="1"/>
        <pt x="204" y="456" on="1"/>
        <pt x="175" y="406" on="0"/>
        <pt x="130" y="348" on="0"/>
        <pt x="106" y="331" on="1"/>
        <pt x="65" y="331" on="0"/>
        <pt x="19" y="383" on="0"/>
        <pt x="19" y="430" on="1"/>
        <pt x="19" y="469" on="0"/>
        <pt x="48" y="545" on="0"/>
        <pt x="94" y="606" on="0"/>
        <pt x="152" y="643" on="0"/>
        <pt x="182" y="643" on="1"/>
        <pt x="236" y="632" on="1"/>
        <pt x="240" y="646" on="1"/>
        <pt x="250" y="651" on="1"/>
        <pt x="318" y="643" on="1"/>
        <pt x="323" y="630" on="1"/>
        <pt x="315" y="597" on="0"/>
        <pt x="307" y="562" on="1"/>
        <pt x="300" y="532" on="0"/>
        <pt x="285" y="458" on="0"/>
        <pt x="280" y="423" on="1"/>
      </contour>
      <contour>
        <pt x="130" y="418" on="1"/>
        <pt x="137" y="418" on="0"/>
        <pt x="158" y="443" on="0"/>
        <pt x="182" y="485" on="0"/>
        <pt x="207" y="538" on="0"/>
        <pt x="217" y="567" on="1"/>
        <pt x="203" y="576" on="0"/>
        <pt x="173" y="585" on="0"/>
        <pt x="162" y="585" on="1"/>
        <pt x="154" y="585" on="0"/>
        <pt x="138" y="564" on="0"/>
        <pt x="126" y="531" on="0"/>
        <pt x="118" y="490" on="0"/>
        <pt x="118" y="469" on="1"/>
        <pt x="118" y="446" on="0"/>
        <pt x="125" y="418" on="0"/>
      </contour>
    </TTGlyph>
    <TTGlyph name="aacute" xMin="21" yMin="-12" xMax="487" yMax="737">
      <component glyphName="a" x="0" y="0" flags="0x204"/>
      <component glyphName="acute" x="76" y="0" flags="0x4"/>
    </TTGlyph>
    <TTGlyph name="abreve" xMin="21" yMin="-12" xMax="487" yMax="707">
      <component glyphName="a" x="0" y="0" flags="0x204"/>
      <component glyphName="breve" x="58" y="-3" flags="0x4"/>
    </TTGlyph>
    <TTGlyph name="acircumflex" xMin="21" yMin="-12" xMax="487" yMax="730">
      <component glyphName="a" x="0" y="0" flags="0x204"/>
      <component glyphName="circumflex" x="60" y="0" flags="0x4"/>
    </TTGlyph>
    <TTGlyph name="acute" xMin="121" yMin="523" xMax="356" yMax="737">
      <contour>
        <pt x="355" y="652" on="1"/>
        <pt x="327" y="634" on="0"/>
        <pt x="295" y="613" on="1"/>
        <pt x="268" y="595" on="0"/>
        <pt x="201" y="549" on="0"/>
        <pt x="166" y="523" on="1"/>
        <pt x="151" y="527" on="1"/>
        <pt x="121" y="566" on="1"/>
        <pt x="152" y="596" on="0"/>
        <pt x="212" y="656" on="0"/>
        <pt x="236" y="681" on="1"/>
        <pt x="264" y="710" on="0"/>
        <pt x="289" y="737" on="1"/>
        <pt x="302" y="736" on="1"/>
        <pt x="356" y="666" on="1"/>
      </contour>
    </TTGlyph>
    <TTGlyph name="acute.cap" xMin="113" yMin="697" xMax="374" yMax="857">
      <contour>
        <pt x="369" y="762" on="1"/>
        <pt x="335" y="754" on="0"/>
        <pt x="297" y="743" on="1"/>
        <pt x="265" y="734" on="0"/>
        <pt x="183" y="711" on="0"/>
        <pt x="140" y="697" on="1"/>
        <pt x="127" y="706" on="1"/>
        <pt x="113" y="753" on="1"/>
        <pt x="154" y="770" on="0"/>
        <pt x="233" y="808" on="0"/>
        <pt x="265" y="823" on="1"/>
        <pt x="302" y="841" on="0"/>
        <pt x="336" y="857" on="1"/>
        <pt x="349" y="852" on="1"/>
        <pt x="374" y="775" on="1"/>
      </contour>
    </TTGlyph>
    <TTGlyph name="adieresis" xMin="21" yMin="-12" xMax="487" yMax="692">
      <component glyphName="a" x="0" y="0" flags="0x204"/>
      <component glyphName="dieresis" x="68" y="1" flags="0x4"/>
    </TTGlyph>
    <TTGlyph name="ae" xMin="21" yMin="-12" xMax="627" yMax="473">
      <contour>
        <pt x="627" y="379" on="1"/>
        <pt x="627" y="346" on="0"/>
        <pt x="600" y="291" on="0"/>
        <pt x="542" y="245" on="0"/>
        <pt x="450" y="204" on="0"/>
        <pt x="384" y="183" on="1"/>
        <pt x="384" y="138" on="0"/>
        <pt x="417" y="85" on="0"/>
        <pt x="447" y="85" on="1"/>
        <pt x="475" y="85" on="0"/>
        <pt x="527" y="126" on="0"/>
        <pt x="547" y="164" on="1"/>
        <pt x="565" y="162" on="1"/>
        <pt x="598" y="122" on="1"/>
        <pt x="584" y="93" on="0"/>
        <pt x="542" y="44" on="0"/>
        <pt x="490" y="8" on="0"/>
        <pt x="433" y="-12" on="0"/>
        <pt x="405" y="-12" on="1"/>
        <pt x="345" y="-12" on="0"/>
        <pt x="272" y="71" on="0"/>
        <pt x="267" y="143" on="1"/>
        <pt x="232" y="85" on="0"/>
        <pt x="168" y="11" on="0"/>
        <pt x="135" y="-12" on="1"/>
        <pt x="81" y="-12" on="0"/>
        <pt x="21" y="65" on="0"/>
        <pt x="21" y="134" on="1"/>
        <pt x="21" y="194" on="0"/>
        <pt x="63" y="313" on="0"/>
        <pt x="132" y="408" on="0"/>
        <pt x="218" y="466" on="0"/>
        <pt x="262" y="466" on="1"/>
        <pt x="416" y="442" on="1"/>
        <pt x="466" y="473" on="0"/>
        <pt x="520" y="473" on="1"/>
        <pt x="571" y="473" on="0"/>
        <pt x="627" y="424" on="0"/>
      </contour>
      <contour>
        <pt x="167" y="105" on="1"/>
        <pt x="178" y="105" on="0"/>
        <pt x="214" y="148" on="0"/>
        <pt x="256" y="221" on="0"/>
        <pt x="300" y="316" on="0"/>
        <pt x="319" y="368" on="1"/>
        <pt x="296" y="377" on="0"/>
        <pt x="250" y="387" on="0"/>
        <pt x="231" y="387" on="1"/>
        <pt x="215" y="387" on="0"/>
        <pt x="184" y="353" on="0"/>
        <pt x="160" y="297" on="0"/>
        <pt x="145" y="226" on="0"/>
        <pt x="145" y="190" on="1"/>
        <pt x="145" y="153" on="0"/>
        <pt x="158" y="105" on="0"/>
      </contour>
      <contour>
        <pt x="485" y="385" on="1"/>
        <pt x="452" y="385" on="0"/>
        <pt x="397" y="306" on="0"/>
        <pt x="387" y="244" on="1"/>
        <pt x="456" y="267" on="0"/>
        <pt x="518" y="318" on="0"/>
        <pt x="518" y="350" on="1"/>
        <pt x="518" y="385" on="0"/>
      </contour>
    </TTGlyph>
    <TTGlyph name="aeacute" xMin="21" yMin="-12" xMax="627" yMax="737">
      <component glyphName="ae" x="0" y="0" flags="0x204"/>
      <component glyphName="acute" x="182" y="0" flags="0x4"/>
    </TTGlyph>
    <TTGlyph name="agrave" xMin="21" yMin="-12" xMax="487" yMax="737">
      <component glyphName="a" x="0" y="0" flags="0x204"/>
      <component glyphName="grave" x="85" y="1" flags="0x4"/>
    </TTGlyph>
    <TTGlyph name="amacron" xMin="21" yMin="-12" xMax="487" yMax="673">
      <component glyphName="a" x="0" y="0" flags="0x204"/>
      <component glyphName="macron" x="51" y="1" flags="0x4"/>
    </TTGlyph>
    <TTGlyph name="ampersand" xMin="31" yMin="-12" xMax="687" yMax="654">
      <contour>
        <pt x="198" y="468" on="1"/>
        <pt x="198" y="423" on="0"/>
        <pt x="255" y="367" on="0"/>
        <pt x="301" y="367" on="1"/>
        <pt x="549" y="386" on="1"/>
        <pt x="582" y="388" on="0"/>
        <pt x="632" y="412" on="0"/>
        <pt x="665" y="441" on="1"/>
        <pt x="687" y="425" on="1"/>
        <pt x="646" y="344" on="1"/>
        <pt x="632" y="316" on="0"/>
        <pt x="596" y="295" on="0"/>
        <pt x="563" y="295" on="1"/>
        <pt x="492" y="295" on="1"/>
        <pt x="487" y="288" on="1"/>
        <pt x="498" y="277" on="0"/>
        <pt x="510" y="240" on="0"/>
        <pt x="510" y="220" on="1"/>
        <pt x="510" y="175" on="0"/>
        <pt x="465" y="91" on="0"/>
        <pt x="389" y="26" on="0"/>
        <pt x="291" y="-12" on="0"/>
        <pt x="238" y="-12" on="1"/>
        <pt x="144" y="-12" on="0"/>
        <pt x="31" y="74" on="0"/>
        <pt x="31" y="148" on="1"/>
        <pt x="31" y="204" on="0"/>
        <pt x="112" y="296" on="0"/>
        <pt x="181" y="319" on="1"/>
        <pt x="136" y="341" on="0"/>
        <pt x="89" y="414" on="0"/>
        <pt x="89" y="461" on="1"/>
        <pt x="89" y="500" on="0"/>
        <pt x="128" y="570" on="0"/>
        <pt x="193" y="623" on="0"/>
        <pt x="278" y="654" on="0"/>
        <pt x="325" y="654" on="1"/>
        <pt x="359" y="654" on="0"/>
        <pt x="447" y="640" on="0"/>
        <pt x="485" y="629" on="1"/>
        <pt x="491" y="619" on="1"/>
        <pt x="485" y="602" on="0"/>
        <pt x="471" y="559" on="0"/>
        <pt x="460" y="517" on="0"/>
        <pt x="451" y="478" on="0"/>
        <pt x="449" y="465" on="1"/>
        <pt x="369" y="460" on="1"/>
        <pt x="370" y="469" on="0"/>
        <pt x="372" y="478" on="1"/>
        <pt x="374" y="486" on="0"/>
        <pt x="376" y="501" on="0"/>
        <pt x="376" y="506" on="1"/>
        <pt x="376" y="534" on="0"/>
        <pt x="340" y="565" on="0"/>
        <pt x="306" y="565" on="1"/>
        <pt x="256" y="565" on="0"/>
        <pt x="198" y="513" on="0"/>
      </contour>
      <contour>
        <pt x="411" y="213" on="1"/>
        <pt x="411" y="249" on="0"/>
        <pt x="382" y="295" on="0"/>
        <pt x="359" y="295" on="1"/>
        <pt x="249" y="295" on="1"/>
        <pt x="196" y="269" on="0"/>
        <pt x="151" y="213" on="0"/>
        <pt x="151" y="175" on="1"/>
        <pt x="151" y="130" on="0"/>
        <pt x="211" y="73" on="0"/>
        <pt x="260" y="73" on="1"/>
        <pt x="293" y="73" on="0"/>
        <pt x="348" y="93" on="0"/>
        <pt x="389" y="130" on="0"/>
        <pt x="411" y="182" on="0"/>
      </contour>
    </TTGlyph>
    <TTGlyph name="aogonek" xMin="21" yMin="-241" xMax="489" yMax="477">
      <contour>
        <pt x="422" y="-174" on="1"/>
        <pt x="405" y="-188" on="0"/>
        <pt x="387" y="-201" on="1"/>
        <pt x="371" y="-212" on="0"/>
        <pt x="334" y="-235" on="0"/>
        <pt x="315" y="-241" on="1"/>
        <pt x="266" y="-241" on="0"/>
        <pt x="209" y="-198" on="0"/>
        <pt x="209" y="-159" on="1"/>
        <pt x="209" y="-126" on="0"/>
        <pt x="256" y="-58" on="0"/>
        <pt x="301" y="-11" on="1"/>
        <pt x="270" y="-7" on="0"/>
        <pt x="270" y="26" on="1"/>
        <pt x="270" y="33" on="0"/>
        <pt x="278" y="76" on="0"/>
        <pt x="289" y="127" on="0"/>
        <pt x="300" y="178" on="0"/>
        <pt x="304" y="193" on="1"/>
        <pt x="296" y="194" on="1"/>
        <pt x="251" y="113" on="0"/>
        <pt x="175" y="16" on="0"/>
        <pt x="135" y="-12" on="1"/>
        <pt x="81" y="-12" on="0"/>
        <pt x="21" y="65" on="0"/>
        <pt x="21" y="134" on="1"/>
        <pt x="21" y="194" on="0"/>
        <pt x="63" y="313" on="0"/>
        <pt x="132" y="408" on="0"/>
        <pt x="218" y="466" on="0"/>
        <pt x="262" y="466" on="1"/>
        <pt x="349" y="448" on="1"/>
        <pt x="356" y="470" on="1"/>
        <pt x="367" y="477" on="1"/>
        <pt x="448" y="463" on="1"/>
        <pt x="456" y="446" on="1"/>
        <pt x="442" y="393" on="0"/>
        <pt x="429" y="337" on="1"/>
        <pt x="418" y="288" on="0"/>
        <pt x="393" y="169" on="0"/>
        <pt x="384" y="109" on="1"/>
        <pt x="388" y="105" on="1"/>
        <pt x="391" y="105" on="0"/>
        <pt x="399" y="109" on="0"/>
        <pt x="413" y="120" on="0"/>
        <pt x="436" y="140" on="0"/>
        <pt x="454" y="155" on="1"/>
        <pt x="471" y="153" on="1"/>
        <pt x="489" y="115" on="1"/>
        <pt x="434" y="64" on="0"/>
        <pt x="359" y="-11" on="0"/>
        <pt x="314" y="-66" on="0"/>
        <pt x="294" y="-108" on="0"/>
        <pt x="294" y="-127" on="1"/>
        <pt x="294" y="-145" on="0"/>
        <pt x="316" y="-169" on="0"/>
        <pt x="335" y="-169" on="1"/>
        <pt x="347" y="-169" on="0"/>
        <pt x="372" y="-162" on="0"/>
        <pt x="383" y="-157" on="1"/>
        <pt x="395" y="-152" on="0"/>
        <pt x="407" y="-145" on="1"/>
      </contour>
      <contour>
        <pt x="167" y="105" on="1"/>
        <pt x="178" y="105" on="0"/>
        <pt x="214" y="147" on="0"/>
        <pt x="256" y="217" on="0"/>
        <pt x="300" y="308" on="0"/>
        <pt x="319" y="358" on="1"/>
        <pt x="296" y="372" on="0"/>
        <pt x="250" y="387" on="0"/>
        <pt x="231" y="387" on="1"/>
        <pt x="215" y="387" on="0"/>
        <pt x="184" y="353" on="0"/>
        <pt x="160" y="297" on="0"/>
        <pt x="145" y="226" on="0"/>
        <pt x="145" y="190" on="1"/>
        <pt x="145" y="154" on="0"/>
        <pt x="158" y="105" on="0"/>
      </contour>
    </TTGlyph>
    <TTGlyph name="approxequal" xMin="12" yMin="78" xMax="484" yMax="430">
      <contour>
        <pt x="64" y="259" on="1"/>
        <pt x="34" y="296" on="1"/>
        <pt x="35" y="307" on="1"/>
        <pt x="137" y="408" on="1"/>
        <pt x="156" y="412" on="1"/>
        <pt x="174" y="412" on="0"/>
        <pt x="231" y="400" on="0"/>
        <pt x="292" y="385" on="0"/>
        <pt x="347" y="373" on="0"/>
        <pt x="362" y="373" on="1"/>
        <pt x="372" y="373" on="0"/>
        <pt x="399" y="390" on="0"/>
        <pt x="412" y="401" on="1"/>
        <pt x="427" y="413" on="0"/>
        <pt x="442" y="430" on="1"/>
        <pt x="453" y="430" on="1"/>
        <pt x="484" y="392" on="1"/>
        <pt x="482" y="382" on="1"/>
        <pt x="381" y="280" on="1"/>
        <pt x="362" y="276" on="1"/>
        <pt x="344" y="276" on="0"/>
        <pt x="287" y="288" on="0"/>
        <pt x="226" y="303" on="0"/>
        <pt x="171" y="315" on="0"/>
        <pt x="156" y="315" on="1"/>
        <pt x="145" y="315" on="0"/>
        <pt x="118" y="298" on="0"/>
        <pt x="105" y="287" on="1"/>
        <pt x="90" y="275" on="0"/>
        <pt x="75" y="259" on="1"/>
      </contour>
      <contour>
        <pt x="42" y="78" on="1"/>
        <pt x="12" y="116" on="1"/>
        <pt x="13" y="126" on="1"/>
        <pt x="115" y="228" on="1"/>
        <pt x="134" y="232" on="1"/>
        <pt x="152" y="232" on="0"/>
        <pt x="209" y="220" on="0"/>
        <pt x="270" y="205" on="0"/>
        <pt x="325" y="193" on="0"/>
        <pt x="340" y="193" on="1"/>
        <pt x="350" y="193" on="0"/>
        <pt x="377" y="210" on="0"/>
        <pt x="390" y="221" on="1"/>
        <pt x="405" y="233" on="0"/>
        <pt x="420" y="250" on="1"/>
        <pt x="431" y="250" on="1"/>
        <pt x="461" y="212" on="1"/>
        <pt x="460" y="202" on="1"/>
        <pt x="359" y="100" on="1"/>
        <pt x="339" y="96" on="1"/>
        <pt x="321" y="96" on="0"/>
        <pt x="264" y="108" on="0"/>
        <pt x="203" y="123" on="0"/>
        <pt x="148" y="135" on="0"/>
        <pt x="133" y="135" on="1"/>
        <pt x="123" y="135" on="0"/>
        <pt x="96" y="117" on="0"/>
        <pt x="83" y="106" on="1"/>
        <pt x="68" y="94" on="0"/>
        <pt x="53" y="78" on="1"/>
      </contour>
    </TTGlyph>
    <TTGlyph name="aring" xMin="21" yMin="-12" xMax="487" yMax="729">
      <component glyphName="a" x="0" y="0" flags="0x204"/>
      <component glyphName="ring" x="40" y="0" flags="0x4"/>
    </TTGlyph>
    <TTGlyph name="aringacute" xMin="21" yMin="-12" xMax="487" yMax="795">
      <contour>
        <pt x="388" y="105" on="1"/>
        <pt x="391" y="105" on="0"/>
        <pt x="399" y="109" on="0"/>
        <pt x="413" y="120" on="0"/>
        <pt x="436" y="139" on="0"/>
        <pt x="454" y="155" on="1"/>
        <pt x="471" y="153" on="1"/>
        <pt x="487" y="118" on="1"/>
        <pt x="452" y="81" on="0"/>
        <pt x="399" y="31" on="0"/>
        <pt x="359" y="1" on="0"/>
        <pt x="327" y="-12" on="0"/>
        <pt x="313" y="-12" on="1"/>
        <pt x="270" y="-12" on="0"/>
        <pt x="270" y="26" on="1"/>
        <pt x="270" y="33" on="0"/>
        <pt x="278" y="76" on="0"/>
        <pt x="289" y="127" on="0"/>
        <pt x="300" y="178" on="0"/>
        <pt x="304" y="193" on="1"/>
        <pt x="296" y="194" on="1"/>
        <pt x="251" y="113" on="0"/>
        <pt x="175" y="16" on="0"/>
        <pt x="135" y="-12" on="1"/>
        <pt x="81" y="-12" on="0"/>
        <pt x="21" y="65" on="0"/>
        <pt x="21" y="134" on="1"/>
        <pt x="21" y="194" on="0"/>
        <pt x="63" y="313" on="0"/>
        <pt x="132" y="408" on="0"/>
        <pt x="218" y="466" on="0"/>
        <pt x="262" y="466" on="1"/>
        <pt x="349" y="448" on="1"/>
        <pt x="356" y="470" on="1"/>
        <pt x="367" y="477" on="1"/>
        <pt x="448" y="463" on="1"/>
        <pt x="456" y="446" on="1"/>
        <pt x="442" y="393" on="0"/>
        <pt x="429" y="337" on="1"/>
        <pt x="418" y="288" on="0"/>
        <pt x="393" y="169" on="0"/>
        <pt x="384" y="109" on="1"/>
      </contour>
      <contour>
        <pt x="167" y="105" on="1"/>
        <pt x="178" y="105" on="0"/>
        <pt x="214" y="147" on="0"/>
        <pt x="256" y="217" on="0"/>
        <pt x="300" y="308" on="0"/>
        <pt x="319" y="358" on="1"/>
        <pt x="296" y="372" on="0"/>
        <pt x="250" y="387" on="0"/>
        <pt x="231" y="387" on="1"/>
        <pt x="215" y="387" on="0"/>
        <pt x="184" y="353" on="0"/>
        <pt x="160" y="297" on="0"/>
        <pt x="145" y="226" on="0"/>
        <pt x="145" y="190" on="1"/>
        <pt x="145" y="153" on="0"/>
        <pt x="158" y="105" on="0"/>
      </contour>
      <contour>
        <pt x="300" y="536" on="1"/>
        <pt x="305" y="536" on="0"/>
        <pt x="319" y="539" on="0"/>
        <pt x="331" y="547" on="0"/>
        <pt x="340" y="562" on="0"/>
        <pt x="340" y="574" on="1"/>
        <pt x="340" y="606" on="0"/>
        <pt x="304" y="606" on="1"/>
        <pt x="286" y="606" on="0"/>
        <pt x="266" y="586" on="0"/>
        <pt x="266" y="569" on="1"/>
        <pt x="266" y="551" on="0"/>
        <pt x="289" y="536" on="0"/>
      </contour>
      <contour>
        <pt x="289" y="488" on="1"/>
        <pt x="255" y="488" on="0"/>
        <pt x="220" y="527" on="0"/>
        <pt x="220" y="558" on="1"/>
        <pt x="220" y="600" on="0"/>
        <pt x="275" y="656" on="0"/>
        <pt x="317" y="656" on="1"/>
        <pt x="355" y="656" on="0"/>
        <pt x="386" y="614" on="0"/>
        <pt x="386" y="588" on="1"/>
        <pt x="386" y="569" on="0"/>
        <pt x="373" y="533" on="0"/>
        <pt x="347" y="505" on="0"/>
        <pt x="311" y="488" on="0"/>
      </contour>
      <contour>
        <pt x="430" y="710" on="1"/>
        <pt x="400" y="703" on="0"/>
        <pt x="366" y="693" on="1"/>
        <pt x="337" y="685" on="0"/>
        <pt x="262" y="663" on="0"/>
        <pt x="224" y="651" on="1"/>
        <pt x="212" y="659" on="1"/>
        <pt x="200" y="702" on="1"/>
        <pt x="236" y="718" on="0"/>
        <pt x="307" y="750" on="0"/>
        <pt x="336" y="764" on="1"/>
        <pt x="369" y="780" on="0"/>
        <pt x="400" y="795" on="1"/>
        <pt x="412" y="791" on="1"/>
        <pt x="435" y="721" on="1"/>
      </contour>
    </TTGlyph>
    <TTGlyph name="asciicircum" xMin="14" yMin="76" xMax="428" yMax="482">
      <contour>
        <pt x="320" y="474" on="1"/>
        <pt x="330" y="439" on="0"/>
        <pt x="340" y="405" on="1"/>
        <pt x="348" y="376" on="0"/>
        <pt x="368" y="308" on="0"/>
        <pt x="376" y="282" on="1"/>
        <pt x="385" y="253" on="0"/>
        <pt x="403" y="194" on="0"/>
        <pt x="411" y="171" on="1"/>
        <pt x="420" y="144" on="0"/>
        <pt x="428" y="118" on="1"/>
        <pt x="359" y="76" on="1"/>
        <pt x="343" y="81" on="1"/>
        <pt x="336" y="107" on="0"/>
        <pt x="327" y="134" on="1"/>
        <pt x="319" y="157" on="0"/>
        <pt x="301" y="215" on="0"/>
        <pt x="293" y="244" on="1"/>
        <pt x="253" y="381" on="1"/>
        <pt x="246" y="381" on="1"/>
        <pt x="184" y="257" on="1"/>
        <pt x="168" y="228" on="0"/>
        <pt x="136" y="164" on="0"/>
        <pt x="123" y="138" on="1"/>
        <pt x="108" y="107" on="0"/>
        <pt x="94" y="77" on="1"/>
        <pt x="20" y="97" on="1"/>
        <pt x="14" y="110" on="1"/>
        <pt x="28" y="137" on="0"/>
        <pt x="44" y="167" on="1"/>
        <pt x="58" y="193" on="0"/>
        <pt x="91" y="255" on="0"/>
        <pt x="108" y="287" on="1"/>
        <pt x="210" y="478" on="1"/>
        <pt x="308" y="482" on="1"/>
      </contour>
    </TTGlyph>
    <TTGlyph name="asciitilde" xMin="23" yMin="178" xMax="474" yMax="349">
      <contour>
        <pt x="53" y="178" on="1"/>
        <pt x="23" y="215" on="1"/>
        <pt x="24" y="226" on="1"/>
        <pt x="126" y="327" on="1"/>
        <pt x="145" y="331" on="1"/>
        <pt x="163" y="331" on="0"/>
        <pt x="221" y="319" on="0"/>
        <pt x="282" y="304" on="0"/>
        <pt x="337" y="292" on="0"/>
        <pt x="353" y="292" on="1"/>
        <pt x="363" y="292" on="0"/>
        <pt x="390" y="309" on="0"/>
        <pt x="403" y="320" on="1"/>
        <pt x="418" y="332" on="0"/>
        <pt x="434" y="349" on="1"/>
        <pt x="444" y="349" on="1"/>
        <pt x="474" y="311" on="1"/>
        <pt x="473" y="301" on="1"/>
        <pt x="372" y="199" on="1"/>
        <pt x="353" y="195" on="1"/>
        <pt x="335" y="195" on="0"/>
        <pt x="277" y="207" on="0"/>
        <pt x="216" y="222" on="0"/>
        <pt x="160" y="234" on="0"/>
        <pt x="145" y="234" on="1"/>
        <pt x="134" y="234" on="0"/>
        <pt x="107" y="217" on="0"/>
        <pt x="94" y="206" on="1"/>
        <pt x="79" y="194" on="0"/>
        <pt x="64" y="178" on="1"/>
      </contour>
    </TTGlyph>
    <TTGlyph name="asterisk" xMin="80" yMin="403" xMax="420" yMax="744">
      <contour>
        <pt x="101" y="673" on="1"/>
        <pt x="115" y="665" on="0"/>
        <pt x="132" y="655" on="1"/>
        <pt x="146" y="646" on="0"/>
        <pt x="183" y="622" on="0"/>
        <pt x="203" y="607" on="1"/>
        <pt x="196" y="566" on="1"/>
        <pt x="188" y="560" on="1"/>
        <pt x="168" y="566" on="0"/>
        <pt x="129" y="577" on="0"/>
        <pt x="114" y="581" on="1"/>
        <pt x="96" y="585" on="0"/>
        <pt x="80" y="590" on="1"/>
        <pt x="80" y="603" on="0"/>
        <pt x="81" y="617" on="1"/>
        <pt x="82" y="629" on="0"/>
        <pt x="86" y="656" on="0"/>
        <pt x="91" y="670" on="1"/>
      </contour>
      <contour>
        <pt x="101" y="469" on="1"/>
        <pt x="113" y="480" on="0"/>
        <pt x="128" y="493" on="1"/>
        <pt x="141" y="504" on="0"/>
        <pt x="175" y="532" on="0"/>
        <pt x="195" y="546" on="1"/>
        <pt x="232" y="526" on="1"/>
        <pt x="235" y="518" on="1"/>
        <pt x="223" y="501" on="0"/>
        <pt x="200" y="468" on="0"/>
        <pt x="192" y="454" on="1"/>
        <pt x="182" y="438" on="0"/>
        <pt x="174" y="423" on="1"/>
        <pt x="161" y="428" on="0"/>
        <pt x="148" y="433" on="1"/>
        <pt x="137" y="438" on="0"/>
        <pt x="112" y="451" on="0"/>
        <pt x="101" y="459" on="1"/>
      </contour>
      <contour>
        <pt x="294" y="406" on="1"/>
        <pt x="286" y="421" on="0"/>
        <pt x="279" y="439" on="1"/>
        <pt x="272" y="454" on="0"/>
        <pt x="258" y="496" on="0"/>
        <pt x="250" y="520" on="1"/>
        <pt x="281" y="549" on="1"/>
        <pt x="290" y="549" on="1"/>
        <pt x="302" y="532" on="0"/>
        <pt x="326" y="500" on="0"/>
        <pt x="337" y="488" on="1"/>
        <pt x="348" y="473" on="0"/>
        <pt x="360" y="461" on="1"/>
        <pt x="352" y="451" on="0"/>
        <pt x="343" y="440" on="1"/>
        <pt x="335" y="431" on="0"/>
        <pt x="315" y="411" on="0"/>
        <pt x="304" y="403" on="1"/>
      </contour>
      <contour>
        <pt x="414" y="571" on="1"/>
        <pt x="397" y="569" on="0"/>
        <pt x="378" y="567" on="1"/>
        <pt x="361" y="565" on="0"/>
        <pt x="318" y="563" on="0"/>
        <pt x="293" y="564" on="1"/>
        <pt x="275" y="601" on="1"/>
        <pt x="277" y="611" on="1"/>
        <pt x="297" y="617" on="0"/>
        <pt x="335" y="631" on="0"/>
        <pt x="350" y="637" on="1"/>
        <pt x="368" y="644" on="0"/>
        <pt x="383" y="651" on="1"/>
        <pt x="391" y="640" on="0"/>
        <pt x="398" y="628" on="1"/>
        <pt x="404" y="617" on="0"/>
        <pt x="416" y="592" on="0"/>
        <pt x="420" y="579" on="1"/>
      </contour>
      <contour>
        <pt x="295" y="736" on="1"/>
        <pt x="291" y="720" on="0"/>
        <pt x="287" y="701" on="1"/>
        <pt x="283" y="684" on="0"/>
        <pt x="272" y="641" on="0"/>
        <pt x="264" y="618" on="1"/>
        <pt x="222" y="613" on="1"/>
        <pt x="215" y="617" on="1"/>
        <pt x="214" y="638" on="0"/>
        <pt x="213" y="678" on="0"/>
        <pt x="211" y="694" on="1"/>
        <pt x="209" y="712" on="0"/>
        <pt x="208" y="730" on="1"/>
        <pt x="220" y="733" on="0"/>
        <pt x="234" y="737" on="1"/>
        <pt x="245" y="739" on="0"/>
        <pt x="274" y="744" on="0"/>
        <pt x="288" y="744" on="1"/>
      </contour>
    </TTGlyph>
    <TTGlyph name="at" xMin="16" yMin="-224" xMax="831" yMax="642">
      <contour>
        <pt x="485" y="-12" on="1"/>
        <pt x="464" y="-12" on="0"/>
        <pt x="441" y="10" on="0"/>
        <pt x="441" y="29" on="1"/>
        <pt x="441" y="35" on="0"/>
        <pt x="449" y="76" on="0"/>
        <pt x="459" y="126" on="0"/>
        <pt x="471" y="177" on="0"/>
        <pt x="475" y="193" on="1"/>
        <pt x="467" y="194" on="1"/>
        <pt x="421" y="111" on="0"/>
        <pt x="344" y="15" on="0"/>
        <pt x="306" y="-12" on="1"/>
        <pt x="250" y="-12" on="0"/>
        <pt x="191" y="67" on="0"/>
        <pt x="191" y="134" on="1"/>
        <pt x="191" y="195" on="0"/>
        <pt x="234" y="315" on="0"/>
        <pt x="303" y="408" on="0"/>
        <pt x="389" y="466" on="0"/>
        <pt x="432" y="466" on="1"/>
        <pt x="519" y="448" on="1"/>
        <pt x="526" y="470" on="1"/>
        <pt x="538" y="477" on="1"/>
        <pt x="618" y="463" on="1"/>
        <pt x="626" y="446" on="1"/>
        <pt x="610" y="386" on="0"/>
        <pt x="596" y="324" on="1"/>
        <pt x="584" y="270" on="0"/>
        <pt x="558" y="144" on="0"/>
        <pt x="549" y="84" on="1"/>
        <pt x="555" y="78" on="1"/>
        <pt x="600" y="78" on="0"/>
        <pt x="670" y="110" on="0"/>
        <pt x="719" y="167" on="0"/>
        <pt x="744" y="247" on="0"/>
        <pt x="744" y="294" on="1"/>
        <pt x="744" y="357" on="0"/>
        <pt x="702" y="457" on="0"/>
        <pt x="624" y="526" on="0"/>
        <pt x="513" y="562" on="0"/>
        <pt x="445" y="562" on="1"/>
        <pt x="369" y="562" on="0"/>
        <pt x="244" y="506" on="0"/>
        <pt x="154" y="409" on="0"/>
        <pt x="105" y="279" on="0"/>
        <pt x="105" y="205" on="1"/>
        <pt x="105" y="126" on="0"/>
        <pt x="152" y="-5" on="0"/>
        <pt x="246" y="-100" on="0"/>
        <pt x="388" y="-155" on="0"/>
        <pt x="484" y="-158" on="1"/>
        <pt x="484" y="-174" on="1"/>
        <pt x="453" y="-224" on="1"/>
        <pt x="348" y="-222" on="0"/>
        <pt x="185" y="-160" on="0"/>
        <pt x="74" y="-54" on="0"/>
        <pt x="16" y="92" on="0"/>
        <pt x="16" y="179" on="1"/>
        <pt x="16" y="270" on="0"/>
        <pt x="86" y="437" on="0"/>
        <pt x="208" y="565" on="0"/>
        <pt x="375" y="642" on="0"/>
        <pt x="473" y="642" on="1"/>
        <pt x="554" y="642" on="0"/>
        <pt x="687" y="596" on="0"/>
        <pt x="780" y="512" on="0"/>
        <pt x="831" y="396" on="0"/>
        <pt x="831" y="326" on="1"/>
        <pt x="831" y="255" on="0"/>
        <pt x="785" y="131" on="0"/>
        <pt x="696" y="40" on="0"/>
        <pt x="567" y="-12" on="0"/>
      </contour>
      <contour>
        <pt x="337" y="105" on="1"/>
        <pt x="348" y="105" on="0"/>
        <pt x="383" y="145" on="0"/>
        <pt x="425" y="214" on="0"/>
        <pt x="470" y="306" on="0"/>
        <pt x="490" y="358" on="1"/>
        <pt x="487" y="359" on="0"/>
        <pt x="470" y="369" on="0"/>
        <pt x="446" y="379" on="0"/>
        <pt x="417" y="387" on="0"/>
        <pt x="402" y="387" on="1"/>
        <pt x="386" y="387" on="0"/>
        <pt x="355" y="353" on="0"/>
        <pt x="331" y="298" on="0"/>
        <pt x="316" y="226" on="0"/>
        <pt x="316" y="189" on="1"/>
        <pt x="316" y="154" on="0"/>
        <pt x="328" y="105" on="0"/>
      </contour>
    </TTGlyph>
    <TTGlyph name="atilde" xMin="21" yMin="-12" xMax="487" yMax="715">
      <component glyphName="a" x="0" y="0" flags="0x204"/>
      <component glyphName="tilde" x="56" y="1" flags="0x4"/>
    </TTGlyph>
    <TTGlyph name="b" xMin="37" yMin="-10" xMax="465" yMax="737">
      <contour>
        <pt x="37" y="54" on="1"/>
        <pt x="62" y="207" on="0"/>
        <pt x="81" y="330" on="1"/>
        <pt x="89" y="382" on="0"/>
        <pt x="105" y="485" on="0"/>
        <pt x="118" y="569" on="0"/>
        <pt x="126" y="626" on="0"/>
        <pt x="126" y="633" on="1"/>
        <pt x="126" y="669" on="0"/>
        <pt x="88" y="669" on="1"/>
        <pt x="54" y="669" on="1"/>
        <pt x="62" y="728" on="1"/>
        <pt x="91" y="728" on="0"/>
        <pt x="158" y="730" on="0"/>
        <pt x="187" y="732" on="1"/>
        <pt x="221" y="734" on="0"/>
        <pt x="255" y="737" on="1"/>
        <pt x="267" y="721" on="1"/>
        <pt x="251" y="647" on="0"/>
        <pt x="235" y="567" on="1"/>
        <pt x="221" y="498" on="0"/>
        <pt x="189" y="331" on="0"/>
        <pt x="176" y="250" on="1"/>
        <pt x="182" y="249" on="1"/>
        <pt x="204" y="294" on="0"/>
        <pt x="244" y="362" on="0"/>
        <pt x="280" y="414" on="0"/>
        <pt x="316" y="453" on="0"/>
        <pt x="335" y="468" on="1"/>
        <pt x="395" y="468" on="0"/>
        <pt x="465" y="381" on="0"/>
        <pt x="465" y="307" on="1"/>
        <pt x="465" y="245" on="0"/>
        <pt x="424" y="130" on="0"/>
        <pt x="355" y="42" on="0"/>
        <pt x="265" y="-10" on="0"/>
        <pt x="216" y="-10" on="1"/>
        <pt x="178" y="-10" on="0"/>
        <pt x="117" y="2" on="0"/>
        <pt x="95" y="10" on="1"/>
        <pt x="69" y="19" on="0"/>
        <pt x="49" y="31" on="1"/>
      </contour>
      <contour>
        <pt x="312" y="358" on="1"/>
        <pt x="302" y="358" on="0"/>
        <pt x="270" y="318" on="0"/>
        <pt x="231" y="249" on="0"/>
        <pt x="189" y="155" on="0"/>
        <pt x="168" y="101" on="1"/>
        <pt x="174" y="99" on="0"/>
        <pt x="195" y="91" on="0"/>
        <pt x="219" y="83" on="0"/>
        <pt x="244" y="77" on="0"/>
        <pt x="254" y="77" on="1"/>
        <pt x="271" y="77" on="0"/>
        <pt x="303" y="107" on="0"/>
        <pt x="327" y="158" on="0"/>
        <pt x="342" y="225" on="0"/>
        <pt x="342" y="262" on="1"/>
        <pt x="342" y="301" on="0"/>
        <pt x="325" y="358" on="0"/>
      </contour>
    </TTGlyph>
</ttFont>
